SplineFontDB: 3.2
FontName: Samaano-Bold
FullName: Samaano Bold
FamilyName: Samaano
Weight: Bold
Copyright: Copyright 2024 The Samaano Project Authors (https://github.com/mitradranirban/samaano-fonts)
UComments: "2024-8-27: Created with FontForge (http://fontforge.org)"
Version: 1.600
StyleMapFamilyName: Samaano
ItalicAngle: 0
UnderlinePosition: 0
UnderlineWidth: 102
Ascent: 1638
Descent: 410
InvalidEm: 0
UFOAscent: 1638
UFODescent: -410
LayerCount: 2
Layer: 0 1 "Back" 1
Layer: 1 1 "public.default" 0 "glyphs"
StyleMap: 0x0000
FSType: 0
OS2Version: 0
OS2_WeightWidthSlopeOnly: 0
OS2_UseTypoMetrics: 0
CreationTime: 1731342365
ModificationTime: 1731342864
PfmFamily: 16
TTFWeight: 700
TTFWidth: 5
LineGap: 0
VLineGap: 0
Panose: 2 7 8 9 2 2 5 2 4 4
OS2TypoAscent: 2457
OS2TypoAOffset: 0
OS2TypoDescent: -615
OS2TypoDOffset: 0
OS2TypoLinegap: 0
OS2WinAscent: 3225
OS2WinAOffset: 0
OS2WinDescent: 978
OS2WinDOffset: 0
HheadAscent: 2457
HheadAOffset: 0
HheadDescent: -615
HheadDOffset: 0
OS2CapHeight: 1548
OS2XHeight: 1023
OS2FamilyClass: 1031
OS2Vendor: 'anir'
Lookup: 4 0 1 "ligaStandardLigaturesinLatinlookup0" { "ligaStandardLigaturesinLatinlookup0 subtable"  } ['liga' ('latn' <'dflt' > 'DFLT' <'dflt' > ) ]
Lookup: 4 0 0 "nuktNuktaFormsinDevanagari2lookup0" { "nuktNuktaFormsinDevanagari2lookup0 subtable"  } ['nukt' ('dev2' <'dflt' > 'DFLT' <'dflt' > ) ]
Lookup: 4 0 0 "akhnAkhandinDevanagari2lookup0" { "akhnAkhandinDevanagari2lookup0 subtable"  } ['akhn' ('dev2' <'dflt' > 'DFLT' <'dflt' > ) ]
Lookup: 4 0 0 "rphfRephForminDevanagari2lookup0" { "rphfRephForminDevanagari2lookup0 subtable"  } ['rphf' ('dev2' <'dflt' > 'DFLT' <'dflt' > ) ]
Lookup: 4 0 0 "rkrfRakarVariantsinDevanagari2lookup0" { "rkrfRakarVariantsinDevanagari2lookup0 subtable"  } ['rkrf' ('dev2' <'dflt' > 'DFLT' <'dflt' > ) ]
Lookup: 4 0 0 "blwfBelowBaseFormsinDevanagari2lookup0" { "blwfBelowBaseFormsinDevanagari2lookup0 subtable"  } ['blwf' ('dev2' <'dflt' > 'DFLT' <'dflt' > ) ]

StartChar: .notdef
Encoding: 0 0 0
GlifName: _notdef
Width: 1024
VWidth: 0
Flags: W
LayerCount: 2
Fore
SplineSet
18 -26 m 257,0,-1
 1016 -26 l 257,1,-1
 1016 1614 l 257,2,-1
 18 1614 l 257,3,-1
 18 -26 l 257,0,-1
92 54 m 257,4,-1
 92 1537 l 257,5,-1
 485 817 l 257,6,-1
 92 54 l 257,4,-1
184 54 m 257,7,-1
 523 740 l 257,8,-1
 864 54 l 257,9,-1
 184 54 l 257,7,-1
212 1548 m 257,10,-1
 843 1548 l 257,11,-1
 525 899 l 257,12,-1
 212 1548 l 257,10,-1
563 822 m 257,13,-1
 939 1548 l 257,14,-1
 939 54 l 257,15,-1
 563 822 l 257,13,-1
EndSplineSet
EndChar

StartChar: A
Encoding: 65 65 1
GlifName: A_
Width: 1024
VWidth: 0
GlyphClass: 2
Flags: W
AnchorPoint: "top" 525 1641 basechar 0
AnchorPoint: "base" 546 0 basechar 0
LayerCount: 2
Fore
SplineSet
125 0 m 257,0,-1
 324 0 l 257,1,-1
 324 1548 l 257,2,-1
 125 1548 l 257,3,-1
 125 0 l 257,0,-1
186 1332 m 257,4,-1
 847 1332 l 257,5,-1
 847 1548 l 257,6,-1
 186 1548 l 257,7,-1
 186 1332 l 257,4,-1
204 1023 m 257,8,-1
 204 849 l 257,9,-1
 835 849 l 257,10,-1
 835 1023 l 257,11,-1
 204 1023 l 257,8,-1
722 0 m 257,12,-1
 922 0 l 257,13,-1
 922 1548 l 257,14,-1
 722 1548 l 257,15,-1
 722 0 l 257,12,-1
EndSplineSet
EndChar

StartChar: AE
Encoding: 198 198 2
GlifName: A_E_
Width: 1024
VWidth: 0
GlyphClass: 2
Flags: W
LayerCount: 2
Fore
SplineSet
646 185 m 257,0,-1
 646 0 l 257,1,-1
 996 0 l 257,2,-1
 996 185 l 257,3,-1
 646 185 l 257,0,-1
125 0 m 257,4,-1
 324 0 l 257,5,-1
 324 1548 l 257,6,-1
 125 1548 l 257,7,-1
 125 0 l 257,4,-1
186 1332 m 257,8,-1
 974 1332 l 257,9,-1
 974 1548 l 257,10,-1
 186 1548 l 257,11,-1
 186 1332 l 257,8,-1
204 1023 m 257,12,-1
 204 849 l 257,13,-1
 922 849 l 257,14,-1
 922 1023 l 257,15,-1
 204 1023 l 257,12,-1
551 0 m 257,16,-1
 751 0 l 257,17,-1
 751 1548 l 257,18,-1
 551 1548 l 257,19,-1
 551 0 l 257,16,-1
EndSplineSet
EndChar

StartChar: B
Encoding: 66 66 14
GlifName: B_
Width: 1024
VWidth: 0
GlyphClass: 2
Flags: W
AnchorPoint: "top" 262 1657 basechar 0
AnchorPoint: "base" 250 -67 basechar 0
LayerCount: 2
Fore
SplineSet
110 0 m 257,0,-1
 318 0 l 257,1,-1
 318 1537 l 257,2,-1
 110 1537 l 257,3,-1
 110 0 l 257,0,-1
433 1331 m 257,4,-1
 947 989 l 257,5,-1
 947 1215 l 257,6,-1
 433 1537 l 257,7,-1
 433 1331 l 257,4,-1
433 820 m 257,8,-1
 948 991 l 257,9,-1
 948 1215 l 257,10,-1
 433 1023 l 257,11,-1
 433 820 l 257,8,-1
375 201 m 257,12,-1
 375 0 l 257,13,-1
 929 364 l 257,14,-1
 929 588 l 257,15,-1
 375 201 l 257,12,-1
442 567 m 257,16,-1
 929 364 l 257,17,-1
 929 586 l 257,18,-1
 442 766 l 257,19,-1
 442 567 l 257,16,-1
271 1023 m 257,20,-1
 271 820 l 257,21,-1
 433 820 l 257,22,-1
 433 1023 l 257,23,-1
 271 1023 l 257,20,-1
270 766 m 257,24,-1
 270 567 l 257,25,-1
 442 567 l 257,26,-1
 442 766 l 257,27,-1
 270 766 l 257,24,-1
208 200 m 257,28,-1
 208 0 l 257,29,-1
 375 0 l 257,30,-1
 375 200 l 257,31,-1
 208 200 l 257,28,-1
270 1537 m 257,32,-1
 270 1331 l 257,33,-1
 433 1331 l 257,34,-1
 433 1537 l 257,35,-1
 270 1537 l 257,32,-1
EndSplineSet
EndChar

StartChar: C
Encoding: 67 67 15
GlifName: C_
Width: 1024
VWidth: 0
GlyphClass: 2
Flags: W
AnchorPoint: "top" 470 1637 basechar 0
AnchorPoint: "base" 518 -47 basechar 0
LayerCount: 2
Fore
SplineSet
71 1537 m 257,0,-1
 71 0 l 257,1,-1
 271 0 l 257,2,-1
 271 1537 l 257,3,-1
 71 1537 l 257,0,-1
170 1537 m 257,4,-1
 170 1338 l 257,5,-1
 953 1338 l 257,6,-1
 953 1537 l 257,7,-1
 170 1537 l 257,4,-1
156 199 m 257,8,-1
 156 0 l 257,9,-1
 951 0 l 257,10,-1
 951 199 l 257,11,-1
 156 199 l 257,8,-1
EndSplineSet
EndChar

StartChar: D
Encoding: 68 68 21
GlifName: D_
Width: 1024
VWidth: 0
GlyphClass: 2
Flags: W
AnchorPoint: "base" 290 -63 basechar 0
AnchorPoint: "top" 294 1641 basechar 0
LayerCount: 2
Fore
SplineSet
107 1548 m 257,0,-1
 107 0 l 257,1,-1
 309 0 l 257,2,-1
 309 1548 l 257,3,-1
 107 1548 l 257,0,-1
433 1548 m 257,4,-1
 433 1350 l 257,5,-1
 916 767 l 257,6,-1
 916 1023 l 257,7,-1
 433 1548 l 257,4,-1
441 201 m 257,8,-1
 441 0 l 257,9,-1
 913 769 l 257,10,-1
 913 1023 l 257,11,-1
 441 201 l 257,8,-1
271 1548 m 257,12,-1
 271 1349 l 257,13,-1
 433 1349 l 257,14,-1
 433 1548 l 257,15,-1
 271 1548 l 257,12,-1
279 200 m 257,16,-1
 279 0 l 257,17,-1
 441 0 l 257,18,-1
 441 200 l 257,19,-1
 279 200 l 257,16,-1
EndSplineSet
EndChar

StartChar: Dcroat
Encoding: 272 272 23
GlifName: D_croat
Width: 1024
VWidth: 0
GlyphClass: 2
Flags: W
AnchorPoint: "top" 319 1641 basechar 0
AnchorPoint: "base" 300 -152 basechar 0
LayerCount: 2
Fore
SplineSet
0 935 m 257,0,-1
 0 730 l 257,1,-1
 476 730 l 257,2,-1
 476 935 l 257,3,-1
 0 935 l 257,0,-1
107 1548 m 257,4,-1
 107 0 l 257,5,-1
 309 0 l 257,6,-1
 309 1548 l 257,7,-1
 107 1548 l 257,4,-1
433 1548 m 257,8,-1
 433 1350 l 257,9,-1
 916 767 l 257,10,-1
 916 1023 l 257,11,-1
 433 1548 l 257,8,-1
441 201 m 257,12,-1
 441 0 l 257,13,-1
 913 769 l 257,14,-1
 913 1023 l 257,15,-1
 441 201 l 257,12,-1
271 1548 m 257,16,-1
 271 1349 l 257,17,-1
 433 1349 l 257,18,-1
 433 1548 l 257,19,-1
 271 1548 l 257,16,-1
279 200 m 257,20,-1
 279 0 l 257,21,-1
 441 0 l 257,22,-1
 441 200 l 257,23,-1
 279 200 l 257,20,-1
EndSplineSet
EndChar

StartChar: E
Encoding: 69 69 24
GlifName: E_
Width: 1024
VWidth: 0
GlyphClass: 2
Flags: W
AnchorPoint: "top" 470 1641 basechar 0
AnchorPoint: "base" 546 -96 basechar 0
LayerCount: 2
Fore
SplineSet
103 1537 m 257,0,-1
 103 0 l 257,1,-1
 303 0 l 257,2,-1
 303 1537 l 257,3,-1
 103 1537 l 257,0,-1
181 1537 m 257,4,-1
 181 1333 l 257,5,-1
 900 1333 l 257,6,-1
 900 1537 l 257,7,-1
 181 1537 l 257,4,-1
170 203 m 257,8,-1
 170 0 l 257,9,-1
 916 0 l 257,10,-1
 916 203 l 257,11,-1
 170 203 l 257,8,-1
170 888 m 257,12,-1
 170 688 l 257,13,-1
 669 688 l 257,14,-1
 669 888 l 257,15,-1
 170 888 l 257,12,-1
EndSplineSet
EndChar

StartChar: Eng
Encoding: 330 330 33
GlifName: E_ng
Width: 1024
VWidth: 0
GlyphClass: 2
Flags: W
AnchorPoint: "top" 528 1660 basechar 0
AnchorPoint: "base" 450 -482 basechar 0
LayerCount: 2
Fore
SplineSet
524 -211 m 257,0,-1
 524 -406 l 257,1,-1
 911 -406 l 257,2,-1
 911 -211 l 257,3,-1
 524 -211 l 257,0,-1
112 1490 m 257,4,-1
 112 0 l 257,5,-1
 313 0 l 257,6,-1
 313 1490 l 257,7,-1
 112 1490 l 257,4,-1
711 1476 m 257,8,-1
 711 -406 l 257,9,-1
 912 -406 l 257,10,-1
 912 1476 l 257,11,-1
 711 1476 l 257,8,-1
112 1548 m 257,12,-1
 112 1353 l 257,13,-1
 911 1353 l 257,14,-1
 911 1548 l 257,15,-1
 112 1548 l 257,12,-1
EndSplineSet
EndChar

StartChar: Eth
Encoding: 208 208 35
GlifName: E_th
Width: 1024
VWidth: 0
GlyphClass: 2
Flags: W
AnchorPoint: "top" 268 1662 basechar 0
AnchorPoint: "base" 292 -132 basechar 0
LayerCount: 2
Fore
SplineSet
0 935 m 257,0,-1
 0 730 l 257,1,-1
 476 730 l 257,2,-1
 476 935 l 257,3,-1
 0 935 l 257,0,-1
107 1548 m 257,4,-1
 107 0 l 257,5,-1
 309 0 l 257,6,-1
 309 1548 l 257,7,-1
 107 1548 l 257,4,-1
433 1548 m 257,8,-1
 433 1350 l 257,9,-1
 916 767 l 257,10,-1
 916 1023 l 257,11,-1
 433 1548 l 257,8,-1
441 201 m 257,12,-1
 441 0 l 257,13,-1
 913 769 l 257,14,-1
 913 1023 l 257,15,-1
 441 201 l 257,12,-1
271 1548 m 257,16,-1
 271 1349 l 257,17,-1
 433 1349 l 257,18,-1
 433 1548 l 257,19,-1
 271 1548 l 257,16,-1
279 200 m 257,20,-1
 279 0 l 257,21,-1
 441 0 l 257,22,-1
 441 200 l 257,23,-1
 279 200 l 257,20,-1
EndSplineSet
EndChar

StartChar: Euro
Encoding: 8364 8364 36
GlifName: E_uro
Width: 1024
VWidth: 0
GlyphClass: 2
Flags: W
LayerCount: 2
Fore
SplineSet
56 520 m 257,0,-1
 56 372 l 257,1,-1
 852 372 l 257,2,-1
 852 520 l 257,3,-1
 56 520 l 257,0,-1
68 935 m 257,4,-1
 68 788 l 257,5,-1
 848 788 l 257,6,-1
 848 935 l 257,7,-1
 68 935 l 257,4,-1
324 1023 m 257,8,-1
 324 179 l 257,9,-1
 514 179 l 257,10,-1
 514 1023 l 257,11,-1
 324 1023 l 257,8,-1
642 1633 m 257,12,-1
 323 1023 l 257,13,-1
 514 1023 l 257,14,-1
 762 1601 l 257,15,-1
 642 1633 l 257,12,-1
324 179 m 257,16,-1
 668 -406 l 257,17,-1
 820 -406 l 257,18,-1
 514 179 l 257,19,-1
 324 179 l 257,16,-1
EndSplineSet
EndChar

StartChar: F
Encoding: 70 70 37
GlifName: F_
Width: 1024
VWidth: 0
GlyphClass: 2
Flags: W
AnchorPoint: "top" 518 1637 basechar 0
AnchorPoint: "base" 266 -71 basechar 0
LayerCount: 2
Fore
SplineSet
141 1548 m 257,0,-1
 141 0 l 257,1,-1
 341 0 l 257,2,-1
 341 1548 l 257,3,-1
 141 1548 l 257,0,-1
243 1548 m 257,4,-1
 243 1347 l 257,5,-1
 877 1347 l 257,6,-1
 877 1548 l 257,7,-1
 243 1548 l 257,4,-1
231 875 m 257,8,-1
 231 672 l 257,9,-1
 780 672 l 257,10,-1
 780 875 l 257,11,-1
 231 875 l 257,8,-1
EndSplineSet
EndChar

StartChar: G
Encoding: 71 71 38
GlifName: G_
Width: 1024
VWidth: 0
GlyphClass: 2
Flags: W
AnchorPoint: "top" 502 1649 basechar 0
AnchorPoint: "base" 540 -42 basechar 0
LayerCount: 2
Fore
SplineSet
110 1548 m 257,0,-1
 110 0 l 257,1,-1
 312 0 l 257,2,-1
 312 1548 l 257,3,-1
 110 1548 l 257,0,-1
168 1548 m 257,4,-1
 168 1347 l 257,5,-1
 868 1347 l 257,6,-1
 868 1548 l 257,7,-1
 168 1548 l 257,4,-1
141 202 m 257,8,-1
 141 0 l 257,9,-1
 904 0 l 257,10,-1
 904 202 l 257,11,-1
 141 202 l 257,8,-1
705 561 m 257,12,-1
 705 18 l 257,13,-1
 904 18 l 257,14,-1
 904 561 l 257,15,-1
 705 561 l 257,12,-1
EndSplineSet
EndChar

StartChar: H
Encoding: 72 72 42
GlifName: H_
Width: 1024
VWidth: 0
GlyphClass: 2
Flags: W
AnchorPoint: "top" 496 1638 basechar 0
AnchorPoint: "base" 496 -34 basechar 0
LayerCount: 2
Fore
SplineSet
89 1537 m 257,0,-1
 89 0 l 257,1,-1
 289 0 l 257,2,-1
 289 1537 l 257,3,-1
 89 1537 l 257,0,-1
675 1537 m 257,4,-1
 675 0 l 257,5,-1
 885 0 l 257,6,-1
 885 1537 l 257,7,-1
 675 1537 l 257,4,-1
209 1023 m 257,8,-1
 209 818 l 257,9,-1
 755 818 l 257,10,-1
 755 1023 l 257,11,-1
 209 1023 l 257,8,-1
EndSplineSet
EndChar

StartChar: Hbar
Encoding: 294 294 43
GlifName: H_bar
Width: 1024
VWidth: 0
GlyphClass: 2
Flags: W
LayerCount: 2
Fore
SplineSet
89 1537 m 257,0,-1
 89 0 l 257,1,-1
 289 0 l 257,2,-1
 289 1537 l 257,3,-1
 89 1537 l 257,0,-1
675 1537 m 257,4,-1
 675 0 l 257,5,-1
 885 0 l 257,6,-1
 885 1537 l 257,7,-1
 675 1537 l 257,4,-1
209 1023 m 257,8,-1
 209 818 l 257,9,-1
 755 818 l 257,10,-1
 755 1023 l 257,11,-1
 209 1023 l 257,8,-1
28 1434 m 257,12,-1
 28 1226 l 257,13,-1
 953 1226 l 257,14,-1
 953 1434 l 257,15,-1
 28 1434 l 257,12,-1
EndSplineSet
EndChar

StartChar: I
Encoding: 73 73 45
GlifName: I_
Width: 1024
VWidth: 0
GlyphClass: 2
Flags: W
AnchorPoint: "top" 470 1641 basechar 0
AnchorPoint: "base" 504 -66 basechar 0
LayerCount: 2
Fore
SplineSet
144 1537 m 257,0,-1
 144 1335 l 257,1,-1
 845 1335 l 257,2,-1
 845 1537 l 257,3,-1
 144 1537 l 257,0,-1
377 1468 m 257,4,-1
 377 84 l 257,5,-1
 577 84 l 257,6,-1
 577 1468 l 257,7,-1
 377 1468 l 257,4,-1
124 204 m 257,8,-1
 124 6 l 257,9,-1
 880 6 l 257,10,-1
 880 204 l 257,11,-1
 124 204 l 257,8,-1
EndSplineSet
EndChar

StartChar: J
Encoding: 74 74 56
GlifName: J_
Width: 1024
VWidth: 0
GlyphClass: 2
Flags: W
AnchorPoint: "base" 534 -67 basechar 0
AnchorPoint: "top" 798 1649 basechar 0
LayerCount: 2
Fore
SplineSet
700 1527 m 257,0,-1
 700 0 l 257,1,-1
 900 0 l 257,2,-1
 900 1527 l 257,3,-1
 700 1527 l 257,0,-1
126 208 m 257,4,-1
 126 0 l 257,5,-1
 741 0 l 257,6,-1
 741 208 l 257,7,-1
 126 208 l 257,4,-1
125 503 m 257,8,-1
 125 52 l 257,9,-1
 323 52 l 257,10,-1
 323 503 l 257,11,-1
 125 503 l 257,8,-1
EndSplineSet
EndChar

StartChar: K
Encoding: 75 75 58
GlifName: K_
Width: 1024
VWidth: 0
GlyphClass: 2
Flags: W
AnchorPoint: "base" 494 -39 basechar 0
AnchorPoint: "top" 214 1642 basechar 0
LayerCount: 2
Fore
SplineSet
118 1537 m 257,0,-1
 118 5 l 257,1,-1
 319 5 l 257,2,-1
 319 1537 l 257,3,-1
 118 1537 l 257,0,-1
163 999 m 257,4,-1
 282 835 l 257,5,-1
 939 1529 l 257,6,-1
 672 1529 l 257,7,-1
 163 999 l 257,4,-1
293 798 m 257,8,-1
 156 643 l 257,9,-1
 711 0 l 257,10,-1
 992 0 l 257,11,-1
 293 798 l 257,8,-1
EndSplineSet
EndChar

StartChar: L
Encoding: 76 76 59
GlifName: L_
Width: 1024
VWidth: 0
GlyphClass: 2
Flags: W
AnchorPoint: "base" 498 -43 basechar 0
AnchorPoint: "top" 140 1650 basechar 0
LayerCount: 2
Fore
SplineSet
53 1542 m 257,0,-1
 53 0 l 257,1,-1
 251 0 l 257,2,-1
 251 1542 l 257,3,-1
 53 1542 l 257,0,-1
162 202 m 257,4,-1
 162 0 l 257,5,-1
 888 0 l 257,6,-1
 888 202 l 257,7,-1
 162 202 l 257,4,-1
EndSplineSet
EndChar

StartChar: Lcaron
Encoding: 317 317 61
GlifName: L_caron
Width: 1024
VWidth: 0
GlyphClass: 2
Flags: W
LayerCount: 2
Fore
SplineSet
53 1542 m 257,0,-1
 53 0 l 257,1,-1
 251 0 l 257,2,-1
 251 1542 l 257,3,-1
 53 1542 l 257,0,-1
162 202 m 257,4,-1
 162 0 l 257,5,-1
 888 0 l 257,6,-1
 888 202 l 257,7,-1
 162 202 l 257,4,-1
447 1496 m 257,8,-1
 447 1264 l 257,9,-1
 577 1264 l 257,10,-1
 577 1496 l 257,11,-1
 447 1496 l 257,8,-1
EndSplineSet
EndChar

StartChar: Lslash
Encoding: 321 321 63
GlifName: L_slash
Width: 1024
VWidth: 0
GlyphClass: 2
Flags: W
LayerCount: 2
Fore
SplineSet
171 1542 m 257,0,-1
 171 0 l 257,1,-1
 369 0 l 257,2,-1
 369 1542 l 257,3,-1
 171 1542 l 257,0,-1
280 202 m 257,4,-1
 280 0 l 257,5,-1
 1006 0 l 257,6,-1
 1006 202 l 257,7,-1
 280 202 l 257,4,-1
16 902 m 257,8,-1
 96 730 l 257,9,-1
 530 932 l 257,10,-1
 450 1104 l 257,11,-1
 16 902 l 257,8,-1
EndSplineSet
EndChar

StartChar: M
Encoding: 77 77 64
GlifName: M_
Width: 1024
VWidth: 0
GlyphClass: 2
Flags: W
AnchorPoint: "base" 514 -39 basechar 0
AnchorPoint: "top" 532 1642 basechar 0
LayerCount: 2
Fore
SplineSet
101 1548 m 257,0,-1
 101 0 l 257,1,-1
 304 0 l 257,2,-1
 304 1548 l 257,3,-1
 101 1548 l 257,0,-1
722 1537 m 257,4,-1
 722 0 l 257,5,-1
 924 0 l 257,6,-1
 924 1537 l 257,7,-1
 722 1537 l 257,4,-1
138 1429 m 257,8,-1
 428 1031 l 257,9,-1
 616 1031 l 257,10,-1
 280 1548 l 257,11,-1
 138 1429 l 257,8,-1
749 1537 m 257,12,-1
 427 1023 l 257,13,-1
 614 1023 l 257,14,-1
 915 1488 l 257,15,-1
 749 1537 l 257,12,-1
EndSplineSet
EndChar

StartChar: N
Encoding: 78 78 65
GlifName: N_
Width: 1024
VWidth: 0
GlyphClass: 2
Flags: W
AnchorPoint: "top" 488 1642 basechar 0
AnchorPoint: "base" 522 -36 basechar 0
LayerCount: 2
Fore
SplineSet
95 1548 m 257,0,-1
 95 0 l 257,1,-1
 300 0 l 257,2,-1
 300 1548 l 257,3,-1
 95 1548 l 257,0,-1
722 1548 m 257,4,-1
 722 0 l 257,5,-1
 924 0 l 257,6,-1
 924 1548 l 257,7,-1
 722 1548 l 257,4,-1
96 1548 m 257,8,-1
 723 0 l 257,9,-1
 924 0 l 257,10,-1
 301 1548 l 257,11,-1
 96 1548 l 257,8,-1
EndSplineSet
EndChar

StartChar: O
Encoding: 79 79 69
GlifName: O_
Width: 1024
VWidth: 0
GlyphClass: 2
Flags: W
AnchorPoint: "top" 456 1646 basechar 0
AnchorPoint: "base" 564 -54 basechar 0
LayerCount: 2
Fore
SplineSet
110 1537 m 257,0,-1
 110 0 l 257,1,-1
 311 0 l 257,2,-1
 311 1537 l 257,3,-1
 110 1537 l 257,0,-1
707 1537 m 257,4,-1
 707 0 l 257,5,-1
 910 0 l 257,6,-1
 910 1537 l 257,7,-1
 707 1537 l 257,4,-1
174 1537 m 257,8,-1
 174 1337 l 257,9,-1
 817 1337 l 257,10,-1
 817 1537 l 257,11,-1
 174 1537 l 257,8,-1
150 204 m 257,12,-1
 150 0 l 257,13,-1
 823 0 l 257,14,-1
 823 204 l 257,15,-1
 150 204 l 257,12,-1
EndSplineSet
EndChar

StartChar: OE
Encoding: 338 338 70
GlifName: O_E_
Width: 1024
VWidth: 0
GlyphClass: 2
Flags: W
AnchorPoint: "top" 606 1636 basechar 0
AnchorPoint: "base" 594 -92 basechar 0
LayerCount: 2
Fore
SplineSet
111 1548 m 257,0,-1
 111 0 l 257,1,-1
 312 0 l 257,2,-1
 312 1548 l 257,3,-1
 111 1548 l 257,0,-1
503 1548 m 257,4,-1
 503 0 l 257,5,-1
 704 0 l 257,6,-1
 704 1548 l 257,7,-1
 503 1548 l 257,4,-1
148 1548 m 257,8,-1
 148 1349 l 257,9,-1
 880 1349 l 257,10,-1
 880 1548 l 257,11,-1
 148 1548 l 257,8,-1
150 200 m 257,12,-1
 150 0 l 257,13,-1
 888 0 l 257,14,-1
 888 200 l 257,15,-1
 150 200 l 257,12,-1
606 859 m 257,16,-1
 606 659 l 257,17,-1
 850 659 l 257,18,-1
 850 859 l 257,19,-1
 606 859 l 257,16,-1
EndSplineSet
EndChar

StartChar: Oslash
Encoding: 216 216 79
GlifName: O_slash
Width: 1024
VWidth: 0
GlyphClass: 2
Flags: W
AnchorPoint: "top" 510 1666 basechar 0
AnchorPoint: "base" 498 -122 basechar 0
LayerCount: 2
Fore
SplineSet
788 1667 m 257,0,-1
 35 -45 l 257,1,-1
 223 -118 l 257,2,-1
 976 1594 l 257,3,-1
 788 1667 l 257,0,-1
110 1537 m 257,4,-1
 110 0 l 257,5,-1
 311 0 l 257,6,-1
 311 1537 l 257,7,-1
 110 1537 l 257,4,-1
707 1537 m 257,8,-1
 707 0 l 257,9,-1
 910 0 l 257,10,-1
 910 1537 l 257,11,-1
 707 1537 l 257,8,-1
174 1537 m 257,12,-1
 174 1337 l 257,13,-1
 817 1337 l 257,14,-1
 817 1537 l 257,15,-1
 174 1537 l 257,12,-1
150 204 m 257,16,-1
 150 0 l 257,17,-1
 823 0 l 257,18,-1
 823 204 l 257,19,-1
 150 204 l 257,16,-1
EndSplineSet
EndChar

StartChar: P
Encoding: 80 80 82
GlifName: P_
Width: 1024
VWidth: 0
GlyphClass: 2
Flags: W
AnchorPoint: "base" 226 -35 basechar 0
AnchorPoint: "top" 448 1642 basechar 0
LayerCount: 2
Fore
SplineSet
112 1548 m 257,0,-1
 112 9 l 257,1,-1
 302 9 l 257,2,-1
 302 1548 l 257,3,-1
 112 1548 l 257,0,-1
191 1548 m 257,4,-1
 191 1346 l 257,5,-1
 847 1346 l 257,6,-1
 847 1548 l 257,7,-1
 191 1548 l 257,4,-1
667 1548 m 257,8,-1
 667 881 l 257,9,-1
 867 881 l 257,10,-1
 867 1548 l 257,11,-1
 667 1548 l 257,8,-1
175 1068 m 257,12,-1
 175 868 l 257,13,-1
 862 868 l 257,14,-1
 862 1068 l 257,15,-1
 175 1068 l 257,12,-1
EndSplineSet
EndChar

StartChar: Q
Encoding: 81 81 83
GlifName: Q_
Width: 1024
VWidth: 0
GlyphClass: 2
Flags: W
AnchorPoint: "base" 514 -60 basechar 0
AnchorPoint: "top" 448 1642 basechar 0
LayerCount: 2
Fore
SplineSet
110 1537 m 257,0,-1
 110 5 l 257,1,-1
 309 5 l 257,2,-1
 309 1537 l 257,3,-1
 110 1537 l 257,0,-1
709 1537 m 257,4,-1
 709 0 l 257,5,-1
 910 0 l 257,6,-1
 910 1537 l 257,7,-1
 709 1537 l 257,4,-1
174 1537 m 257,8,-1
 174 1337 l 257,9,-1
 817 1337 l 257,10,-1
 817 1537 l 257,11,-1
 174 1537 l 257,8,-1
150 205 m 257,12,-1
 150 0 l 257,13,-1
 823 0 l 257,14,-1
 823 205 l 257,15,-1
 150 205 l 257,12,-1
558 21 m 257,16,-1
 744 -285 l 257,17,-1
 935 -169 l 257,18,-1
 749 137 l 257,19,-1
 558 21 l 257,16,-1
EndSplineSet
EndChar

StartChar: R
Encoding: 82 82 84
GlifName: R_
Width: 1024
VWidth: 0
GlyphClass: 2
Flags: W
AnchorPoint: "base" 510 -28 basechar 0
AnchorPoint: "top" 480 1642 basechar 0
LayerCount: 2
Fore
SplineSet
112 1537 m 257,0,-1
 112 0 l 257,1,-1
 313 0 l 257,2,-1
 313 1537 l 257,3,-1
 112 1537 l 257,0,-1
191 1537 m 257,4,-1
 191 1335 l 257,5,-1
 847 1335 l 257,6,-1
 847 1537 l 257,7,-1
 191 1537 l 257,4,-1
674 1537 m 257,8,-1
 674 872 l 257,9,-1
 874 872 l 257,10,-1
 874 1537 l 257,11,-1
 674 1537 l 257,8,-1
175 1079 m 257,12,-1
 175 868 l 257,13,-1
 862 868 l 257,14,-1
 862 1079 l 257,15,-1
 175 1079 l 257,12,-1
314 874 m 257,16,-1
 716 0 l 257,17,-1
 956 0 l 257,18,-1
 541 872 l 257,19,-1
 314 874 l 257,16,-1
EndSplineSet
EndChar

StartChar: S
Encoding: 83 83 87
GlifName: S_
Width: 1024
VWidth: 0
GlyphClass: 2
Flags: W
AnchorPoint: "top" 508 1650 basechar 0
AnchorPoint: "base" 528 -58 basechar 0
LayerCount: 2
Fore
SplineSet
146 1537 m 257,0,-1
 146 1336 l 257,1,-1
 744 1336 l 257,2,-1
 744 1537 l 257,3,-1
 146 1537 l 257,0,-1
146 1542 m 257,4,-1
 146 1028 l 257,5,-1
 348 1028 l 257,6,-1
 348 1542 l 257,7,-1
 146 1542 l 257,4,-1
174 199 m 257,8,-1
 174 0 l 257,9,-1
 882 0 l 257,10,-1
 882 199 l 257,11,-1
 174 199 l 257,8,-1
717 0 m 257,12,-1
 918 0 l 257,13,-1
 918 355 l 257,14,-1
 717 355 l 257,15,-1
 717 0 l 257,12,-1
146 1028 m 257,16,-1
 717 355 l 257,17,-1
 918 355 l 257,18,-1
 348 1028 l 257,19,-1
 146 1028 l 257,16,-1
EndSplineSet
EndChar

StartChar: T
Encoding: 84 84 92
GlifName: T_
Width: 1024
VWidth: 0
GlyphClass: 2
Flags: W
AnchorPoint: "top" 516 1638 basechar 0
AnchorPoint: "base" 492 -54 basechar 0
LayerCount: 2
Fore
SplineSet
125 1548 m 257,0,-1
 125 1348 l 257,1,-1
 899 1348 l 257,2,-1
 899 1548 l 257,3,-1
 125 1548 l 257,0,-1
412 1436 m 257,4,-1
 412 6 l 257,5,-1
 612 6 l 257,6,-1
 612 1436 l 257,7,-1
 412 1436 l 257,4,-1
EndSplineSet
EndChar

StartChar: Thorn
Encoding: 222 222 94
GlifName: T_horn
Width: 1024
VWidth: 0
GlyphClass: 2
Flags: W
LayerCount: 2
Fore
SplineSet
112 1542 m 257,0,-1
 112 9 l 257,1,-1
 302 9 l 257,2,-1
 302 1542 l 257,3,-1
 112 1542 l 257,0,-1
191 1234 m 257,4,-1
 191 1035 l 257,5,-1
 847 1035 l 257,6,-1
 847 1234 l 257,7,-1
 191 1234 l 257,4,-1
667 1233 m 257,8,-1
 667 569 l 257,9,-1
 867 569 l 257,10,-1
 867 1233 l 257,11,-1
 667 1233 l 257,8,-1
179 684 m 257,12,-1
 179 484 l 257,13,-1
 866 484 l 257,14,-1
 866 684 l 257,15,-1
 179 684 l 257,12,-1
EndSplineSet
EndChar

StartChar: U
Encoding: 85 85 95
GlifName: U_
Width: 1024
VWidth: 0
GlyphClass: 2
Flags: W
AnchorPoint: "top" 508 1642 basechar 0
AnchorPoint: "base" 536 -94 basechar 0
LayerCount: 2
Fore
SplineSet
157 1537 m 257,0,-1
 157 0 l 257,1,-1
 357 0 l 257,2,-1
 357 1537 l 257,3,-1
 157 1537 l 257,0,-1
668 1537 m 257,4,-1
 668 0 l 257,5,-1
 867 0 l 257,6,-1
 867 1537 l 257,7,-1
 668 1537 l 257,4,-1
204 200 m 257,8,-1
 204 0 l 257,9,-1
 824 0 l 257,10,-1
 824 200 l 257,11,-1
 204 200 l 257,8,-1
EndSplineSet
EndChar

StartChar: V
Encoding: 86 86 107
GlifName: V_
Width: 1024
VWidth: 0
GlyphClass: 2
Flags: W
AnchorPoint: "top" 496 1642 basechar 0
AnchorPoint: "base" 564 -54 basechar 0
LayerCount: 2
Fore
SplineSet
106 1548 m 257,0,-1
 366 0 l 257,1,-1
 587 0 l 257,2,-1
 307 1548 l 257,3,-1
 106 1548 l 257,0,-1
716 1548 m 257,4,-1
 491 0 l 257,5,-1
 714 0 l 257,6,-1
 917 1548 l 257,7,-1
 716 1548 l 257,4,-1
EndSplineSet
EndChar

StartChar: W
Encoding: 87 87 108
GlifName: W_
Width: 1024
VWidth: 0
GlyphClass: 2
Flags: W
AnchorPoint: "base" 526 -64 basechar 0
AnchorPoint: "top" 508 1646 basechar 0
LayerCount: 2
Fore
SplineSet
104 1548 m 257,0,-1
 104 0 l 257,1,-1
 305 0 l 257,2,-1
 305 1548 l 257,3,-1
 104 1548 l 257,0,-1
721 1548 m 257,4,-1
 721 12 l 257,5,-1
 922 12 l 257,6,-1
 922 1548 l 257,7,-1
 721 1548 l 257,4,-1
413 1028 m 257,8,-1
 413 0 l 257,9,-1
 614 0 l 257,10,-1
 614 1028 l 257,11,-1
 413 1028 l 257,8,-1
103 201 m 257,12,-1
 103 0 l 257,13,-1
 922 0 l 257,14,-1
 922 201 l 257,15,-1
 103 201 l 257,12,-1
EndSplineSet
EndChar

StartChar: X
Encoding: 88 88 113
GlifName: X_
Width: 1024
VWidth: 0
GlyphClass: 2
Flags: W
AnchorPoint: "top" 498 1636 basechar 0
AnchorPoint: "base" 486 -32 basechar 0
LayerCount: 2
Fore
SplineSet
91 1548 m 257,0,-1
 733 0 l 257,1,-1
 933 0 l 257,2,-1
 290 1548 l 257,3,-1
 91 1548 l 257,0,-1
94 6 m 257,4,-1
 295 6 l 257,5,-1
 925 1548 l 257,6,-1
 726 1548 l 257,7,-1
 94 6 l 257,4,-1
EndSplineSet
EndChar

StartChar: Y
Encoding: 89 89 114
GlifName: Y_
Width: 1024
VWidth: 0
GlyphClass: 2
Flags: W
AnchorPoint: "top" 524 1638 basechar 0
AnchorPoint: "base" 508 -70 basechar 0
LayerCount: 2
Fore
SplineSet
411 897 m 257,0,-1
 411 0 l 257,1,-1
 613 0 l 257,2,-1
 613 897 l 257,3,-1
 411 897 l 257,0,-1
160 1548 m 257,4,-1
 160 859 l 257,5,-1
 360 859 l 257,6,-1
 360 1548 l 257,7,-1
 160 1548 l 257,4,-1
665 1548 m 257,8,-1
 665 859 l 257,9,-1
 864 859 l 257,10,-1
 864 1548 l 257,11,-1
 665 1548 l 257,8,-1
228 1023 m 257,12,-1
 228 859 l 257,13,-1
 774 859 l 257,14,-1
 774 1023 l 257,15,-1
 228 1023 l 257,12,-1
EndSplineSet
EndChar

StartChar: Z
Encoding: 90 90 119
GlifName: Z_
Width: 1024
VWidth: 0
GlyphClass: 2
Flags: W
AnchorPoint: "top" 496 1646 basechar 0
AnchorPoint: "base" 560 -46 basechar 0
LayerCount: 2
Fore
SplineSet
97 1548 m 257,0,-1
 97 1336 l 257,1,-1
 931 1336 l 257,2,-1
 931 1548 l 257,3,-1
 97 1548 l 257,0,-1
98 212 m 257,4,-1
 98 0 l 257,5,-1
 926 0 l 257,6,-1
 926 212 l 257,7,-1
 98 212 l 257,4,-1
670 1335 m 257,8,-1
 98 211 l 257,9,-1
 305 211 l 257,10,-1
 915 1335 l 257,11,-1
 670 1335 l 257,8,-1
EndSplineSet
EndChar

StartChar: a
Encoding: 97 97 123
GlifName: a
Width: 1024
VWidth: 0
GlyphClass: 2
Flags: W
AnchorPoint: "top" 500 1134 basechar 0
AnchorPoint: "base" 524 -74 basechar 0
LayerCount: 2
Fore
SplineSet
168 1023 m 257,0,-1
 168 824 l 257,1,-1
 774 824 l 257,2,-1
 774 1023 l 257,3,-1
 168 1023 l 257,0,-1
661 1023 m 257,4,-1
 661 0 l 257,5,-1
 855 0 l 257,6,-1
 855 1023 l 257,7,-1
 661 1023 l 257,4,-1
172 599 m 257,8,-1
 172 400 l 257,9,-1
 796 400 l 257,10,-1
 796 599 l 257,11,-1
 172 599 l 257,8,-1
172 575 m 257,12,-1
 172 0 l 257,13,-1
 373 0 l 257,14,-1
 373 575 l 257,15,-1
 172 575 l 257,12,-1
172 201 m 257,16,-1
 172 0 l 257,17,-1
 856 0 l 257,18,-1
 856 201 l 257,19,-1
 172 201 l 257,16,-1
EndSplineSet
EndChar

StartChar: acute
Encoding: 180 180 127
GlifName: acute
Width: 1024
VWidth: 0
GlyphClass: 2
Flags: W
LayerCount: 2
Fore
SplineSet
532 1422 m 257,0,-1
 402 1168 l 257,1,-1
 490 1122 l 257,2,-1
 622 1377 l 257,3,-1
 532 1422 l 257,0,-1
EndSplineSet
EndChar

StartChar: acutecomb
Encoding: 769 769 128
GlifName: acutecomb
Width: 0
VWidth: 0
GlyphClass: 4
Flags: W
AnchorPoint: "top" -1 785 mark 0
LayerCount: 2
Fore
SplineSet
100 1077 m 257,0,-1
 -30 823 l 257,1,-1
 58 777 l 257,2,-1
 189 1032 l 257,3,-1
 100 1077 l 257,0,-1
EndSplineSet
EndChar

StartChar: ae
Encoding: 230 230 130
GlifName: ae
Width: 1024
VWidth: 0
GlyphClass: 2
Flags: W
AnchorPoint: "top" 534 1156 basechar 0
AnchorPoint: "base" 522 -92 basechar 0
LayerCount: 2
Fore
SplineSet
48 1023 m 257,0,-1
 48 824 l 257,1,-1
 867 824 l 257,2,-1
 867 1023 l 257,3,-1
 48 1023 l 257,0,-1
449 1023 m 257,4,-1
 449 0 l 257,5,-1
 643 0 l 257,6,-1
 643 1023 l 257,7,-1
 449 1023 l 257,4,-1
71 599 m 257,8,-1
 71 400 l 257,9,-1
 868 400 l 257,10,-1
 868 599 l 257,11,-1
 71 599 l 257,8,-1
71 575 m 257,12,-1
 71 0 l 257,13,-1
 272 0 l 257,14,-1
 272 575 l 257,15,-1
 71 575 l 257,12,-1
69 201 m 257,16,-1
 69 0 l 257,17,-1
 989 0 l 257,18,-1
 989 201 l 257,19,-1
 69 201 l 257,16,-1
773 1023 m 257,20,-1
 773 400 l 257,21,-1
 968 400 l 257,22,-1
 968 1023 l 257,23,-1
 773 1023 l 257,20,-1
EndSplineSet
EndChar

StartChar: ampersand
Encoding: 38 38 134
GlifName: ampersand
Width: 1024
VWidth: 0
GlyphClass: 2
Flags: W
LayerCount: 2
Fore
SplineSet
260 1537 m 257,0,-1
 708 12 l 257,1,-1
 854 56 l 257,2,-1
 422 1537 l 257,3,-1
 260 1537 l 257,0,-1
804 1401 m 257,4,-1
 804 1537 l 257,5,-1
 338 1537 l 257,6,-1
 338 1401 l 257,7,-1
 804 1401 l 257,4,-1
644 1446 m 257,8,-1
 644 917 l 257,9,-1
 804 917 l 257,10,-1
 804 1446 l 257,11,-1
 644 1446 l 257,8,-1
108 1045 m 257,12,-1
 108 843 l 257,13,-1
 804 843 l 257,14,-1
 804 1045 l 257,15,-1
 108 1045 l 257,12,-1
108 1045 m 257,16,-1
 108 24 l 257,17,-1
 318 24 l 257,18,-1
 318 1045 l 257,19,-1
 108 1045 l 257,16,-1
108 190 m 257,20,-1
 108 6 l 257,21,-1
 916 6 l 257,22,-1
 916 190 l 257,23,-1
 108 190 l 257,20,-1
EndSplineSet
EndChar

StartChar: approxequal
Encoding: 8776 8776 136
GlifName: approxequal
Width: 1024
VWidth: 0
GlyphClass: 2
Flags: W
LayerCount: 2
Fore
SplineSet
330 559 m 257,0,-1
 330 460 l 257,1,-1
 680 399 l 257,2,-1
 680 498 l 257,3,-1
 330 559 l 257,0,-1
92 501 m 257,4,-1
 107 403 l 257,5,-1
 330 460 l 257,6,-1
 330 559 l 257,7,-1
 92 501 l 257,4,-1
680 498 m 257,8,-1
 680 399 l 257,9,-1
 861 540 l 257,10,-1
 837 636 l 257,11,-1
 680 498 l 257,8,-1
330 815 m 257,12,-1
 330 716 l 257,13,-1
 680 655 l 257,14,-1
 680 754 l 257,15,-1
 330 815 l 257,12,-1
92 757 m 257,16,-1
 107 659 l 257,17,-1
 330 716 l 257,18,-1
 330 815 l 257,19,-1
 92 757 l 257,16,-1
680 754 m 257,20,-1
 680 655 l 257,21,-1
 861 796 l 257,22,-1
 837 892 l 257,23,-1
 680 754 l 257,20,-1
EndSplineSet
EndChar

StartChar: asciicircum
Encoding: 94 94 139
GlifName: asciicircum
Width: 1024
VWidth: 0
GlyphClass: 2
Flags: W
LayerCount: 2
Fore
SplineSet
607 1023 m 257,0,-1
 458 1023 l 257,1,-1
 193 407 l 257,2,-1
 343 345 l 257,3,-1
 607 1023 l 257,0,-1
464 904 m 257,4,-1
 720 343 l 257,5,-1
 870 400 l 257,6,-1
 607 1023 l 257,7,-1
 464 904 l 257,4,-1
EndSplineSet
EndChar

StartChar: asciitilde
Encoding: 126 126 140
GlifName: asciitilde
Width: 1024
VWidth: 0
GlyphClass: 2
Flags: W
LayerCount: 2
Fore
SplineSet
330 815 m 257,0,-1
 330 716 l 257,1,-1
 680 655 l 257,2,-1
 680 754 l 257,3,-1
 330 815 l 257,0,-1
92 757 m 257,4,-1
 107 659 l 257,5,-1
 330 716 l 257,6,-1
 330 815 l 257,7,-1
 92 757 l 257,4,-1
680 754 m 257,8,-1
 680 655 l 257,9,-1
 861 796 l 257,10,-1
 837 892 l 257,11,-1
 680 754 l 257,8,-1
EndSplineSet
EndChar

StartChar: asterisk
Encoding: 42 42 141
GlifName: asterisk
Width: 1024
VWidth: 0
GlyphClass: 2
Flags: W
LayerCount: 2
Fore
SplineSet
422 1297 m 257,0,-1
 422 300 l 257,1,-1
 652 300 l 257,2,-1
 652 1297 l 257,3,-1
 422 1297 l 257,0,-1
65 1099 m 257,4,-1
 793 360 l 257,5,-1
 952 504 l 257,6,-1
 220 1241 l 257,7,-1
 65 1099 l 257,4,-1
817 1232 m 257,8,-1
 94 525 l 257,9,-1
 236 372 l 257,10,-1
 959 1079 l 257,11,-1
 817 1232 l 257,8,-1
EndSplineSet
EndChar

StartChar: at
Encoding: 64 64 142
GlifName: at
Width: 1024
VWidth: 0
GlyphClass: 2
Flags: W
LayerCount: 2
Fore
SplineSet
101 1023 m 257,0,-1
 101 879 l 257,1,-1
 920 879 l 257,2,-1
 920 1023 l 257,3,-1
 101 1023 l 257,0,-1
637 592 m 257,4,-1
 637 0 l 257,5,-1
 790 0 l 257,6,-1
 790 592 l 257,7,-1
 637 592 l 257,4,-1
304 600 m 257,8,-1
 304 444 l 257,9,-1
 729 444 l 257,10,-1
 729 600 l 257,11,-1
 304 600 l 257,8,-1
301 589 m 257,12,-1
 301 12 l 257,13,-1
 475 12 l 257,14,-1
 475 589 l 257,15,-1
 301 589 l 257,12,-1
299 188 m 257,16,-1
 299 0 l 257,17,-1
 793 0 l 257,18,-1
 793 188 l 257,19,-1
 299 188 l 257,16,-1
13 1023 m 257,20,-1
 13 -223 l 257,21,-1
 189 -223 l 257,22,-1
 189 1023 l 257,23,-1
 13 1023 l 257,20,-1
11 -86 m 257,24,-1
 11 -258 l 257,25,-1
 959 -258 l 257,26,-1
 959 -86 l 257,27,-1
 11 -86 l 257,24,-1
862 1011 m 257,28,-1
 862 0 l 257,29,-1
 1013 0 l 257,30,-1
 1013 1011 l 257,31,-1
 862 1011 l 257,28,-1
734 175 m 257,32,-1
 734 0 l 257,33,-1
 943 0 l 257,34,-1
 943 175 l 257,35,-1
 734 175 l 257,32,-1
EndSplineSet
EndChar

StartChar: b
Encoding: 98 98 144
GlifName: b
Width: 1024
VWidth: 0
GlyphClass: 2
Flags: W
AnchorPoint: "base" 498 -36 basechar 0
AnchorPoint: "top" 220 1646 basechar 0
LayerCount: 2
Fore
SplineSet
135 1537 m 257,0,-1
 135 0 l 257,1,-1
 334 0 l 257,2,-1
 334 1537 l 257,3,-1
 135 1537 l 257,0,-1
232 1033 m 257,4,-1
 232 834 l 257,5,-1
 750 834 l 257,6,-1
 750 1033 l 257,7,-1
 232 1033 l 257,4,-1
690 1033 m 257,8,-1
 690 0 l 257,9,-1
 889 0 l 257,10,-1
 889 1033 l 257,11,-1
 690 1033 l 257,8,-1
260 207 m 257,12,-1
 260 0 l 257,13,-1
 810 0 l 257,14,-1
 810 207 l 257,15,-1
 260 207 l 257,12,-1
EndSplineSet
EndChar

StartChar: backslash
Encoding: 92 92 145
GlifName: backslash
Width: 1024
VWidth: 0
GlyphClass: 2
Flags: W
LayerCount: 2
Fore
SplineSet
168 1441 m 257,0,-1
 795 -13 l 257,1,-1
 986 65 l 257,2,-1
 360 1519 l 257,3,-1
 168 1441 l 257,0,-1
EndSplineSet
EndChar

StartChar: bar
Encoding: 124 124 146
GlifName: bar
Width: 1024
VWidth: 0
GlyphClass: 2
Flags: W
LayerCount: 2
Fore
SplineSet
525 1435 m 257,0,-1
 525 -90 l 257,1,-1
 728 -90 l 257,2,-1
 728 1435 l 257,3,-1
 525 1435 l 257,0,-1
EndSplineSet
EndChar

StartChar: braceleft
Encoding: 123 123 147
GlifName: braceleft
Width: 1024
VWidth: 0
GlyphClass: 2
Flags: W
LayerCount: 2
Fore
SplineSet
421 1548 m 257,0,-1
 421 838 l 257,1,-1
 567 838 l 257,2,-1
 567 1548 l 257,3,-1
 421 1548 l 257,0,-1
433 424 m 257,4,-1
 433 -286 l 257,5,-1
 579 -286 l 257,6,-1
 579 424 l 257,7,-1
 433 424 l 257,4,-1
132 690 m 257,8,-1
 132 630 l 257,9,-1
 567 838 l 257,10,-1
 421 838 l 257,11,-1
 132 690 l 257,8,-1
132 690 m 257,12,-1
 132 630 l 257,13,-1
 431 425 l 257,14,-1
 580 425 l 257,15,-1
 132 690 l 257,12,-1
422 1603 m 257,16,-1
 422 1452 l 257,17,-1
 690 1574 l 257,18,-1
 694 1603 l 257,19,-1
 422 1603 l 257,16,-1
434 -140 m 257,20,-1
 434 -287 l 257,21,-1
 710 -287 l 257,22,-1
 710 -274 l 257,23,-1
 434 -140 l 257,20,-1
EndSplineSet
EndChar

StartChar: braceright
Encoding: 125 125 148
GlifName: braceright
Width: 1024
VWidth: 0
GlyphClass: 2
Flags: W
LayerCount: 2
Fore
SplineSet
437 1548 m 257,0,-1
 275 1548 l 257,1,-1
 275 838 l 257,2,-1
 437 838 l 257,3,-1
 437 1548 l 257,0,-1
423 424 m 257,4,-1
 263 424 l 257,5,-1
 263 -286 l 257,6,-1
 423 -286 l 257,7,-1
 423 424 l 257,4,-1
710 690 m 257,8,-1
 432 838 l 257,9,-1
 271 838 l 257,10,-1
 710 630 l 257,11,-1
 710 690 l 257,8,-1
710 690 m 257,12,-1
 263 424 l 257,13,-1
 423 424 l 257,14,-1
 710 630 l 257,15,-1
 710 690 l 257,12,-1
438 1603 m 257,16,-1
 163 1603 l 257,17,-1
 167 1574 l 257,18,-1
 438 1452 l 257,19,-1
 438 1603 l 257,16,-1
408 -140 m 257,20,-1
 132 -274 l 257,21,-1
 132 -284 l 257,22,-1
 408 -284 l 257,23,-1
 408 -140 l 257,20,-1
EndSplineSet
EndChar

StartChar: bracketleft
Encoding: 91 91 149
GlifName: bracketleft
Width: 1024
VWidth: 0
GlyphClass: 2
Flags: W
LayerCount: 2
Fore
SplineSet
162 1542 m 257,0,-1
 162 -242 l 257,1,-1
 284 -242 l 257,2,-1
 284 1542 l 257,3,-1
 162 1542 l 257,0,-1
216 1543 m 257,4,-1
 216 1416 l 257,5,-1
 425 1416 l 257,6,-1
 425 1543 l 257,7,-1
 216 1543 l 257,4,-1
216 -91 m 257,8,-1
 216 -242 l 257,9,-1
 430 -242 l 257,10,-1
 430 -91 l 257,11,-1
 216 -91 l 257,8,-1
EndSplineSet
EndChar

StartChar: bracketright
Encoding: 93 93 150
GlifName: bracketright
Width: 1024
VWidth: 0
GlyphClass: 2
Flags: W
LayerCount: 2
Fore
SplineSet
366 1542 m 257,0,-1
 366 -242 l 257,1,-1
 488 -242 l 257,2,-1
 488 1542 l 257,3,-1
 366 1542 l 257,0,-1
216 1543 m 257,4,-1
 216 1416 l 257,5,-1
 425 1416 l 257,6,-1
 425 1543 l 257,7,-1
 216 1543 l 257,4,-1
216 -91 m 257,8,-1
 216 -242 l 257,9,-1
 430 -242 l 257,10,-1
 430 -91 l 257,11,-1
 216 -91 l 257,8,-1
EndSplineSet
EndChar

StartChar: breve
Encoding: 728 728 151
GlifName: breve
Width: 1024
VWidth: 0
GlyphClass: 2
Flags: W
LayerCount: 2
Fore
SplineSet
656 1548 m 257,0,-1
 656 1480 l 257,1,-1
 821 1548 l 257,2,-1
 821 1645 l 257,3,-1
 656 1548 l 257,0,-1
332 1548 m 257,4,-1
 332 1480 l 257,5,-1
 656 1480 l 257,6,-1
 656 1548 l 257,7,-1
 332 1548 l 257,4,-1
161 1630 m 257,8,-1
 161 1548 l 257,9,-1
 332 1480 l 257,10,-1
 332 1548 l 257,11,-1
 161 1630 l 257,8,-1
EndSplineSet
EndChar

StartChar: brokenbar
Encoding: 166 166 152
GlifName: brokenbar
Width: 1024
VWidth: 0
GlyphClass: 2
Flags: W
LayerCount: 2
Fore
SplineSet
511 -332 m 257,0,-1
 621 -332 l 257,1,-1
 621 682 l 257,2,-1
 511 682 l 257,3,-1
 511 -332 l 257,0,-1
514 790 m 257,4,-1
 624 790 l 257,5,-1
 624 1636 l 257,6,-1
 514 1636 l 257,7,-1
 514 790 l 257,4,-1
EndSplineSet
EndChar

StartChar: bullet
Encoding: 8226 8226 153
GlifName: bullet
Width: 1024
VWidth: 0
GlyphClass: 2
Flags: W
LayerCount: 2
Fore
SplineSet
369 1023 m 257,0,-1
 369 765 l 257,1,-1
 654 765 l 257,2,-1
 654 1023 l 257,3,-1
 369 1023 l 257,0,-1
EndSplineSet
EndChar

StartChar: c
Encoding: 99 99 154
GlifName: c
Width: 1024
VWidth: 0
GlyphClass: 2
Flags: W
AnchorPoint: "base" 522 -40 basechar 0
AnchorPoint: "top" 492 1162 basechar 0
LayerCount: 2
Fore
SplineSet
164 1023 m 257,0,-1
 164 826 l 257,1,-1
 860 826 l 257,2,-1
 860 1023 l 257,3,-1
 164 1023 l 257,0,-1
166 984 m 257,4,-1
 166 0 l 257,5,-1
 368 0 l 257,6,-1
 368 984 l 257,7,-1
 166 984 l 257,4,-1
272 201 m 257,8,-1
 272 0 l 257,9,-1
 854 0 l 257,10,-1
 854 201 l 257,11,-1
 272 201 l 257,8,-1
EndSplineSet
EndChar

StartChar: caron
Encoding: 711 711 156
GlifName: caron
Width: 1024
VWidth: 0
GlyphClass: 2
Flags: W
LayerCount: 2
Fore
SplineSet
550 1083 m 257,0,-1
 412 1437 l 257,1,-1
 334 1404 l 257,2,-1
 472 1083 l 257,3,-1
 550 1083 l 257,0,-1
475 1146 m 257,4,-1
 550 1083 l 257,5,-1
 687 1408 l 257,6,-1
 609 1437 l 257,7,-1
 475 1146 l 257,4,-1
EndSplineSet
EndChar

StartChar: cedilla
Encoding: 184 184 161
GlifName: cedilla
Width: 1024
VWidth: 0
GlyphClass: 2
Flags: W
LayerCount: 2
Fore
SplineSet
288 1020 m 257,0,-1
 288 696 l 257,1,-1
 444 696 l 257,2,-1
 444 1020 l 257,3,-1
 288 1020 l 257,0,-1
290 552 m 257,4,-1
 290 434 l 257,5,-1
 736 434 l 257,6,-1
 736 552 l 257,7,-1
 290 552 l 257,4,-1
584 840 m 257,8,-1
 584 468 l 257,9,-1
 736 468 l 257,10,-1
 736 840 l 257,11,-1
 584 840 l 257,8,-1
290 840 m 257,12,-1
 290 684 l 257,13,-1
 736 684 l 257,14,-1
 736 840 l 257,15,-1
 290 840 l 257,12,-1
EndSplineSet
EndChar

StartChar: cent
Encoding: 162 162 162
GlifName: cent
Width: 1024
VWidth: 0
GlyphClass: 2
Flags: W
LayerCount: 2
Fore
SplineSet
691 1183 m 257,0,-1
 544 1183 l 257,1,-1
 544 -86 l 257,2,-1
 691 -86 l 257,3,-1
 691 1183 l 257,0,-1
164 1023 m 257,4,-1
 164 826 l 257,5,-1
 860 826 l 257,6,-1
 860 1023 l 257,7,-1
 164 1023 l 257,4,-1
166 984 m 257,8,-1
 166 0 l 257,9,-1
 368 0 l 257,10,-1
 368 984 l 257,11,-1
 166 984 l 257,8,-1
272 201 m 257,12,-1
 272 0 l 257,13,-1
 854 0 l 257,14,-1
 854 201 l 257,15,-1
 272 201 l 257,12,-1
EndSplineSet
EndChar

StartChar: circumflex
Encoding: 710 710 163
GlifName: circumflex
Width: 1024
VWidth: 0
GlyphClass: 2
Flags: W
LayerCount: 2
Fore
SplineSet
539 1330 m 257,0,-1
 479 1330 l 257,1,-1
 373 1083 l 257,2,-1
 433 1058 l 257,3,-1
 539 1330 l 257,0,-1
481 1282 m 257,4,-1
 584 1058 l 257,5,-1
 644 1080 l 257,6,-1
 539 1330 l 257,7,-1
 481 1282 l 257,4,-1
EndSplineSet
EndChar

StartChar: colon
Encoding: 58 58 164
GlifName: colon
Width: 1024
VWidth: 0
GlyphClass: 2
Flags: W
LayerCount: 2
Fore
SplineSet
400 430 m 257,0,-1
 400 201 l 257,1,-1
 648 201 l 257,2,-1
 648 430 l 257,3,-1
 400 430 l 257,0,-1
376 1294 m 257,4,-1
 376 1047 l 257,5,-1
 642 1047 l 257,6,-1
 642 1294 l 257,7,-1
 376 1294 l 257,4,-1
EndSplineSet
EndChar

StartChar: colonmonetary
Encoding: 8353 8353 165
GlifName: colonmonetary
Width: 1024
VWidth: 0
GlyphClass: 2
Flags: W
LayerCount: 2
Fore
SplineSet
777 1483 m 257,0,-1
 207 6 l 257,1,-1
 301 -67 l 257,2,-1
 871 1410 l 257,3,-1
 777 1483 l 257,0,-1
561 1606 m 257,4,-1
 -9 129 l 257,5,-1
 97 56 l 257,6,-1
 667 1533 l 257,7,-1
 561 1606 l 257,4,-1
71 1537 m 257,8,-1
 71 0 l 257,9,-1
 271 0 l 257,10,-1
 271 1537 l 257,11,-1
 71 1537 l 257,8,-1
170 1537 m 257,12,-1
 170 1338 l 257,13,-1
 953 1338 l 257,14,-1
 953 1537 l 257,15,-1
 170 1537 l 257,12,-1
156 199 m 257,16,-1
 156 0 l 257,17,-1
 951 0 l 257,18,-1
 951 199 l 257,19,-1
 156 199 l 257,16,-1
EndSplineSet
EndChar

StartChar: comma
Encoding: 44 44 166
GlifName: comma
Width: 1024
VWidth: 0
GlyphClass: 2
Flags: W
LayerCount: 2
Fore
SplineSet
398 237 m 257,0,-1
 398 8 l 257,1,-1
 646 8 l 257,2,-1
 646 237 l 257,3,-1
 398 237 l 257,0,-1
496 135 m 257,4,-1
 378 -146 l 257,5,-1
 522 -206 l 257,6,-1
 644 0 l 257,7,-1
 496 135 l 257,4,-1
EndSplineSet
EndChar

StartChar: copyright
Encoding: 169 169 167
GlifName: copyright
Width: 1024
VWidth: 0
GlyphClass: 2
Flags: W
LayerCount: 2
Fore
SplineSet
16 1537 m 257,0,-1
 16 0 l 257,1,-1
 217 0 l 257,2,-1
 217 1537 l 257,3,-1
 16 1537 l 257,0,-1
814 1537 m 257,4,-1
 814 0 l 257,5,-1
 1017 0 l 257,6,-1
 1017 1537 l 257,7,-1
 814 1537 l 257,4,-1
126 1537 m 257,8,-1
 126 1337 l 257,9,-1
 817 1337 l 257,10,-1
 817 1537 l 257,11,-1
 126 1537 l 257,8,-1
150 204 m 257,12,-1
 150 0 l 257,13,-1
 823 0 l 257,14,-1
 823 204 l 257,15,-1
 150 204 l 257,12,-1
262 1197 m 257,16,-1
 262 996 l 257,17,-1
 697 996 l 257,18,-1
 697 1197 l 257,19,-1
 262 1197 l 257,16,-1
263 1154 m 257,20,-1
 263 340 l 257,21,-1
 432 340 l 257,22,-1
 432 1154 l 257,23,-1
 263 1154 l 257,20,-1
263 495 m 257,24,-1
 263 294 l 257,25,-1
 703 294 l 257,26,-1
 703 495 l 257,27,-1
 263 495 l 257,24,-1
EndSplineSet
EndChar

StartChar: currency
Encoding: 164 164 168
GlifName: currency
Width: 1024
VWidth: 0
GlyphClass: 2
Flags: W
LayerCount: 2
Fore
SplineSet
79 1202 m 257,0,-1
 79 180 l 257,1,-1
 279 180 l 257,2,-1
 279 1202 l 257,3,-1
 79 1202 l 257,0,-1
694 1204 m 257,4,-1
 694 180 l 257,5,-1
 896 180 l 257,6,-1
 896 1204 l 257,7,-1
 694 1204 l 257,4,-1
202 1204 m 257,8,-1
 202 1002 l 257,9,-1
 788 1002 l 257,10,-1
 788 1204 l 257,11,-1
 202 1204 l 257,8,-1
206 380 m 257,12,-1
 206 181 l 257,13,-1
 778 181 l 257,14,-1
 778 380 l 257,15,-1
 206 380 l 257,12,-1
0 1356 m 257,16,-1
 0 1109 l 257,17,-1
 268 1109 l 257,18,-1
 268 1356 l 257,19,-1
 0 1356 l 257,16,-1
698 1331 m 257,20,-1
 698 1084 l 257,21,-1
 962 1084 l 257,22,-1
 962 1331 l 257,23,-1
 698 1331 l 257,20,-1
10 366 m 257,24,-1
 10 119 l 257,25,-1
 274 119 l 257,26,-1
 274 366 l 257,27,-1
 10 366 l 257,24,-1
680 371 m 257,28,-1
 680 124 l 257,29,-1
 944 124 l 257,30,-1
 944 371 l 257,31,-1
 680 371 l 257,28,-1
EndSplineSet
EndChar

StartChar: d
Encoding: 100 100 169
GlifName: d
Width: 1024
VWidth: 0
GlyphClass: 2
Flags: W
AnchorPoint: "base" 506 -56 basechar 0
AnchorPoint: "top" 824 1642 basechar 0
LayerCount: 2
Fore
SplineSet
692 1527 m 257,0,-1
 692 0 l 257,1,-1
 893 0 l 257,2,-1
 893 1527 l 257,3,-1
 692 1527 l 257,0,-1
228 1023 m 257,4,-1
 228 822 l 257,5,-1
 781 822 l 257,6,-1
 781 1023 l 257,7,-1
 228 1023 l 257,4,-1
132 1023 m 257,8,-1
 132 0 l 257,9,-1
 333 0 l 257,10,-1
 333 1023 l 257,11,-1
 132 1023 l 257,8,-1
228 195 m 257,12,-1
 228 0 l 257,13,-1
 845 0 l 257,14,-1
 845 195 l 257,15,-1
 228 195 l 257,12,-1
EndSplineSet
EndChar

StartChar: dagger
Encoding: 8224 8224 170
GlifName: dagger
Width: 1024
VWidth: 0
GlyphClass: 2
Flags: W
LayerCount: 2
Fore
SplineSet
166 1251 m 257,0,-1
 166 1086 l 257,1,-1
 772 1086 l 257,2,-1
 772 1251 l 257,3,-1
 166 1251 l 257,0,-1
390 1548 m 257,4,-1
 390 0 l 257,5,-1
 535 0 l 257,6,-1
 535 1548 l 257,7,-1
 390 1548 l 257,4,-1
EndSplineSet
EndChar

StartChar: daggerdbl
Encoding: 8225 8225 171
GlifName: daggerdbl
Width: 1024
VWidth: 0
GlyphClass: 2
Flags: W
LayerCount: 2
Fore
SplineSet
166 937 m 257,0,-1
 166 772 l 257,1,-1
 772 772 l 257,2,-1
 772 937 l 257,3,-1
 166 937 l 257,0,-1
166 1251 m 257,4,-1
 166 1086 l 257,5,-1
 772 1086 l 257,6,-1
 772 1251 l 257,7,-1
 166 1251 l 257,4,-1
390 1548 m 257,8,-1
 390 0 l 257,9,-1
 535 0 l 257,10,-1
 535 1548 l 257,11,-1
 390 1548 l 257,8,-1
EndSplineSet
EndChar

StartChar: dcaron
Encoding: 271 271 172
GlifName: dcaron
Width: 1024
VWidth: 0
GlyphClass: 2
Flags: W
LayerCount: 2
Fore
SplineSet
613 1527 m 257,0,-1
 613 0 l 257,1,-1
 814 0 l 257,2,-1
 814 1527 l 257,3,-1
 613 1527 l 257,0,-1
149 1023 m 257,4,-1
 149 822 l 257,5,-1
 702 822 l 257,6,-1
 702 1023 l 257,7,-1
 149 1023 l 257,4,-1
53 1023 m 257,8,-1
 53 0 l 257,9,-1
 254 0 l 257,10,-1
 254 1023 l 257,11,-1
 53 1023 l 257,8,-1
149 195 m 257,12,-1
 149 0 l 257,13,-1
 766 0 l 257,14,-1
 766 195 l 257,15,-1
 149 195 l 257,12,-1
860 1496 m 257,16,-1
 860 1264 l 257,17,-1
 990 1264 l 257,18,-1
 990 1496 l 257,19,-1
 860 1496 l 257,16,-1
EndSplineSet
EndChar

StartChar: dcroat
Encoding: 273 273 173
GlifName: dcroat
Width: 1024
VWidth: 0
GlyphClass: 2
Flags: W
AnchorPoint: "top" 792 1648 basechar 0
AnchorPoint: "base" 522 -86 basechar 0
LayerCount: 2
Fore
SplineSet
692 1527 m 257,0,-1
 692 0 l 257,1,-1
 893 0 l 257,2,-1
 893 1527 l 257,3,-1
 692 1527 l 257,0,-1
228 1023 m 257,4,-1
 228 822 l 257,5,-1
 781 822 l 257,6,-1
 781 1023 l 257,7,-1
 228 1023 l 257,4,-1
132 1023 m 257,8,-1
 132 0 l 257,9,-1
 333 0 l 257,10,-1
 333 1023 l 257,11,-1
 132 1023 l 257,8,-1
228 195 m 257,12,-1
 228 0 l 257,13,-1
 845 0 l 257,14,-1
 845 195 l 257,15,-1
 228 195 l 257,12,-1
555 1403 m 257,16,-1
 555 1202 l 257,17,-1
 999 1202 l 257,18,-1
 999 1403 l 257,19,-1
 555 1403 l 257,16,-1
EndSplineSet
EndChar

StartChar: degree
Encoding: 176 176 174
GlifName: degree
Width: 1024
VWidth: 0
GlyphClass: 2
Flags: W
LayerCount: 2
Fore
SplineSet
467 1456 m 257,0,-1
 615 1456 l 257,1,-1
 615 1326 l 257,2,-1
 467 1326 l 257,3,-1
 467 1456 l 257,0,-1
362 1548 m 257,4,-1
 362 1238 l 257,5,-1
 722 1238 l 257,6,-1
 722 1548 l 257,7,-1
 362 1548 l 257,4,-1
EndSplineSet
EndChar

StartChar: dieresis
Encoding: 168 168 175
GlifName: dieresis
Width: 1024
VWidth: 0
GlyphClass: 2
Flags: W
LayerCount: 2
Fore
SplineSet
345 1030 m 257,0,-1
 345 929 l 257,1,-1
 457 929 l 257,2,-1
 457 1030 l 257,3,-1
 345 1030 l 257,0,-1
587 1030 m 257,4,-1
 587 929 l 257,5,-1
 699 929 l 257,6,-1
 699 1030 l 257,7,-1
 587 1030 l 257,4,-1
EndSplineSet
EndChar

StartChar: divide
Encoding: 247 247 176
GlifName: divide
Width: 1024
VWidth: 0
GlyphClass: 2
Flags: W
LayerCount: 2
Fore
SplineSet
400 430 m 257,0,-1
 400 201 l 257,1,-1
 648 201 l 257,2,-1
 648 430 l 257,3,-1
 400 430 l 257,0,-1
376 1294 m 257,4,-1
 376 1047 l 257,5,-1
 642 1047 l 257,6,-1
 642 1294 l 257,7,-1
 376 1294 l 257,4,-1
99 808 m 257,8,-1
 99 600 l 257,9,-1
 925 600 l 257,10,-1
 925 808 l 257,11,-1
 99 808 l 257,8,-1
EndSplineSet
EndChar

StartChar: dollar
Encoding: 36 36 177
GlifName: dollar
Width: 1024
VWidth: 0
GlyphClass: 2
Flags: W
LayerCount: 2
Fore
SplineSet
126 1537 m 257,0,-1
 126 1358 l 257,1,-1
 724 1358 l 257,2,-1
 724 1537 l 257,3,-1
 126 1537 l 257,0,-1
126 1542 m 257,4,-1
 126 1028 l 257,5,-1
 331 1028 l 257,6,-1
 331 1542 l 257,7,-1
 126 1542 l 257,4,-1
154 163 m 257,8,-1
 154 0 l 257,9,-1
 862 0 l 257,10,-1
 862 163 l 257,11,-1
 154 163 l 257,8,-1
692 0 m 257,12,-1
 898 0 l 257,13,-1
 898 355 l 257,14,-1
 692 355 l 257,15,-1
 692 0 l 257,12,-1
126 1028 m 257,16,-1
 692 355 l 257,17,-1
 898 355 l 257,18,-1
 331 1028 l 257,19,-1
 126 1028 l 257,16,-1
385 1636 m 257,20,-1
 385 -215 l 257,21,-1
 599 -215 l 257,22,-1
 599 1636 l 257,23,-1
 385 1636 l 257,20,-1
EndSplineSet
EndChar

StartChar: dong
Encoding: 8363 8363 178
GlifName: dong
Width: 1024
VWidth: 0
GlyphClass: 2
Flags: W
LayerCount: 2
Fore
SplineSet
228 18 m 257,0,-1
 228 -177 l 257,1,-1
 845 -177 l 257,2,-1
 845 18 l 257,3,-1
 228 18 l 257,0,-1
692 1527 m 257,4,-1
 692 98 l 257,5,-1
 893 98 l 257,6,-1
 893 1527 l 257,7,-1
 692 1527 l 257,4,-1
228 1023 m 257,8,-1
 228 822 l 257,9,-1
 781 822 l 257,10,-1
 781 1023 l 257,11,-1
 228 1023 l 257,8,-1
132 1023 m 257,12,-1
 132 98 l 257,13,-1
 333 98 l 257,14,-1
 333 1023 l 257,15,-1
 132 1023 l 257,12,-1
228 293 m 257,16,-1
 228 98 l 257,17,-1
 845 98 l 257,18,-1
 845 293 l 257,19,-1
 228 293 l 257,16,-1
555 1403 m 257,20,-1
 555 1202 l 257,21,-1
 999 1202 l 257,22,-1
 999 1403 l 257,23,-1
 555 1403 l 257,20,-1
EndSplineSet
EndChar

StartChar: dotaccent
Encoding: 729 729 179
GlifName: dotaccent
Width: 1024
VWidth: 0
GlyphClass: 2
Flags: W
HStem: 1565 247
VStem: 380 264
LayerCount: 2
Fore
SplineSet
385 1103 m 257,0,-1
 385 856 l 257,1,-1
 649 856 l 257,2,-1
 649 1103 l 257,3,-1
 385 1103 l 257,0,-1
EndSplineSet
PickledDataWithLists: "(dp0
Vcom.fontlab.hintData
p1
(dp2
Vhhints
p3
(lp4
(dp5
Vposition
p6
I1565
sVwidth
p7
I247
sasVvhints
p8
(lp9
(dp10
g6
I380
sg7
I264
sass."
EndChar

StartChar: dotbelowcomb
Encoding: 803 803 180
GlifName: dotbelowcomb
Width: 0
VWidth: 0
GlyphClass: 4
Flags: W
AnchorPoint: "base" -14 -187 mark 0
LayerCount: 2
Fore
SplineSet
-132 -204 m 257,0,-1
 -132 -451 l 257,1,-1
 132 -451 l 257,2,-1
 132 -204 l 257,3,-1
 -132 -204 l 257,0,-1
EndSplineSet
EndChar

StartChar: dotlessi
Encoding: 305 305 181
GlifName: dotlessi
Width: 1024
VWidth: 0
GlyphClass: 2
Flags: W
AnchorPoint: "top" 492 1191 basechar 0
AnchorPoint: "base" 546 -101 basechar 0
LayerCount: 2
Fore
SplineSet
411 1018 m 257,0,-1
 411 139 l 257,1,-1
 613 139 l 257,2,-1
 613 1018 l 257,3,-1
 411 1018 l 257,0,-1
141 204 m 257,4,-1
 141 6 l 257,5,-1
 883 6 l 257,6,-1
 883 204 l 257,7,-1
 141 204 l 257,4,-1
191 1018 m 257,8,-1
 191 818 l 257,9,-1
 567 818 l 257,10,-1
 567 1018 l 257,11,-1
 191 1018 l 257,8,-1
EndSplineSet
EndChar

StartChar: e
Encoding: 101 101 182
GlifName: e
Width: 1024
VWidth: 0
GlyphClass: 2
Flags: W
AnchorPoint: "top" 512 1166 basechar 0
AnchorPoint: "base" 492 -96 basechar 0
LayerCount: 2
Fore
SplineSet
219 1023 m 257,0,-1
 219 812 l 257,1,-1
 854 812 l 257,2,-1
 854 1023 l 257,3,-1
 219 1023 l 257,0,-1
169 1023 m 257,4,-1
 169 0 l 257,5,-1
 371 0 l 257,6,-1
 371 1023 l 257,7,-1
 169 1023 l 257,4,-1
271 201 m 257,8,-1
 271 0 l 257,9,-1
 853 0 l 257,10,-1
 853 201 l 257,11,-1
 271 201 l 257,8,-1
239 625 m 257,12,-1
 239 446 l 257,13,-1
 829 446 l 257,14,-1
 829 625 l 257,15,-1
 239 625 l 257,12,-1
657 993 m 257,16,-1
 657 445 l 257,17,-1
 852 445 l 257,18,-1
 852 993 l 257,19,-1
 657 993 l 257,16,-1
EndSplineSet
EndChar

StartChar: eight
Encoding: 56 56 190
GlifName: eight
Width: 1024
VWidth: 0
GlyphClass: 2
Flags: W
LayerCount: 2
Fore
SplineSet
56 1548 m 257,0,-1
 56 0 l 257,1,-1
 969 0 l 257,2,-1
 969 1548 l 257,3,-1
 56 1548 l 257,0,-1
767 759 m 257,4,-1
 767 197 l 257,5,-1
 260 197 l 257,6,-1
 260 759 l 257,7,-1
 767 759 l 257,4,-1
768 959 m 257,8,-1
 260 959 l 257,9,-1
 260 1350 l 257,10,-1
 768 1350 l 257,11,-1
 768 959 l 257,8,-1
EndSplineSet
EndChar

StartChar: ellipsis
Encoding: 8230 8230 191
GlifName: ellipsis
Width: 1024
VWidth: 0
GlyphClass: 2
Flags: W
LayerCount: 2
Fore
SplineSet
180 114 m 257,0,-1
 180 0 l 257,1,-1
 322 0 l 257,2,-1
 322 114 l 257,3,-1
 180 114 l 257,0,-1
436 114 m 257,4,-1
 436 0 l 257,5,-1
 580 0 l 257,6,-1
 580 114 l 257,7,-1
 436 114 l 257,4,-1
702 114 m 257,8,-1
 702 0 l 257,9,-1
 844 0 l 257,10,-1
 844 114 l 257,11,-1
 702 114 l 257,8,-1
EndSplineSet
EndChar

StartChar: emdash
Encoding: 8212 8212 193
GlifName: emdash
Width: 1024
VWidth: 0
GlyphClass: 2
Flags: W
LayerCount: 2
Fore
SplineSet
0 600 m 257,0,-1
 1024 600 l 257,1,-1
 1024 808 l 257,2,-1
 0 808 l 257,3,-1
 0 600 l 257,0,-1
EndSplineSet
EndChar

StartChar: endash
Encoding: 8211 8211 194
GlifName: endash
Width: 1024
VWidth: 0
GlyphClass: 2
Flags: W
LayerCount: 2
Fore
SplineSet
99 600 m 257,0,-1
 925 600 l 257,1,-1
 925 808 l 257,2,-1
 99 808 l 257,3,-1
 99 600 l 257,0,-1
EndSplineSet
EndChar

StartChar: eng
Encoding: 331 331 195
GlifName: eng
Width: 1024
VWidth: 0
GlyphClass: 2
Flags: W
AnchorPoint: "top" 474 1150 basechar 0
AnchorPoint: "base" 516 -500 basechar 0
LayerCount: 2
Fore
SplineSet
456 -211 m 257,0,-1
 456 -406 l 257,1,-1
 843 -406 l 257,2,-1
 843 -211 l 257,3,-1
 456 -211 l 257,0,-1
244 990 m 257,4,-1
 244 0 l 257,5,-1
 445 0 l 257,6,-1
 445 990 l 257,7,-1
 244 990 l 257,4,-1
643 976 m 257,8,-1
 643 -406 l 257,9,-1
 844 -406 l 257,10,-1
 844 976 l 257,11,-1
 643 976 l 257,8,-1
65 1023 m 257,12,-1
 65 826 l 257,13,-1
 843 826 l 257,14,-1
 843 1023 l 257,15,-1
 65 1023 l 257,12,-1
EndSplineSet
EndChar

StartChar: equal
Encoding: 61 61 197
GlifName: equal
Width: 1024
VWidth: 0
GlyphClass: 2
Flags: W
LayerCount: 2
Fore
SplineSet
104 914 m 257,0,-1
 104 724 l 257,1,-1
 920 724 l 257,2,-1
 920 914 l 257,3,-1
 104 914 l 257,0,-1
104 540 m 257,4,-1
 104 350 l 257,5,-1
 920 350 l 257,6,-1
 920 540 l 257,7,-1
 104 540 l 257,4,-1
EndSplineSet
EndChar

StartChar: eth
Encoding: 240 240 198
GlifName: eth
Width: 1024
VWidth: 0
GlyphClass: 2
Flags: W
AnchorPoint: "top" 323 1629 basechar 0
AnchorPoint: "base" 533 -178 basechar 0
LayerCount: 2
Fore
SplineSet
241 1548 m 257,0,-1
 692 0 l 257,1,-1
 893 0 l 257,2,-1
 442 1548 l 257,3,-1
 241 1548 l 257,0,-1
228 1023 m 257,4,-1
 228 822 l 257,5,-1
 569 822 l 257,6,-1
 569 1023 l 257,7,-1
 228 1023 l 257,4,-1
132 1023 m 257,8,-1
 132 0 l 257,9,-1
 333 0 l 257,10,-1
 333 1023 l 257,11,-1
 132 1023 l 257,8,-1
228 195 m 257,12,-1
 228 0 l 257,13,-1
 845 0 l 257,14,-1
 845 195 l 257,15,-1
 228 195 l 257,12,-1
161 1416 m 257,16,-1
 161 1229 l 257,17,-1
 693 1229 l 257,18,-1
 693 1416 l 257,19,-1
 161 1416 l 257,16,-1
EndSplineSet
EndChar

StartChar: exclam
Encoding: 33 33 199
GlifName: exclam
Width: 1024
VWidth: 0
GlyphClass: 2
Flags: W
LayerCount: 2
Fore
SplineSet
440 17 m 257,0,-1
 584 17 l 257,1,-1
 584 265 l 257,2,-1
 440 265 l 257,3,-1
 440 17 l 257,0,-1
450 502 m 257,4,-1
 578 502 l 257,5,-1
 578 1520 l 257,6,-1
 450 1520 l 257,7,-1
 450 502 l 257,4,-1
EndSplineSet
EndChar

StartChar: exclamdown
Encoding: 161 161 200
GlifName: exclamdown
Width: 1024
VWidth: 0
GlyphClass: 2
Flags: W
LayerCount: 2
Fore
SplineSet
672 1520 m 257,0,-1
 528 1520 l 257,1,-1
 528 1272 l 257,2,-1
 672 1272 l 257,3,-1
 672 1520 l 257,0,-1
662 1035 m 257,4,-1
 534 1035 l 257,5,-1
 534 17 l 257,6,-1
 662 17 l 257,7,-1
 662 1035 l 257,4,-1
EndSplineSet
EndChar

StartChar: f
Encoding: 102 102 201
GlifName: f
Width: 1024
VWidth: 0
GlyphClass: 2
Flags: W
AnchorPoint: "top" 593 1633 basechar 0
AnchorPoint: "base" 448 -116 basechar 0
LayerCount: 2
Fore
SplineSet
319 1551 m 257,0,-1
 316 -6 l 257,1,-1
 516 -6 l 257,2,-1
 519 1551 l 257,3,-1
 319 1551 l 257,0,-1
381 1551 m 257,4,-1
 381 1359 l 257,5,-1
 863 1359 l 257,6,-1
 863 1551 l 257,7,-1
 381 1551 l 257,4,-1
132 959 m 257,8,-1
 132 756 l 257,9,-1
 763 756 l 257,10,-1
 763 959 l 257,11,-1
 132 959 l 257,8,-1
EndSplineSet
EndChar

StartChar: five
Encoding: 53 53 202
GlifName: five
Width: 1024
VWidth: 0
GlyphClass: 2
Flags: W
LayerCount: 2
Fore
SplineSet
772 759 m 257,0,-1
 772 198 l 257,1,-1
 59 198 l 257,2,-1
 59 0 l 257,3,-1
 977 0 l 257,4,-1
 977 959 l 257,5,-1
 260 959 l 257,6,-1
 260 1352 l 257,7,-1
 987 1352 l 257,8,-1
 987 1548 l 257,9,-1
 60 1548 l 257,10,-1
 60 759 l 257,11,-1
 772 759 l 257,0,-1
EndSplineSet
EndChar

StartChar: four
Encoding: 52 52 203
GlifName: four
Width: 1024
VWidth: 0
GlyphClass: 2
Flags: W
LayerCount: 2
Fore
SplineSet
91 761 m 257,0,-1
 733 761 l 257,1,-1
 733 7 l 257,2,-1
 929 7 l 257,3,-1
 929 1548 l 257,4,-1
 730 1548 l 257,5,-1
 730 961 l 257,6,-1
 291 961 l 257,7,-1
 291 1548 l 257,8,-1
 91 1548 l 257,9,-1
 91 761 l 257,0,-1
EndSplineSet
EndChar

StartChar: franc
Encoding: 8355 8355 204
GlifName: franc
Width: 1024
VWidth: 0
GlyphClass: 2
Flags: W
LayerCount: 2
Fore
SplineSet
0 565 m 257,0,-1
 0 362 l 257,1,-1
 549 362 l 257,2,-1
 549 565 l 257,3,-1
 0 565 l 257,0,-1
141 1548 m 257,4,-1
 141 0 l 257,5,-1
 341 0 l 257,6,-1
 341 1548 l 257,7,-1
 141 1548 l 257,4,-1
243 1548 m 257,8,-1
 243 1347 l 257,9,-1
 877 1347 l 257,10,-1
 877 1548 l 257,11,-1
 243 1548 l 257,8,-1
231 875 m 257,12,-1
 231 672 l 257,13,-1
 780 672 l 257,14,-1
 780 875 l 257,15,-1
 231 875 l 257,12,-1
EndSplineSet
EndChar

StartChar: g
Encoding: 103 103 205
GlifName: g
Width: 1024
VWidth: 0
GlyphClass: 2
Flags: W
AnchorPoint: "top" 578 1176 basechar 0
AnchorPoint: "base" 570 -460 basechar 0
LayerCount: 2
Fore
SplineSet
297 1023 m 257,0,-1
 297 0 l 257,1,-1
 489 0 l 257,2,-1
 489 1023 l 257,3,-1
 297 1023 l 257,0,-1
337 1023 m 257,4,-1
 337 823 l 257,5,-1
 853 823 l 257,6,-1
 853 1023 l 257,7,-1
 337 1023 l 257,4,-1
681 1023 m 257,8,-1
 681 -411 l 257,9,-1
 875 -411 l 257,10,-1
 875 1023 l 257,11,-1
 681 1023 l 257,8,-1
360 198 m 257,12,-1
 360 0 l 257,13,-1
 817 0 l 257,14,-1
 817 198 l 257,15,-1
 360 198 l 257,12,-1
291 -214 m 257,16,-1
 291 -413 l 257,17,-1
 826 -413 l 257,18,-1
 826 -214 l 257,19,-1
 291 -214 l 257,16,-1
EndSplineSet
EndChar

StartChar: germandbls
Encoding: 223 223 209
GlifName: germandbls
Width: 1024
VWidth: 0
GlyphClass: 2
Flags: W
LayerCount: 2
Fore
SplineSet
18 1221 m 257,0,-1
 18 1023 l 257,1,-1
 269 1023 l 257,2,-1
 269 1221 l 257,3,-1
 18 1221 l 257,0,-1
204 1548 m 257,4,-1
 204 0 l 257,5,-1
 410 0 l 257,6,-1
 410 1548 l 257,7,-1
 204 1548 l 257,4,-1
410 1548 m 257,8,-1
 410 1328 l 257,9,-1
 805 1328 l 257,10,-1
 805 1548 l 257,11,-1
 410 1548 l 257,8,-1
690 1548 m 257,12,-1
 690 1023 l 257,13,-1
 889 1023 l 257,14,-1
 889 1548 l 257,15,-1
 690 1548 l 257,12,-1
690 1062 m 257,16,-1
 490 1062 l 257,17,-1
 490 826 l 257,18,-1
 690 826 l 257,19,-1
 690 1062 l 257,16,-1
690 848 m 257,20,-1
 690 175 l 257,21,-1
 890 175 l 257,22,-1
 890 848 l 257,23,-1
 690 848 l 257,20,-1
547 251 m 257,24,-1
 547 40 l 257,25,-1
 890 40 l 257,26,-1
 890 251 l 257,27,-1
 547 251 l 257,24,-1
EndSplineSet
EndChar

StartChar: grave
Encoding: 96 96 210
GlifName: grave
Width: 1024
VWidth: 0
GlyphClass: 2
Flags: W
LayerCount: 2
Fore
SplineSet
266 1358 m 257,0,-1
 411 1057 l 257,1,-1
 560 1129 l 257,2,-1
 414 1430 l 257,3,-1
 266 1358 l 257,0,-1
EndSplineSet
EndChar

StartChar: gravecomb
Encoding: 768 768 211
GlifName: gravecomb
Width: 0
VWidth: 0
GlyphClass: 4
Flags: W
AnchorPoint: "top" 25 842 mark 0
LayerCount: 2
Fore
SplineSet
-128 1083 m 257,0,-1
 -8 847 l 257,1,-1
 83 893 l 257,2,-1
 -36 1130 l 257,3,-1
 -128 1083 l 257,0,-1
EndSplineSet
EndChar

StartChar: greater
Encoding: 62 62 212
GlifName: greater
Width: 1024
VWidth: 0
GlyphClass: 2
Flags: W
LayerCount: 2
Fore
SplineSet
922 777 m 257,0,-1
 100 1013 l 257,1,-1
 100 807 l 257,2,-1
 924 568 l 257,3,-1
 922 777 l 257,0,-1
922 777 m 257,4,-1
 102 319 l 257,5,-1
 102 122 l 257,6,-1
 924 568 l 257,7,-1
 922 777 l 257,4,-1
EndSplineSet
EndChar

StartChar: greaterequal
Encoding: 8805 8805 213
GlifName: greaterequal
Width: 1024
VWidth: 0
GlyphClass: 2
Flags: W
LayerCount: 2
Fore
SplineSet
-5 -5 m 257,0,-1
 -5 -157 l 257,1,-1
 1019 -157 l 257,2,-1
 1019 -5 l 257,3,-1
 -5 -5 l 257,0,-1
922 777 m 257,4,-1
 100 1013 l 257,5,-1
 100 807 l 257,6,-1
 924 568 l 257,7,-1
 922 777 l 257,4,-1
922 777 m 257,8,-1
 102 319 l 257,9,-1
 102 122 l 257,10,-1
 924 568 l 257,11,-1
 922 777 l 257,8,-1
EndSplineSet
EndChar

StartChar: guillemotleft
Encoding: 171 171 214
GlifName: guillemotleft
Width: 1024
VWidth: 0
GlyphClass: 2
Flags: W
LayerCount: 2
Fore
SplineSet
134 609 m 257,0,-1
 134 454 l 257,1,-1
 503 631 l 257,2,-1
 503 784 l 257,3,-1
 134 609 l 257,0,-1
134 609 m 257,4,-1
 134 454 l 257,5,-1
 502 122 l 257,6,-1
 502 268 l 257,7,-1
 134 609 l 257,4,-1
549 609 m 257,8,-1
 549 454 l 257,9,-1
 918 631 l 257,10,-1
 918 784 l 257,11,-1
 549 609 l 257,8,-1
549 609 m 257,12,-1
 549 454 l 257,13,-1
 917 122 l 257,14,-1
 917 268 l 257,15,-1
 549 609 l 257,12,-1
EndSplineSet
EndChar

StartChar: guillemotright
Encoding: 187 187 215
GlifName: guillemotright
Width: 1024
VWidth: 0
GlyphClass: 2
Flags: W
LayerCount: 2
Fore
SplineSet
920 609 m 257,0,-1
 551 784 l 257,1,-1
 551 631 l 257,2,-1
 920 454 l 257,3,-1
 920 609 l 257,0,-1
920 609 m 257,4,-1
 552 268 l 257,5,-1
 552 122 l 257,6,-1
 920 454 l 257,7,-1
 920 609 l 257,4,-1
505 609 m 257,8,-1
 136 784 l 257,9,-1
 136 631 l 257,10,-1
 505 454 l 257,11,-1
 505 609 l 257,8,-1
505 609 m 257,12,-1
 137 268 l 257,13,-1
 137 122 l 257,14,-1
 505 454 l 257,15,-1
 505 609 l 257,12,-1
EndSplineSet
EndChar

StartChar: guilsinglleft
Encoding: 8249 8249 216
GlifName: guilsinglleft
Width: 1024
VWidth: 0
GlyphClass: 2
Flags: W
LayerCount: 2
Fore
SplineSet
103 777 m 257,0,-1
 103 569 l 257,1,-1
 921 807 l 257,2,-1
 921 1013 l 257,3,-1
 103 777 l 257,0,-1
103 777 m 257,4,-1
 103 569 l 257,5,-1
 919 122 l 257,6,-1
 919 319 l 257,7,-1
 103 777 l 257,4,-1
EndSplineSet
EndChar

StartChar: guilsinglright
Encoding: 8250 8250 217
GlifName: guilsinglright
Width: 1024
VWidth: 0
GlyphClass: 2
Flags: W
LayerCount: 2
Fore
SplineSet
922 777 m 257,0,-1
 100 1013 l 257,1,-1
 100 807 l 257,2,-1
 924 568 l 257,3,-1
 922 777 l 257,0,-1
922 777 m 257,4,-1
 102 319 l 257,5,-1
 102 122 l 257,6,-1
 924 568 l 257,7,-1
 922 777 l 257,4,-1
EndSplineSet
EndChar

StartChar: h
Encoding: 104 104 218
GlifName: h
Width: 1024
VWidth: 0
GlyphClass: 2
Flags: W
AnchorPoint: "top" 248 1646 basechar 0
AnchorPoint: "base" 512 -46 basechar 0
LayerCount: 2
Fore
SplineSet
174 1537 m 257,0,-1
 174 6 l 257,1,-1
 374 6 l 257,2,-1
 374 1537 l 257,3,-1
 174 1537 l 257,0,-1
311 1023 m 257,4,-1
 311 826 l 257,5,-1
 842 826 l 257,6,-1
 842 1023 l 257,7,-1
 311 1023 l 257,4,-1
651 1023 m 257,8,-1
 651 0 l 257,9,-1
 850 0 l 257,10,-1
 850 1023 l 257,11,-1
 651 1023 l 257,8,-1
EndSplineSet
EndChar

StartChar: hbar
Encoding: 295 295 219
GlifName: hbar
Width: 1024
VWidth: 0
GlyphClass: 2
Flags: W
LayerCount: 2
Fore
SplineSet
174 1537 m 257,0,-1
 174 6 l 257,1,-1
 374 6 l 257,2,-1
 374 1537 l 257,3,-1
 174 1537 l 257,0,-1
311 1023 m 257,4,-1
 311 826 l 257,5,-1
 842 826 l 257,6,-1
 842 1023 l 257,7,-1
 311 1023 l 257,4,-1
651 1023 m 257,8,-1
 651 0 l 257,9,-1
 850 0 l 257,10,-1
 850 1023 l 257,11,-1
 651 1023 l 257,8,-1
38 1429 m 257,12,-1
 38 1221 l 257,13,-1
 494 1221 l 257,14,-1
 494 1429 l 257,15,-1
 38 1429 l 257,12,-1
EndSplineSet
EndChar

StartChar: hookabovecomb
Encoding: 777 777 221
GlifName: hookabovecomb
Width: 0
VWidth: 0
GlyphClass: 4
Flags: W
AnchorPoint: "top" -6 774 mark 0
LayerCount: 2
Fore
SplineSet
-86 1140 m 257,0,-1
 -86 1081 l 257,1,-1
 146 1081 l 257,2,-1
 146 1140 l 257,3,-1
 -86 1140 l 257,0,-1
102 1140 m 257,4,-1
 102 958 l 257,5,-1
 148 958 l 257,6,-1
 148 1140 l 257,7,-1
 102 1140 l 257,4,-1
-41 969 m 257,8,-1
 -41 922 l 257,9,-1
 148 922 l 257,10,-1
 148 969 l 257,11,-1
 -41 969 l 257,8,-1
-41 969 m 257,12,-1
 -41 829 l 257,13,-1
 13 829 l 257,14,-1
 13 969 l 257,15,-1
 -41 969 l 257,12,-1
EndSplineSet
EndChar

StartChar: hungarumlaut
Encoding: 733 733 222
GlifName: hungarumlaut
Width: 1024
VWidth: 0
GlyphClass: 2
Flags: W
LayerCount: 2
Fore
SplineSet
240 122 m 257,0,-1
 384 122 l 257,1,-1
 384 370 l 257,2,-1
 240 370 l 257,3,-1
 240 122 l 257,0,-1
640 122 m 257,4,-1
 784 122 l 257,5,-1
 784 370 l 257,6,-1
 640 370 l 257,7,-1
 640 122 l 257,4,-1
EndSplineSet
EndChar

StartChar: hyphen
Encoding: 45 45 223
GlifName: hyphen
Width: 1024
VWidth: 0
GlyphClass: 2
Flags: W
LayerCount: 2
Fore
SplineSet
99 808 m 257,0,-1
 99 600 l 257,1,-1
 925 600 l 257,2,-1
 925 808 l 257,3,-1
 99 808 l 257,0,-1
EndSplineSet
EndChar

StartChar: i
Encoding: 105 105 224
GlifName: i
Width: 1024
VWidth: 0
GlyphClass: 2
Flags: W
AnchorPoint: "top" 436 1457 basechar 0
AnchorPoint: "base" 596 -78 basechar 0
LayerCount: 2
Fore
SplineSet
411 1018 m 257,0,-1
 411 139 l 257,1,-1
 613 139 l 257,2,-1
 613 1018 l 257,3,-1
 411 1018 l 257,0,-1
141 204 m 257,4,-1
 141 6 l 257,5,-1
 883 6 l 257,6,-1
 883 204 l 257,7,-1
 141 204 l 257,4,-1
347 1369 m 257,8,-1
 347 1168 l 257,9,-1
 545 1168 l 257,10,-1
 545 1369 l 257,11,-1
 347 1369 l 257,8,-1
191 1018 m 257,12,-1
 191 818 l 257,13,-1
 567 818 l 257,14,-1
 567 1018 l 257,15,-1
 191 1018 l 257,12,-1
EndSplineSet
EndChar

StartChar: j
Encoding: 106 106 236
GlifName: j
Width: 1024
VWidth: 0
GlyphClass: 2
Flags: W
AnchorPoint: "top" 697 1521 basechar 0
AnchorPoint: "base" 522 -455 basechar 0
LayerCount: 2
Fore
SplineSet
628 1023 m 257,0,-1
 628 -411 l 257,1,-1
 826 -411 l 257,2,-1
 826 1023 l 257,3,-1
 628 1023 l 257,0,-1
198 -209 m 257,4,-1
 198 -406 l 257,5,-1
 728 -406 l 257,6,-1
 728 -209 l 257,7,-1
 198 -209 l 257,4,-1
198 -6 m 257,8,-1
 198 -351 l 257,9,-1
 398 -351 l 257,10,-1
 398 -6 l 257,11,-1
 198 -6 l 257,8,-1
620 1413 m 257,12,-1
 620 1214 l 257,13,-1
 820 1214 l 257,14,-1
 820 1413 l 257,15,-1
 620 1413 l 257,12,-1
EndSplineSet
EndChar

StartChar: k
Encoding: 107 107 244
GlifName: k
Width: 1024
VWidth: 0
GlyphClass: 2
Flags: W
AnchorPoint: "base" 494 -48 basechar 0
AnchorPoint: "top" 220 1638 basechar 0
LayerCount: 2
Fore
SplineSet
118 1537 m 257,0,-1
 118 5 l 257,1,-1
 318 5 l 257,2,-1
 318 1537 l 257,3,-1
 118 1537 l 257,0,-1
167 516 m 257,4,-1
 216 298 l 257,5,-1
 903 1023 l 257,6,-1
 686 1023 l 257,7,-1
 167 516 l 257,4,-1
424 631 m 257,8,-1
 272 483 l 257,9,-1
 722 0 l 257,10,-1
 960 0 l 257,11,-1
 424 631 l 257,8,-1
EndSplineSet
EndChar

StartChar: kgreenlandic
Encoding: 312 312 245
GlifName: kgreenlandic
Width: 1024
VWidth: 0
GlyphClass: 2
Flags: W
AnchorPoint: "base" 486 -119 basechar 0
AnchorPoint: "top" 140 1110 basechar 0
LayerCount: 2
Fore
SplineSet
42 1022 m 257,0,-1
 42 5 l 257,1,-1
 242 5 l 257,2,-1
 242 1022 l 257,3,-1
 42 1022 l 257,0,-1
91 516 m 257,4,-1
 140 298 l 257,5,-1
 1012 1023 l 257,6,-1
 795 1023 l 257,7,-1
 91 516 l 257,4,-1
424 631 m 257,8,-1
 196 483 l 257,9,-1
 765 0 l 257,10,-1
 1003 0 l 257,11,-1
 424 631 l 257,8,-1
EndSplineSet
EndChar

StartChar: l
Encoding: 108 108 246
GlifName: l
Width: 1024
VWidth: 0
GlyphClass: 2
Flags: W
AnchorPoint: "base" 538 -68 basechar 0
AnchorPoint: "top" 520 1654 basechar 0
LayerCount: 2
Fore
SplineSet
195 209 m 257,0,-1
 195 9 l 257,1,-1
 829 9 l 257,2,-1
 829 209 l 257,3,-1
 195 209 l 257,0,-1
412 1548 m 257,4,-1
 412 86 l 257,5,-1
 612 86 l 257,6,-1
 612 1548 l 257,7,-1
 412 1548 l 257,4,-1
256 1548 m 257,8,-1
 256 1349 l 257,9,-1
 491 1349 l 257,10,-1
 491 1548 l 257,11,-1
 256 1548 l 257,8,-1
EndSplineSet
EndChar

StartChar: lcaron
Encoding: 318 318 248
GlifName: lcaron
Width: 1024
VWidth: 0
GlyphClass: 2
Flags: W
LayerCount: 2
Fore
SplineSet
133 209 m 257,0,-1
 133 9 l 257,1,-1
 767 9 l 257,2,-1
 767 209 l 257,3,-1
 133 209 l 257,0,-1
350 1548 m 257,4,-1
 350 86 l 257,5,-1
 550 86 l 257,6,-1
 550 1548 l 257,7,-1
 350 1548 l 257,4,-1
194 1548 m 257,8,-1
 194 1349 l 257,9,-1
 429 1349 l 257,10,-1
 429 1548 l 257,11,-1
 194 1548 l 257,8,-1
630 1496 m 257,12,-1
 630 1264 l 257,13,-1
 760 1264 l 257,14,-1
 760 1496 l 257,15,-1
 630 1496 l 257,12,-1
EndSplineSet
EndChar

StartChar: less
Encoding: 60 60 250
GlifName: less
Width: 1024
VWidth: 0
GlyphClass: 2
Flags: W
LayerCount: 2
Fore
SplineSet
103 777 m 257,0,-1
 103 569 l 257,1,-1
 921 807 l 257,2,-1
 921 1013 l 257,3,-1
 103 777 l 257,0,-1
103 777 m 257,4,-1
 103 569 l 257,5,-1
 919 122 l 257,6,-1
 919 319 l 257,7,-1
 103 777 l 257,4,-1
EndSplineSet
EndChar

StartChar: lessequal
Encoding: 8804 8804 251
GlifName: lessequal
Width: 1024
VWidth: 0
GlyphClass: 2
Flags: W
LayerCount: 2
Fore
SplineSet
-5 -5 m 257,0,-1
 -5 -157 l 257,1,-1
 1019 -157 l 257,2,-1
 1019 -5 l 257,3,-1
 -5 -5 l 257,0,-1
103 777 m 257,4,-1
 103 569 l 257,5,-1
 921 807 l 257,6,-1
 921 1013 l 257,7,-1
 103 777 l 257,4,-1
103 777 m 257,8,-1
 103 569 l 257,9,-1
 919 122 l 257,10,-1
 919 319 l 257,11,-1
 103 777 l 257,8,-1
EndSplineSet
EndChar

StartChar: lira
Encoding: 8356 8356 252
GlifName: lira
Width: 1024
VWidth: 0
GlyphClass: 2
Flags: W
LayerCount: 2
Fore
SplineSet
54 770 m 257,0,-1
 54 571 l 257,1,-1
 780 571 l 257,2,-1
 780 770 l 257,3,-1
 54 770 l 257,0,-1
381 1543 m 257,4,-1
 381 1344 l 257,5,-1
 672 1344 l 257,6,-1
 672 1543 l 257,7,-1
 381 1543 l 257,4,-1
54 1064 m 257,8,-1
 54 865 l 257,9,-1
 780 865 l 257,10,-1
 780 1064 l 257,11,-1
 54 1064 l 257,8,-1
337 1542 m 257,12,-1
 337 0 l 257,13,-1
 535 0 l 257,14,-1
 535 1542 l 257,15,-1
 337 1542 l 257,12,-1
162 202 m 257,16,-1
 162 0 l 257,17,-1
 888 0 l 257,18,-1
 888 202 l 257,19,-1
 162 202 l 257,16,-1
EndSplineSet
EndChar

StartChar: logicalnot
Encoding: 172 172 253
GlifName: logicalnot
Width: 1024
VWidth: 0
GlyphClass: 2
Flags: W
LayerCount: 2
Fore
SplineSet
641 935 m 257,0,-1
 641 640 l 257,1,-1
 751 640 l 257,2,-1
 751 935 l 257,3,-1
 641 935 l 257,0,-1
211 935 m 257,4,-1
 211 835 l 257,5,-1
 761 835 l 257,6,-1
 761 935 l 257,7,-1
 211 935 l 257,4,-1
EndSplineSet
EndChar

StartChar: lslash
Encoding: 322 322 254
GlifName: lslash
Width: 1024
VWidth: 0
GlyphClass: 2
Flags: W
LayerCount: 2
Fore
SplineSet
195 209 m 257,0,-1
 195 9 l 257,1,-1
 829 9 l 257,2,-1
 829 209 l 257,3,-1
 195 209 l 257,0,-1
412 1548 m 257,4,-1
 412 86 l 257,5,-1
 612 86 l 257,6,-1
 612 1548 l 257,7,-1
 412 1548 l 257,4,-1
256 1548 m 257,8,-1
 256 1349 l 257,9,-1
 491 1349 l 257,10,-1
 491 1548 l 257,11,-1
 256 1548 l 257,8,-1
815 1213 m 257,12,-1
 112 830 l 257,13,-1
 214 656 l 257,14,-1
 917 1039 l 257,15,-1
 815 1213 l 257,12,-1
EndSplineSet
EndChar

StartChar: m
Encoding: 109 109 255
GlifName: m
Width: 1024
VWidth: 0
GlyphClass: 2
Flags: W
AnchorPoint: "base" 498 -112 basechar 0
AnchorPoint: "top" 508 1110 basechar 0
LayerCount: 2
Fore
SplineSet
110 993 m 257,0,-1
 110 0 l 257,1,-1
 310 0 l 257,2,-1
 310 993 l 257,3,-1
 110 993 l 257,0,-1
425 972 m 257,4,-1
 425 0 l 257,5,-1
 625 0 l 257,6,-1
 625 972 l 257,7,-1
 425 972 l 257,4,-1
740 976 m 257,8,-1
 740 0 l 257,9,-1
 940 0 l 257,10,-1
 940 976 l 257,11,-1
 740 976 l 257,8,-1
33 1023 m 257,12,-1
 33 826 l 257,13,-1
 939 826 l 257,14,-1
 939 1023 l 257,15,-1
 33 1023 l 257,12,-1
EndSplineSet
EndChar

StartChar: macron
Encoding: 175 175 256
GlifName: macron
Width: 1024
VWidth: 0
GlyphClass: 2
Flags: W
LayerCount: 2
Fore
SplineSet
245 1023 m 257,0,-1
 245 944 l 257,1,-1
 805 944 l 257,2,-1
 805 1023 l 257,3,-1
 245 1023 l 257,0,-1
EndSplineSet
EndChar

StartChar: mu
Encoding: 181 181 259
GlifName: mu
Width: 1024
VWidth: 0
GlyphClass: 2
Flags: W
LayerCount: 2
Fore
SplineSet
731 935 m 257,0,-1
 731 0 l 257,1,-1
 841 0 l 257,2,-1
 841 935 l 257,3,-1
 731 935 l 257,0,-1
296 120 m 257,4,-1
 296 0 l 257,5,-1
 811 0 l 257,6,-1
 811 120 l 257,7,-1
 296 120 l 257,4,-1
196 935 m 257,8,-1
 196 -430 l 257,9,-1
 291 -430 l 257,10,-1
 291 935 l 257,11,-1
 196 935 l 257,8,-1
EndSplineSet
EndChar

StartChar: multiply
Encoding: 215 215 260
GlifName: multiply
Width: 1024
VWidth: 0
GlyphClass: 2
Flags: W
LayerCount: 2
Fore
SplineSet
91 302 m 257,0,-1
 292 302 l 257,1,-1
 927 1323 l 257,2,-1
 728 1323 l 257,3,-1
 91 302 l 257,0,-1
93 1325 m 257,4,-1
 735 298 l 257,5,-1
 934 298 l 257,6,-1
 295 1325 l 257,7,-1
 93 1325 l 257,4,-1
EndSplineSet
EndChar

StartChar: n
Encoding: 110 110 261
GlifName: n
Width: 1024
VWidth: 0
GlyphClass: 2
Flags: W
AnchorPoint: "base" 530 -64 basechar 0
AnchorPoint: "top" 492 1158 basechar 0
LayerCount: 2
Fore
SplineSet
244 990 m 257,0,-1
 244 0 l 257,1,-1
 445 0 l 257,2,-1
 445 990 l 257,3,-1
 244 990 l 257,0,-1
643 976 m 257,4,-1
 643 0 l 257,5,-1
 844 0 l 257,6,-1
 844 976 l 257,7,-1
 643 976 l 257,4,-1
65 1023 m 257,8,-1
 65 826 l 257,9,-1
 843 826 l 257,10,-1
 843 1023 l 257,11,-1
 65 1023 l 257,8,-1
EndSplineSet
EndChar

StartChar: nine
Encoding: 57 57 264
GlifName: nine
Width: 1024
VWidth: 0
GlyphClass: 2
Flags: W
LayerCount: 2
Fore
SplineSet
781 759 m 257,0,-1
 781 200 l 257,1,-1
 79 200 l 257,2,-1
 79 0 l 257,3,-1
 977 0 l 257,4,-1
 977 1554 l 257,5,-1
 57 1554 l 257,6,-1
 57 1537 l 257,7,-1
 57 759 l 257,8,-1
 781 759 l 257,0,-1
778 959 m 257,9,-1
 257 959 l 257,10,-1
 257 1354 l 257,11,-1
 778 1354 l 257,12,-1
 778 959 l 257,9,-1
EndSplineSet
EndChar

StartChar: notequal
Encoding: 8800 8800 265
GlifName: notequal
Width: 1024
VWidth: 0
GlyphClass: 2
Flags: W
LayerCount: 2
Fore
SplineSet
703 1101 m 257,0,-1
 133 182 l 257,1,-1
 264 109 l 257,2,-1
 834 1028 l 257,3,-1
 703 1101 l 257,0,-1
104 914 m 257,4,-1
 104 724 l 257,5,-1
 920 724 l 257,6,-1
 920 914 l 257,7,-1
 104 914 l 257,4,-1
104 540 m 257,8,-1
 104 350 l 257,9,-1
 920 350 l 257,10,-1
 920 540 l 257,11,-1
 104 540 l 257,8,-1
EndSplineSet
EndChar

StartChar: numbersign
Encoding: 35 35 267
GlifName: numbersign
Width: 1024
VWidth: 0
GlyphClass: 2
Flags: W
LayerCount: 2
Fore
SplineSet
228 1347 m 257,0,-1
 228 313 l 257,1,-1
 368 313 l 257,2,-1
 368 1347 l 257,3,-1
 228 1347 l 257,0,-1
638 1350 m 257,4,-1
 638 279 l 257,5,-1
 806 279 l 257,6,-1
 806 1350 l 257,7,-1
 638 1350 l 257,4,-1
98 1157 m 257,8,-1
 98 1010 l 257,9,-1
 916 1010 l 257,10,-1
 916 1157 l 257,11,-1
 98 1157 l 257,8,-1
98 767 m 257,12,-1
 98 592 l 257,13,-1
 926 592 l 257,14,-1
 926 767 l 257,15,-1
 98 767 l 257,12,-1
EndSplineSet
EndChar

StartChar: o
Encoding: 111 111 268
GlifName: o
Width: 1024
VWidth: 0
GlyphClass: 2
Flags: W
AnchorPoint: "top" 504 1158 basechar 0
AnchorPoint: "base" 536 -38 basechar 0
LayerCount: 2
Fore
SplineSet
104 1023 m 257,0,-1
 104 0 l 257,1,-1
 304 0 l 257,2,-1
 304 1023 l 257,3,-1
 104 1023 l 257,0,-1
719 1023 m 257,4,-1
 719 0 l 257,5,-1
 921 0 l 257,6,-1
 921 1023 l 257,7,-1
 719 1023 l 257,4,-1
227 1023 m 257,8,-1
 227 822 l 257,9,-1
 813 822 l 257,10,-1
 813 1023 l 257,11,-1
 227 1023 l 257,8,-1
231 200 m 257,12,-1
 231 0 l 257,13,-1
 803 0 l 257,14,-1
 803 200 l 257,15,-1
 231 200 l 257,12,-1
EndSplineSet
EndChar

StartChar: oe
Encoding: 339 339 273
GlifName: oe
Width: 1024
VWidth: 0
GlyphClass: 2
Flags: W
AnchorPoint: "top" 534 1132 basechar 0
AnchorPoint: "base" 558 -80 basechar 0
LayerCount: 2
Fore
SplineSet
597 645 m 257,0,-1
 597 446 l 257,1,-1
 824 446 l 257,2,-1
 824 645 l 257,3,-1
 597 645 l 257,0,-1
799 1023 m 257,4,-1
 799 445 l 257,5,-1
 999 445 l 257,6,-1
 999 1023 l 257,7,-1
 799 1023 l 257,4,-1
103 1023 m 257,8,-1
 103 0 l 257,9,-1
 303 0 l 257,10,-1
 303 1023 l 257,11,-1
 103 1023 l 257,8,-1
451 1023 m 257,12,-1
 451 0 l 257,13,-1
 651 0 l 257,14,-1
 651 1023 l 257,15,-1
 451 1023 l 257,12,-1
158 1023 m 257,16,-1
 158 823 l 257,17,-1
 859 823 l 257,18,-1
 859 1023 l 257,19,-1
 158 1023 l 257,16,-1
149 200 m 257,20,-1
 149 0 l 257,21,-1
 999 0 l 257,22,-1
 999 200 l 257,23,-1
 149 200 l 257,20,-1
EndSplineSet
EndChar

StartChar: ogonek
Encoding: 731 731 274
GlifName: ogonek
Width: 1024
VWidth: 0
GlyphClass: 2
Flags: W
LayerCount: 2
Fore
SplineSet
241 -274 m 257,0,-1
 241 -392 l 257,1,-1
 783 -392 l 257,2,-1
 783 -274 l 257,3,-1
 241 -274 l 257,0,-1
241 14 m 257,4,-1
 241 -392 l 257,5,-1
 359 -392 l 257,6,-1
 359 14 l 257,7,-1
 241 14 l 257,4,-1
241 14 m 257,8,-1
 241 -107 l 257,9,-1
 783 -107 l 257,10,-1
 783 14 l 257,11,-1
 241 14 l 257,8,-1
EndSplineSet
EndChar

StartChar: one
Encoding: 49 49 279
GlifName: one
Width: 1024
VWidth: 0
GlyphClass: 2
Flags: W
LayerCount: 2
Fore
SplineSet
412 0 m 257,0,-1
 611 0 l 257,1,-1
 611 1548 l 257,2,-1
 412 1548 l 257,3,-1
 412 0 l 257,0,-1
416 1548 m 257,4,-1
 218 1252 l 257,5,-1
 368 1152 l 257,6,-1
 566 1449 l 257,7,-1
 416 1548 l 257,4,-1
EndSplineSet
EndChar

StartChar: onehalf
Encoding: 189 189 280
GlifName: onehalf
Width: 1024
VWidth: 0
GlyphClass: 2
Flags: W
LayerCount: 2
Fore
SplineSet
703 1483 m 257,0,-1
 133 6 l 257,1,-1
 207 -30 l 257,2,-1
 777 1447 l 257,3,-1
 703 1483 l 257,0,-1
298 863 m 257,4,-1
 381 863 l 257,5,-1
 381 1548 l 257,6,-1
 298 1548 l 257,7,-1
 298 863 l 257,4,-1
300 1548 m 257,8,-1
 218 1419 l 257,9,-1
 280 1374 l 257,10,-1
 362 1506 l 257,11,-1
 300 1548 l 257,8,-1
654 603 m 257,12,-1
 853 603 l 257,13,-1
 853 407 l 257,14,-1
 656 407 l 257,15,-1
 656 0 l 257,16,-1
 913 0 l 257,17,-1
 913 90 l 257,18,-1
 722 90 l 257,19,-1
 722 317 l 257,20,-1
 918 317 l 257,21,-1
 918 693 l 257,22,-1
 654 693 l 257,23,-1
 654 603 l 257,12,-1
EndSplineSet
EndChar

StartChar: onequarter
Encoding: 188 188 281
GlifName: onequarter
Width: 1024
VWidth: 0
GlyphClass: 2
Flags: W
LayerCount: 2
Fore
SplineSet
666 1480 m 257,0,-1
 79 10 l 257,1,-1
 182 10 l 257,2,-1
 769 1480 l 257,3,-1
 666 1480 l 257,0,-1
307 1045 m 257,4,-1
 361 1045 l 257,5,-1
 361 1548 l 257,6,-1
 307 1548 l 257,7,-1
 307 1045 l 257,4,-1
312 1548 m 257,8,-1
 202 1428 l 257,9,-1
 222 1391 l 257,10,-1
 341 1537 l 257,11,-1
 312 1548 l 257,8,-1
568 379 m 257,12,-1
 873 379 l 257,13,-1
 873 7 l 257,14,-1
 932 7 l 257,15,-1
 932 768 l 257,16,-1
 872 768 l 257,17,-1
 872 445 l 257,18,-1
 627 445 l 257,19,-1
 627 770 l 257,20,-1
 568 770 l 257,21,-1
 568 379 l 257,12,-1
EndSplineSet
EndChar

StartChar: ordfeminine
Encoding: 170 170 282
GlifName: ordfeminine
Width: 1024
VWidth: 0
GlyphClass: 2
Flags: W
LayerCount: 2
Fore
SplineSet
168 1719 m 257,0,-1
 168 1519 l 257,1,-1
 774 1519 l 257,2,-1
 774 1719 l 257,3,-1
 168 1719 l 257,0,-1
661 1720 m 257,4,-1
 661 696 l 257,5,-1
 855 696 l 257,6,-1
 855 1720 l 257,7,-1
 661 1720 l 257,4,-1
172 1294 m 257,8,-1
 172 1095 l 257,9,-1
 796 1095 l 257,10,-1
 796 1294 l 257,11,-1
 172 1294 l 257,8,-1
172 1270 m 257,12,-1
 172 693 l 257,13,-1
 373 693 l 257,14,-1
 373 1270 l 257,15,-1
 172 1270 l 257,12,-1
170 896 m 257,16,-1
 170 696 l 257,17,-1
 860 696 l 257,18,-1
 860 896 l 257,19,-1
 170 896 l 257,16,-1
77 562 m 257,20,-1
 77 400 l 257,21,-1
 945 400 l 257,22,-1
 945 562 l 257,23,-1
 77 562 l 257,20,-1
EndSplineSet
EndChar

StartChar: ordmasculine
Encoding: 186 186 283
GlifName: ordmasculine
Width: 1024
VWidth: 0
GlyphClass: 2
Flags: W
LayerCount: 2
Fore
SplineSet
96 1423 m 257,0,-1
 96 400 l 257,1,-1
 296 400 l 257,2,-1
 296 1423 l 257,3,-1
 96 1423 l 257,0,-1
714 1423 m 257,4,-1
 714 400 l 257,5,-1
 914 400 l 257,6,-1
 914 1423 l 257,7,-1
 714 1423 l 257,4,-1
157 1423 m 257,8,-1
 157 1223 l 257,9,-1
 858 1223 l 257,10,-1
 858 1423 l 257,11,-1
 157 1423 l 257,8,-1
142 600 m 257,12,-1
 142 400 l 257,13,-1
 861 400 l 257,14,-1
 861 600 l 257,15,-1
 142 600 l 257,12,-1
100 330 m 257,16,-1
 100 163 l 257,17,-1
 922 163 l 257,18,-1
 922 330 l 257,19,-1
 100 330 l 257,16,-1
EndSplineSet
EndChar

StartChar: oslash
Encoding: 248 248 284
GlifName: oslash
Width: 1024
VWidth: 0
GlyphClass: 2
Flags: W
AnchorPoint: "top" 516 1186 basechar 0
AnchorPoint: "base" 510 -116 basechar 0
LayerCount: 2
Fore
SplineSet
837 1164 m 257,0,-1
 9 -5 l 257,1,-1
 171 -103 l 257,2,-1
 1000 1066 l 257,3,-1
 837 1164 l 257,0,-1
104 1023 m 257,4,-1
 104 0 l 257,5,-1
 304 0 l 257,6,-1
 304 1023 l 257,7,-1
 104 1023 l 257,4,-1
719 1023 m 257,8,-1
 719 0 l 257,9,-1
 921 0 l 257,10,-1
 921 1023 l 257,11,-1
 719 1023 l 257,8,-1
227 1023 m 257,12,-1
 227 822 l 257,13,-1
 813 822 l 257,14,-1
 813 1023 l 257,15,-1
 227 1023 l 257,12,-1
231 200 m 257,16,-1
 231 0 l 257,17,-1
 803 0 l 257,18,-1
 803 200 l 257,19,-1
 231 200 l 257,16,-1
EndSplineSet
EndChar

StartChar: p
Encoding: 112 112 287
GlifName: p
Width: 1024
VWidth: 0
GlyphClass: 2
Flags: W
AnchorPoint: "base" 270 -468 basechar 0
AnchorPoint: "top" 268 1322 basechar 0
LayerCount: 2
Fore
SplineSet
173 1203 m 257,0,-1
 173 -406 l 257,1,-1
 373 -406 l 257,2,-1
 373 1203 l 257,3,-1
 173 1203 l 257,0,-1
271 1023 m 257,4,-1
 271 821 l 257,5,-1
 810 821 l 257,6,-1
 810 1023 l 257,7,-1
 271 1023 l 257,4,-1
275 202 m 257,8,-1
 275 0 l 257,9,-1
 815 0 l 257,10,-1
 815 202 l 257,11,-1
 275 202 l 257,8,-1
613 876 m 257,12,-1
 613 175 l 257,13,-1
 811 175 l 257,14,-1
 811 876 l 257,15,-1
 613 876 l 257,12,-1
EndSplineSet
EndChar

StartChar: paragraph
Encoding: 182 182 288
GlifName: paragraph
Width: 1024
VWidth: 0
GlyphClass: 2
Flags: W
LayerCount: 2
Fore
SplineSet
36 1130 m 257,0,-1
 36 985 l 257,1,-1
 601 985 l 257,2,-1
 601 1130 l 257,3,-1
 36 1130 l 257,0,-1
36 1548 m 257,4,-1
 36 1000 l 257,5,-1
 196 1000 l 257,6,-1
 196 1548 l 257,7,-1
 36 1548 l 257,4,-1
36 1548 m 257,8,-1
 36 1435 l 257,9,-1
 856 1435 l 257,10,-1
 856 1548 l 257,11,-1
 36 1548 l 257,8,-1
506 1548 m 257,12,-1
 506 0 l 257,13,-1
 651 0 l 257,14,-1
 651 1548 l 257,15,-1
 506 1548 l 257,12,-1
776 1548 m 257,16,-1
 776 0 l 257,17,-1
 881 0 l 257,18,-1
 881 1548 l 257,19,-1
 776 1548 l 257,16,-1
EndSplineSet
EndChar

StartChar: parenleft
Encoding: 40 40 289
GlifName: parenleft
Width: 1024
VWidth: 0
GlyphClass: 2
Flags: W
LayerCount: 2
Fore
SplineSet
324 1023 m 257,0,-1
 324 179 l 257,1,-1
 514 179 l 257,2,-1
 514 1023 l 257,3,-1
 324 1023 l 257,0,-1
642 1633 m 257,4,-1
 324 1028 l 257,5,-1
 512 1028 l 257,6,-1
 672 1640 l 257,7,-1
 642 1633 l 257,4,-1
324 179 m 257,8,-1
 668 -406 l 257,9,-1
 700 -406 l 257,10,-1
 514 179 l 257,11,-1
 324 179 l 257,8,-1
EndSplineSet
EndChar

StartChar: parenright
Encoding: 41 41 290
GlifName: parenright
Width: 1024
VWidth: 0
GlyphClass: 2
Flags: W
LayerCount: 2
Fore
SplineSet
488 1023 m 257,0,-1
 488 179 l 257,1,-1
 678 179 l 257,2,-1
 678 1023 l 257,3,-1
 488 1023 l 257,0,-1
346 1629 m 257,4,-1
 488 1023 l 257,5,-1
 678 1023 l 257,6,-1
 384 1629 l 257,7,-1
 346 1629 l 257,4,-1
488 179 m 257,8,-1
 346 -406 l 257,9,-1
 374 -406 l 257,10,-1
 678 179 l 257,11,-1
 488 179 l 257,8,-1
EndSplineSet
EndChar

StartChar: percent
Encoding: 37 37 291
GlifName: percent
Width: 1024
VWidth: 0
GlyphClass: 2
Flags: W
LayerCount: 2
Fore
SplineSet
78 522 m 257,0,-1
 122 377 l 257,1,-1
 946 716 l 257,2,-1
 902 860 l 257,3,-1
 78 522 l 257,0,-1
218 1148 m 257,4,-1
 218 822 l 257,5,-1
 296 822 l 257,6,-1
 296 1148 l 257,7,-1
 218 1148 l 257,4,-1
218 1152 m 257,8,-1
 218 1057 l 257,9,-1
 566 1057 l 257,10,-1
 566 1152 l 257,11,-1
 218 1152 l 257,8,-1
218 871 m 257,12,-1
 218 789 l 257,13,-1
 562 789 l 257,14,-1
 562 871 l 257,15,-1
 218 871 l 257,12,-1
474 1152 m 257,16,-1
 474 791 l 257,17,-1
 566 791 l 257,18,-1
 566 1152 l 257,19,-1
 474 1152 l 257,16,-1
546 436 m 257,20,-1
 546 110 l 257,21,-1
 624 110 l 257,22,-1
 624 436 l 257,23,-1
 546 436 l 257,20,-1
546 440 m 257,24,-1
 546 345 l 257,25,-1
 892 345 l 257,26,-1
 892 440 l 257,27,-1
 546 440 l 257,24,-1
546 159 m 257,28,-1
 546 77 l 257,29,-1
 890 77 l 257,30,-1
 890 159 l 257,31,-1
 546 159 l 257,28,-1
800 440 m 257,32,-1
 800 79 l 257,33,-1
 892 79 l 257,34,-1
 892 440 l 257,35,-1
 800 440 l 257,32,-1
EndSplineSet
EndChar

StartChar: period
Encoding: 46 46 292
GlifName: period
Width: 1024
VWidth: 0
GlyphClass: 2
Flags: W
LayerCount: 2
Fore
SplineSet
380 246 m 257,0,-1
 380 0 l 257,1,-1
 644 0 l 257,2,-1
 644 246 l 257,3,-1
 380 246 l 257,0,-1
EndSplineSet
EndChar

StartChar: periodcentered
Encoding: 183 183 293
GlifName: periodcentered
Width: 1024
VWidth: 0
GlyphClass: 2
Flags: W
LayerCount: 2
Fore
SplineSet
379 1146 m 257,0,-1
 379 899 l 257,1,-1
 644 899 l 257,2,-1
 644 1146 l 257,3,-1
 379 1146 l 257,0,-1
EndSplineSet
EndChar

StartChar: perthousand
Encoding: 8240 8240 294
GlifName: perthousand
Width: 1024
VWidth: 0
GlyphClass: 2
Flags: W
LayerCount: 2
Fore
SplineSet
632 436 m 257,0,-1
 632 110 l 257,1,-1
 710 110 l 257,2,-1
 710 436 l 257,3,-1
 632 436 l 257,0,-1
632 440 m 257,4,-1
 632 345 l 257,5,-1
 978 345 l 257,6,-1
 978 440 l 257,7,-1
 632 440 l 257,4,-1
632 159 m 257,8,-1
 632 77 l 257,9,-1
 976 77 l 257,10,-1
 976 159 l 257,11,-1
 632 159 l 257,8,-1
886 440 m 257,12,-1
 886 79 l 257,13,-1
 978 79 l 257,14,-1
 978 440 l 257,15,-1
 886 440 l 257,12,-1
-14 522 m 257,16,-1
 28 377 l 257,17,-1
 852 716 l 257,18,-1
 808 860 l 257,19,-1
 -14 522 l 257,16,-1
126 1148 m 257,20,-1
 126 822 l 257,21,-1
 204 822 l 257,22,-1
 204 1148 l 257,23,-1
 126 1148 l 257,20,-1
126 1152 m 257,24,-1
 126 1057 l 257,25,-1
 472 1057 l 257,26,-1
 472 1152 l 257,27,-1
 126 1152 l 257,24,-1
126 871 m 257,28,-1
 126 789 l 257,29,-1
 470 789 l 257,30,-1
 470 871 l 257,31,-1
 126 871 l 257,28,-1
380 1152 m 257,32,-1
 380 791 l 257,33,-1
 472 791 l 257,34,-1
 472 1152 l 257,35,-1
 380 1152 l 257,32,-1
230 436 m 257,36,-1
 230 110 l 257,37,-1
 308 110 l 257,38,-1
 308 436 l 257,39,-1
 230 436 l 257,36,-1
230 440 m 257,40,-1
 230 345 l 257,41,-1
 578 345 l 257,42,-1
 578 440 l 257,43,-1
 230 440 l 257,40,-1
230 159 m 257,44,-1
 230 77 l 257,45,-1
 574 77 l 257,46,-1
 574 159 l 257,47,-1
 230 159 l 257,44,-1
486 440 m 257,48,-1
 486 79 l 257,49,-1
 578 79 l 257,50,-1
 578 440 l 257,51,-1
 486 440 l 257,48,-1
EndSplineSet
EndChar

StartChar: peseta
Encoding: 8359 8359 295
GlifName: peseta
Width: 1024
VWidth: 0
GlyphClass: 2
Flags: W
LayerCount: 2
Fore
SplineSet
220 1549 m 257,0,-1
 220 0 l 257,1,-1
 291 0 l 257,2,-1
 291 1549 l 257,3,-1
 220 1549 l 257,0,-1
250 1549 m 257,4,-1
 250 1346 l 257,5,-1
 492 1346 l 257,6,-1
 492 1549 l 257,7,-1
 250 1549 l 257,4,-1
426 1549 m 257,8,-1
 426 881 l 257,9,-1
 499 881 l 257,10,-1
 499 1549 l 257,11,-1
 426 1549 l 257,8,-1
244 1068 m 257,12,-1
 244 868 l 257,13,-1
 498 868 l 257,14,-1
 498 1068 l 257,15,-1
 244 1068 l 257,12,-1
596 1548 m 257,16,-1
 596 0 l 257,17,-1
 662 0 l 257,18,-1
 662 1548 l 257,19,-1
 596 1548 l 257,16,-1
599 198 m 257,20,-1
 599 0 l 257,21,-1
 728 0 l 257,22,-1
 728 198 l 257,23,-1
 599 198 l 257,20,-1
518 1009 m 257,24,-1
 518 813 l 257,25,-1
 740 813 l 257,26,-1
 740 1009 l 257,27,-1
 518 1009 l 257,24,-1
778 609 m 257,28,-1
 778 491 l 257,29,-1
 933 491 l 257,30,-1
 933 609 l 257,31,-1
 778 609 l 257,28,-1
778 609 m 257,32,-1
 778 438 l 257,33,-1
 829 438 l 257,34,-1
 829 609 l 257,35,-1
 778 609 l 257,32,-1
779 118 m 257,36,-1
 779 -0 l 257,37,-1
 932 -0 l 257,38,-1
 932 118 l 257,39,-1
 779 118 l 257,36,-1
881 173 m 257,40,-1
 881 5 l 257,41,-1
 932 5 l 257,42,-1
 932 173 l 257,43,-1
 881 173 l 257,40,-1
779 438 m 257,44,-1
 881 173 l 257,45,-1
 932 173 l 257,46,-1
 829 438 l 257,47,-1
 779 438 l 257,44,-1
EndSplineSet
EndChar

StartChar: plus
Encoding: 43 43 296
GlifName: plus
Width: 1024
VWidth: 0
GlyphClass: 2
Flags: W
LayerCount: 2
Fore
SplineSet
384 1221 m 257,0,-1
 384 165 l 257,1,-1
 609 165 l 257,2,-1
 609 1221 l 257,3,-1
 384 1221 l 257,0,-1
61 821 m 257,4,-1
 61 613 l 257,5,-1
 963 613 l 257,6,-1
 963 821 l 257,7,-1
 61 821 l 257,4,-1
EndSplineSet
EndChar

StartChar: plusminus
Encoding: 177 177 297
GlifName: plusminus
Width: 1024
VWidth: 0
GlyphClass: 2
Flags: W
LayerCount: 2
Fore
SplineSet
99 108 m 257,0,-1
 99 -100 l 257,1,-1
 925 -100 l 257,2,-1
 925 108 l 257,3,-1
 99 108 l 257,0,-1
384 1221 m 257,4,-1
 384 165 l 257,5,-1
 609 165 l 257,6,-1
 609 1221 l 257,7,-1
 384 1221 l 257,4,-1
61 821 m 257,8,-1
 61 613 l 257,9,-1
 963 613 l 257,10,-1
 963 821 l 257,11,-1
 61 821 l 257,8,-1
EndSplineSet
EndChar

StartChar: q
Encoding: 113 113 298
GlifName: q
Width: 1024
VWidth: 0
GlyphClass: 2
Flags: W
AnchorPoint: "top" 738 1300 basechar 0
AnchorPoint: "base" 758 -496 basechar 0
LayerCount: 2
Fore
SplineSet
662 1201 m 257,0,-1
 662 -406 l 257,1,-1
 861 -406 l 257,2,-1
 861 1201 l 257,3,-1
 662 1201 l 257,0,-1
189 1023 m 257,4,-1
 189 823 l 257,5,-1
 838 823 l 257,6,-1
 838 1023 l 257,7,-1
 189 1023 l 257,4,-1
190 203 m 257,8,-1
 190 0 l 257,9,-1
 806 0 l 257,10,-1
 806 203 l 257,11,-1
 190 203 l 257,8,-1
188 855 m 257,12,-1
 188 107 l 257,13,-1
 388 107 l 257,14,-1
 388 855 l 257,15,-1
 188 855 l 257,12,-1
701 -268 m 257,16,-1
 701 -406 l 257,17,-1
 937 -406 l 257,18,-1
 937 -268 l 257,19,-1
 701 -268 l 257,16,-1
EndSplineSet
EndChar

StartChar: question
Encoding: 63 63 299
GlifName: question
Width: 1024
VWidth: 0
GlyphClass: 2
Flags: W
LayerCount: 2
Fore
SplineSet
368 247 m 257,0,-1
 368 0 l 257,1,-1
 614 0 l 257,2,-1
 614 247 l 257,3,-1
 368 247 l 257,0,-1
192 1519 m 257,4,-1
 192 1333 l 257,5,-1
 828 1333 l 257,6,-1
 828 1519 l 257,7,-1
 192 1519 l 257,4,-1
638 1514 m 257,8,-1
 638 966 l 257,9,-1
 832 966 l 257,10,-1
 832 1514 l 257,11,-1
 638 1514 l 257,8,-1
368 1015 m 257,12,-1
 368 816 l 257,13,-1
 832 816 l 257,14,-1
 832 1015 l 257,15,-1
 368 1015 l 257,12,-1
368 1011 m 257,16,-1
 368 392 l 257,17,-1
 616 392 l 257,18,-1
 616 1011 l 257,19,-1
 368 1011 l 257,16,-1
EndSplineSet
EndChar

StartChar: questiondown
Encoding: 191 191 300
GlifName: questiondown
Width: 1024
VWidth: 0
GlyphClass: 2
Flags: W
LayerCount: 2
Fore
SplineSet
655 1273 m 257,0,-1
 655 1519 l 257,1,-1
 405 1519 l 257,2,-1
 405 1272 l 257,3,-1
 655 1273 l 257,0,-1
832 0 m 257,4,-1
 832 186 l 257,5,-1
 195 186 l 257,6,-1
 195 0 l 257,7,-1
 832 0 l 257,4,-1
385 5 m 257,8,-1
 385 553 l 257,9,-1
 191 553 l 257,10,-1
 191 5 l 257,11,-1
 385 5 l 257,8,-1
655 504 m 257,12,-1
 655 703 l 257,13,-1
 191 703 l 257,14,-1
 191 504 l 257,15,-1
 655 504 l 257,12,-1
655 508 m 257,16,-1
 655 1127 l 257,17,-1
 407 1127 l 257,18,-1
 407 508 l 257,19,-1
 655 508 l 257,16,-1
EndSplineSet
EndChar

StartChar: quotedbl
Encoding: 34 34 301
GlifName: quotedbl
Width: 1024
VWidth: 0
GlyphClass: 2
Flags: W
LayerCount: 2
Fore
SplineSet
240 1326 m 257,0,-1
 384 1326 l 257,1,-1
 384 1574 l 257,2,-1
 240 1574 l 257,3,-1
 240 1326 l 257,0,-1
640 1326 m 257,4,-1
 784 1326 l 257,5,-1
 784 1574 l 257,6,-1
 640 1574 l 257,7,-1
 640 1326 l 257,4,-1
EndSplineSet
EndChar

StartChar: quotedblbase
Encoding: 8222 8222 302
GlifName: quotedblbase
Width: 1024
VWidth: 0
GlyphClass: 2
Flags: W
LayerCount: 2
Fore
SplineSet
198 237 m 257,0,-1
 198 8 l 257,1,-1
 446 8 l 257,2,-1
 446 237 l 257,3,-1
 198 237 l 257,0,-1
297 135 m 257,4,-1
 179 -146 l 257,5,-1
 322 -206 l 257,6,-1
 444 0 l 257,7,-1
 297 135 l 257,4,-1
597 237 m 257,8,-1
 597 8 l 257,9,-1
 845 8 l 257,10,-1
 845 237 l 257,11,-1
 597 237 l 257,8,-1
696 135 m 257,12,-1
 578 -146 l 257,13,-1
 721 -206 l 257,14,-1
 843 0 l 257,15,-1
 696 135 l 257,12,-1
EndSplineSet
EndChar

StartChar: quotedblleft
Encoding: 8220 8220 303
GlifName: quotedblleft
Width: 1024
VWidth: 0
GlyphClass: 2
Flags: W
LayerCount: 2
Fore
SplineSet
458 1842 m 257,0,-1
 458 2071 l 257,1,-1
 210 2071 l 257,2,-1
 210 1842 l 257,3,-1
 458 1842 l 257,0,-1
360 1944 m 257,4,-1
 478 2225 l 257,5,-1
 334 2285 l 257,6,-1
 212 2075 l 257,7,-1
 360 1944 l 257,4,-1
794 1842 m 257,8,-1
 794 2071 l 257,9,-1
 546 2071 l 257,10,-1
 546 1842 l 257,11,-1
 794 1842 l 257,8,-1
696 1944 m 257,12,-1
 814 2225 l 257,13,-1
 670 2285 l 257,14,-1
 548 2075 l 257,15,-1
 696 1944 l 257,12,-1
EndSplineSet
EndChar

StartChar: quotedblright
Encoding: 8221 8221 304
GlifName: quotedblright
Width: 1024
VWidth: 0
GlyphClass: 2
Flags: W
LayerCount: 2
Fore
SplineSet
556 2285 m 257,0,-1
 556 2056 l 257,1,-1
 804 2056 l 257,2,-1
 804 2285 l 257,3,-1
 556 2285 l 257,0,-1
656 2183 m 257,4,-1
 538 1902 l 257,5,-1
 680 1842 l 257,6,-1
 802 2052 l 257,7,-1
 656 2183 l 257,4,-1
238 2285 m 257,8,-1
 238 2056 l 257,9,-1
 486 2056 l 257,10,-1
 486 2285 l 257,11,-1
 238 2285 l 257,8,-1
338 2183 m 257,12,-1
 220 1902 l 257,13,-1
 362 1842 l 257,14,-1
 484 2052 l 257,15,-1
 338 2183 l 257,12,-1
EndSplineSet
EndChar

StartChar: quoteleft
Encoding: 8216 8216 305
GlifName: quoteleft
Width: 1024
VWidth: 0
GlyphClass: 2
Flags: W
LayerCount: 2
Fore
SplineSet
626 1842 m 257,0,-1
 626 2071 l 257,1,-1
 378 2071 l 257,2,-1
 378 1842 l 257,3,-1
 626 1842 l 257,0,-1
528 1944 m 257,4,-1
 646 2225 l 257,5,-1
 502 2285 l 257,6,-1
 380 2075 l 257,7,-1
 528 1944 l 257,4,-1
EndSplineSet
EndChar

StartChar: quoteright
Encoding: 8217 8217 306
GlifName: quoteright
Width: 1024
VWidth: 0
GlyphClass: 2
Flags: W
LayerCount: 2
Fore
SplineSet
398 2285 m 257,0,-1
 398 2056 l 257,1,-1
 646 2056 l 257,2,-1
 646 2285 l 257,3,-1
 398 2285 l 257,0,-1
496 2183 m 257,4,-1
 378 1902 l 257,5,-1
 522 1842 l 257,6,-1
 644 2052 l 257,7,-1
 496 2183 l 257,4,-1
EndSplineSet
EndChar

StartChar: quotesinglbase
Encoding: 8218 8218 307
GlifName: quotesinglbase
Width: 1024
VWidth: 0
GlyphClass: 2
Flags: W
LayerCount: 2
Fore
SplineSet
398 237 m 257,0,-1
 398 8 l 257,1,-1
 646 8 l 257,2,-1
 646 237 l 257,3,-1
 398 237 l 257,0,-1
496 135 m 257,4,-1
 378 -146 l 257,5,-1
 522 -206 l 257,6,-1
 644 0 l 257,7,-1
 496 135 l 257,4,-1
EndSplineSet
EndChar

StartChar: quotesingle
Encoding: 39 39 308
GlifName: quotesingle
Width: 1024
VWidth: 0
GlyphClass: 2
Flags: W
LayerCount: 2
Fore
SplineSet
447 1496 m 257,0,-1
 447 1264 l 257,1,-1
 577 1264 l 257,2,-1
 577 1496 l 257,3,-1
 447 1496 l 257,0,-1
EndSplineSet
EndChar

StartChar: r
Encoding: 114 114 309
GlifName: r
Width: 1024
VWidth: 0
GlyphClass: 2
Flags: W
AnchorPoint: "top" 504 1174 basechar 0
AnchorPoint: "base" 500 -70 basechar 0
LayerCount: 2
Fore
SplineSet
165 1023 m 257,0,-1
 165 821 l 257,1,-1
 898 821 l 257,2,-1
 898 1023 l 257,3,-1
 165 1023 l 257,0,-1
380 954 m 257,4,-1
 380 0 l 257,5,-1
 580 0 l 257,6,-1
 580 954 l 257,7,-1
 380 954 l 257,4,-1
698 976 m 257,8,-1
 698 650 l 257,9,-1
 898 650 l 257,10,-1
 898 976 l 257,11,-1
 698 976 l 257,8,-1
EndSplineSet
EndChar

StartChar: registered
Encoding: 174 174 312
GlifName: registered
Width: 1024
VWidth: 0
GlyphClass: 2
Flags: W
LayerCount: 2
Fore
SplineSet
389 1032 m 257,0,-1
 389 501 l 257,1,-1
 457 501 l 257,2,-1
 457 1032 l 257,3,-1
 389 1032 l 257,0,-1
414 1032 m 257,4,-1
 414 963 l 257,5,-1
 643 963 l 257,6,-1
 643 1032 l 257,7,-1
 414 1032 l 257,4,-1
583 1032 m 257,8,-1
 583 802 l 257,9,-1
 652 802 l 257,10,-1
 652 1032 l 257,11,-1
 583 1032 l 257,8,-1
410 875 m 257,12,-1
 410 801 l 257,13,-1
 648 801 l 257,14,-1
 648 875 l 257,15,-1
 410 875 l 257,12,-1
457 809 m 257,16,-1
 596 500 l 257,17,-1
 679 500 l 257,18,-1
 527 809 l 257,19,-1
 457 809 l 257,16,-1
33 1537 m 257,20,-1
 33 0 l 257,21,-1
 234 0 l 257,22,-1
 234 1537 l 257,23,-1
 33 1537 l 257,20,-1
772 1537 m 257,24,-1
 772 0 l 257,25,-1
 975 0 l 257,26,-1
 975 1537 l 257,27,-1
 772 1537 l 257,24,-1
174 1537 m 257,28,-1
 174 1337 l 257,29,-1
 817 1337 l 257,30,-1
 817 1537 l 257,31,-1
 174 1537 l 257,28,-1
150 204 m 257,32,-1
 150 0 l 257,33,-1
 823 0 l 257,34,-1
 823 204 l 257,35,-1
 150 204 l 257,32,-1
EndSplineSet
EndChar

StartChar: ring
Encoding: 730 730 313
GlifName: ring
Width: 1024
VWidth: 0
GlyphClass: 2
Flags: W
LayerCount: 2
Fore
SplineSet
467 1756 m 257,0,-1
 615 1756 l 257,1,-1
 615 1626 l 257,2,-1
 467 1626 l 257,3,-1
 467 1756 l 257,0,-1
362 1847 m 257,4,-1
 362 1537 l 257,5,-1
 722 1537 l 257,6,-1
 722 1847 l 257,7,-1
 362 1847 l 257,4,-1
EndSplineSet
EndChar

StartChar: s
Encoding: 115 115 314
GlifName: s
Width: 1024
VWidth: 0
GlyphClass: 2
Flags: W
AnchorPoint: "top" 472 1134 basechar 0
AnchorPoint: "base" 512 -66 basechar 0
LayerCount: 2
Fore
SplineSet
186 1023 m 257,0,-1
 186 826 l 257,1,-1
 795 826 l 257,2,-1
 795 1023 l 257,3,-1
 186 1023 l 257,0,-1
186 1023 m 257,4,-1
 186 736 l 257,5,-1
 386 736 l 257,6,-1
 386 1023 l 257,7,-1
 186 1023 l 257,4,-1
187 201 m 257,8,-1
 187 0 l 257,9,-1
 792 0 l 257,10,-1
 792 201 l 257,11,-1
 187 201 l 257,8,-1
591 293 m 257,12,-1
 591 12 l 257,13,-1
 791 12 l 257,14,-1
 791 293 l 257,15,-1
 591 293 l 257,12,-1
187 736 m 257,16,-1
 591 293 l 257,17,-1
 791 293 l 257,18,-1
 387 736 l 257,19,-1
 187 736 l 257,16,-1
EndSplineSet
EndChar

StartChar: section
Encoding: 167 167 320
GlifName: section
Width: 1024
VWidth: 0
GlyphClass: 2
Flags: W
LayerCount: 2
Fore
SplineSet
146 1238 m 257,0,-1
 146 1035 l 257,1,-1
 744 1035 l 257,2,-1
 744 1238 l 257,3,-1
 146 1238 l 257,0,-1
146 1241 m 257,4,-1
 146 605 l 257,5,-1
 348 605 l 257,6,-1
 348 1241 l 257,7,-1
 146 1241 l 257,4,-1
183 -61 m 257,8,-1
 183 -260 l 257,9,-1
 891 -260 l 257,10,-1
 891 -61 l 257,11,-1
 183 -61 l 257,8,-1
726 -259 m 257,12,-1
 927 -259 l 257,13,-1
 927 95 l 257,14,-1
 726 95 l 257,15,-1
 726 -259 l 257,12,-1
146 605 m 257,16,-1
 726 95 l 257,17,-1
 927 95 l 257,18,-1
 348 605 l 257,19,-1
 146 605 l 257,16,-1
146 1626 m 257,20,-1
 146 1423 l 257,21,-1
 744 1423 l 257,22,-1
 744 1626 l 257,23,-1
 146 1626 l 257,20,-1
146 1629 m 257,24,-1
 146 1237 l 257,25,-1
 348 1237 l 257,26,-1
 348 1629 l 257,27,-1
 146 1629 l 257,24,-1
174 286 m 257,28,-1
 174 87 l 257,29,-1
 882 87 l 257,30,-1
 882 286 l 257,31,-1
 174 286 l 257,28,-1
717 88 m 257,32,-1
 918 88 l 257,33,-1
 918 442 l 257,34,-1
 717 442 l 257,35,-1
 717 88 l 257,32,-1
146 1237 m 257,36,-1
 717 442 l 257,37,-1
 918 442 l 257,38,-1
 348 1237 l 257,39,-1
 146 1237 l 257,36,-1
EndSplineSet
EndChar

StartChar: semicolon
Encoding: 59 59 321
GlifName: semicolon
Width: 1024
VWidth: 0
GlyphClass: 2
Flags: W
LayerCount: 2
Fore
SplineSet
400 430 m 257,0,-1
 400 201 l 257,1,-1
 648 201 l 257,2,-1
 648 430 l 257,3,-1
 400 430 l 257,0,-1
498 328 m 257,4,-1
 380 47 l 257,5,-1
 524 -13 l 257,6,-1
 646 197 l 257,7,-1
 498 328 l 257,4,-1
376 871 m 257,8,-1
 376 624 l 257,9,-1
 642 624 l 257,10,-1
 642 871 l 257,11,-1
 376 871 l 257,8,-1
EndSplineSet
EndChar

StartChar: seven
Encoding: 55 55 322
GlifName: seven
Width: 1024
VWidth: 0
GlyphClass: 2
Flags: W
LayerCount: 2
Fore
SplineSet
54 1355 m 257,0,-1
 764 1355 l 257,1,-1
 764 0 l 257,2,-1
 967 0 l 257,3,-1
 967 1557 l 257,4,-1
 54 1557 l 257,5,-1
 54 1355 l 257,0,-1
EndSplineSet
EndChar

StartChar: six
Encoding: 54 54 323
GlifName: six
Width: 1024
VWidth: 0
GlyphClass: 2
Flags: W
LayerCount: 2
Fore
SplineSet
41 1548 m 257,0,-1
 41 201 l 257,1,-1
 41 0 l 257,2,-1
 980 0 l 257,3,-1
 980 959 l 257,4,-1
 244 959 l 257,5,-1
 244 1348 l 257,6,-1
 985 1348 l 257,7,-1
 985 1548 l 257,8,-1
 41 1548 l 257,0,-1
772 759 m 257,9,-1
 772 203 l 257,10,-1
 250 203 l 257,11,-1
 250 759 l 257,12,-1
 772 759 l 257,9,-1
EndSplineSet
EndChar

StartChar: slash
Encoding: 47 47 324
GlifName: slash
Width: 1024
VWidth: 0
GlyphClass: 2
Flags: W
LayerCount: 2
Fore
SplineSet
703 1483 m 257,0,-1
 133 6 l 257,1,-1
 321 -67 l 257,2,-1
 891 1410 l 257,3,-1
 703 1483 l 257,0,-1
EndSplineSet
EndChar

StartChar: sterling
Encoding: 163 163 326
GlifName: sterling
Width: 1024
VWidth: 0
GlyphClass: 2
Flags: W
LayerCount: 2
Fore
SplineSet
381 1543 m 257,0,-1
 381 1344 l 257,1,-1
 672 1344 l 257,2,-1
 672 1543 l 257,3,-1
 381 1543 l 257,0,-1
54 770 m 257,4,-1
 54 571 l 257,5,-1
 780 571 l 257,6,-1
 780 770 l 257,7,-1
 54 770 l 257,4,-1
337 1542 m 257,8,-1
 337 0 l 257,9,-1
 535 0 l 257,10,-1
 535 1542 l 257,11,-1
 337 1542 l 257,8,-1
162 202 m 257,12,-1
 162 0 l 257,13,-1
 888 0 l 257,14,-1
 888 202 l 257,15,-1
 162 202 l 257,12,-1
EndSplineSet
EndChar

StartChar: t
Encoding: 116 116 327
GlifName: t
Width: 1024
VWidth: 0
GlyphClass: 2
Flags: W
AnchorPoint: "top" 500 1642 basechar 0
AnchorPoint: "base" 500 -82 basechar 0
LayerCount: 2
Fore
SplineSet
410 1548 m 257,0,-1
 410 0 l 257,1,-1
 610 0 l 257,2,-1
 610 1548 l 257,3,-1
 410 1548 l 257,0,-1
418 199 m 257,4,-1
 418 0 l 257,5,-1
 809 0 l 257,6,-1
 809 199 l 257,7,-1
 418 199 l 257,4,-1
174 1023 m 257,8,-1
 174 824 l 257,9,-1
 848 824 l 257,10,-1
 848 1023 l 257,11,-1
 174 1023 l 257,8,-1
EndSplineSet
EndChar

StartChar: tcaron
Encoding: 357 357 328
GlifName: tcaron
Width: 1024
VWidth: 0
GlyphClass: 2
Flags: W
LayerCount: 2
Fore
SplineSet
342 1529 m 257,0,-1
 342 0 l 257,1,-1
 543 0 l 257,2,-1
 543 1529 l 257,3,-1
 342 1529 l 257,0,-1
495 199 m 257,4,-1
 495 0 l 257,5,-1
 886 0 l 257,6,-1
 886 199 l 257,7,-1
 495 199 l 257,4,-1
70 1023 m 257,8,-1
 70 824 l 257,9,-1
 849 824 l 257,10,-1
 849 1023 l 257,11,-1
 70 1023 l 257,8,-1
672 1496 m 257,12,-1
 672 1291 l 257,13,-1
 802 1291 l 257,14,-1
 802 1496 l 257,15,-1
 672 1496 l 257,12,-1
EndSplineSet
EndChar

StartChar: thorn
Encoding: 254 254 329
GlifName: thorn
Width: 1024
VWidth: 0
GlyphClass: 2
Flags: W
LayerCount: 2
Fore
SplineSet
173 1034 m 257,0,-1
 173 -406 l 257,1,-1
 373 -406 l 257,2,-1
 373 1034 l 257,3,-1
 173 1034 l 257,0,-1
360 667 m 257,4,-1
 360 468 l 257,5,-1
 916 468 l 257,6,-1
 916 667 l 257,7,-1
 360 667 l 257,4,-1
368 6 m 257,8,-1
 368 -195 l 257,9,-1
 914 -195 l 257,10,-1
 914 6 l 257,11,-1
 368 6 l 257,8,-1
716 597 m 257,12,-1
 716 -104 l 257,13,-1
 914 -104 l 257,14,-1
 914 597 l 257,15,-1
 716 597 l 257,12,-1
EndSplineSet
EndChar

StartChar: three
Encoding: 51 51 330
GlifName: three
Width: 1024
VWidth: 0
GlyphClass: 2
Flags: W
LayerCount: 2
Fore
SplineSet
101 736 m 257,0,-1
 759 736 l 257,1,-1
 759 192 l 257,2,-1
 59 192 l 257,3,-1
 59 -8 l 257,4,-1
 963 -8 l 257,5,-1
 963 1553 l 257,6,-1
 89 1553 l 257,7,-1
 89 1353 l 257,8,-1
 757 1353 l 257,9,-1
 757 936 l 257,10,-1
 101 936 l 257,11,-1
 101 736 l 257,0,-1
EndSplineSet
EndChar

StartChar: threequarters
Encoding: 190 190 331
GlifName: threequarters
Width: 1024
VWidth: 0
GlyphClass: 2
Flags: W
LayerCount: 2
Fore
SplineSet
703 1483 m 257,0,-1
 133 6 l 257,1,-1
 176 -67 l 257,2,-1
 746 1410 l 257,3,-1
 703 1483 l 257,0,-1
77 1272 m 257,4,-1
 355 1272 l 257,5,-1
 355 1084 l 257,6,-1
 59 1084 l 257,7,-1
 59 1015 l 257,8,-1
 441 1015 l 257,9,-1
 441 1553 l 257,10,-1
 72 1553 l 257,11,-1
 72 1484 l 257,12,-1
 354 1484 l 257,13,-1
 354 1340 l 257,14,-1
 77 1340 l 257,15,-1
 77 1272 l 257,4,-1
643 340 m 257,16,-1
 908 340 l 257,17,-1
 908 7 l 257,18,-1
 989 7 l 257,19,-1
 989 687 l 257,20,-1
 907 687 l 257,21,-1
 907 428 l 257,22,-1
 725 428 l 257,23,-1
 725 689 l 257,24,-1
 643 689 l 257,25,-1
 643 340 l 257,16,-1
EndSplineSet
EndChar

StartChar: tilde
Encoding: 732 732 332
GlifName: tilde
Width: 1024
VWidth: 0
GlyphClass: 2
Flags: W
LayerCount: 2
Fore
SplineSet
359 1607 m 257,0,-1
 359 1528 l 257,1,-1
 639 1479 l 257,2,-1
 639 1558 l 257,3,-1
 359 1607 l 257,0,-1
169 1560 m 257,4,-1
 181 1482 l 257,5,-1
 359 1528 l 257,6,-1
 359 1607 l 257,7,-1
 169 1560 l 257,4,-1
639 1558 m 257,8,-1
 639 1479 l 257,9,-1
 784 1592 l 257,10,-1
 765 1668 l 257,11,-1
 639 1558 l 257,8,-1
EndSplineSet
EndChar

StartChar: tildecomb
Encoding: 771 771 333
GlifName: tildecomb
Width: 0
VWidth: 0
GlyphClass: 4
Flags: W
AnchorPoint: "top" -6 778 mark 0
LayerCount: 2
Fore
SplineSet
-194 994 m 257,0,-1
 -194 895 l 257,1,-1
 156 834 l 257,2,-1
 156 933 l 257,3,-1
 -194 994 l 257,0,-1
-432 936 m 257,4,-1
 -417 838 l 257,5,-1
 -194 895 l 257,6,-1
 -194 994 l 257,7,-1
 -432 936 l 257,4,-1
156 933 m 257,8,-1
 156 834 l 257,9,-1
 337 975 l 257,10,-1
 313 1071 l 257,11,-1
 156 933 l 257,8,-1
EndSplineSet
EndChar

StartChar: two
Encoding: 50 50 335
GlifName: two
Width: 1024
VWidth: 0
GlyphClass: 2
Flags: W
LayerCount: 2
Fore
SplineSet
109 1344 m 257,0,-1
 718 1344 l 257,1,-1
 718 908 l 257,2,-1
 116 908 l 257,3,-1
 116 0 l 257,4,-1
 904 0 l 257,5,-1
 904 200 l 257,6,-1
 319 200 l 257,7,-1
 319 707 l 257,8,-1
 918 707 l 257,9,-1
 918 1548 l 257,10,-1
 109 1548 l 257,11,-1
 109 1344 l 257,0,-1
EndSplineSet
EndChar

StartChar: u
Encoding: 117 117 336
GlifName: u
Width: 1024
VWidth: 0
GlyphClass: 2
Flags: W
AnchorPoint: "top" 440 1146 basechar 0
AnchorPoint: "base" 472 -62 basechar 0
LayerCount: 2
Fore
SplineSet
139 1023 m 257,0,-1
 139 0 l 257,1,-1
 340 0 l 257,2,-1
 340 1023 l 257,3,-1
 139 1023 l 257,0,-1
571 1023 m 257,4,-1
 571 0 l 257,5,-1
 771 0 l 257,6,-1
 771 1023 l 257,7,-1
 571 1023 l 257,4,-1
186 200 m 257,8,-1
 186 0 l 257,9,-1
 888 0 l 257,10,-1
 888 200 l 257,11,-1
 186 200 l 257,8,-1
EndSplineSet
EndChar

StartChar: underscore
Encoding: 95 95 345
GlifName: underscore
Width: 1024
VWidth: 0
GlyphClass: 2
Flags: W
LayerCount: 2
Fore
SplineSet
-5 -5 m 257,0,-1
 -5 -157 l 257,1,-1
 1019 -157 l 257,2,-1
 1019 -5 l 257,3,-1
 -5 -5 l 257,0,-1
EndSplineSet
EndChar

StartChar: uni00B2
Encoding: 178 178 347
GlifName: uni00B_2
Width: 1024
VWidth: 0
GlyphClass: 2
Flags: W
LayerCount: 2
Fore
SplineSet
225 1455 m 257,0,-1
 573 1455 l 257,1,-1
 573 1259 l 257,2,-1
 229 1259 l 257,3,-1
 229 851 l 257,4,-1
 678 851 l 257,5,-1
 678 940 l 257,6,-1
 345 940 l 257,7,-1
 345 1168 l 257,8,-1
 687 1168 l 257,9,-1
 687 1548 l 257,10,-1
 225 1548 l 257,11,-1
 225 1455 l 257,0,-1
EndSplineSet
EndChar

StartChar: uni00B3
Encoding: 179 179 348
GlifName: uni00B_3
Width: 1024
VWidth: 0
GlyphClass: 2
Flags: W
LayerCount: 2
Fore
SplineSet
193 1215 m 257,0,-1
 645 1215 l 257,1,-1
 645 990 l 257,2,-1
 164 990 l 257,3,-1
 164 908 l 257,4,-1
 785 908 l 257,5,-1
 785 1553 l 257,6,-1
 185 1553 l 257,7,-1
 185 1471 l 257,8,-1
 644 1471 l 257,9,-1
 644 1298 l 257,10,-1
 193 1298 l 257,11,-1
 193 1215 l 257,0,-1
EndSplineSet
EndChar

StartChar: uni00B9
Encoding: 185 185 349
GlifName: uni00B_9
Width: 1024
VWidth: 0
GlyphClass: 2
Flags: W
LayerCount: 2
Fore
SplineSet
511 887 m 257,0,-1
 610 887 l 257,1,-1
 610 1661 l 257,2,-1
 511 1661 l 257,3,-1
 511 887 l 257,0,-1
513 1661 m 257,4,-1
 414 1513 l 257,5,-1
 489 1463 l 257,6,-1
 588 1612 l 257,7,-1
 513 1661 l 257,4,-1
EndSplineSet
EndChar

StartChar: uni018F
Encoding: 399 399 368
GlifName: uni018F_
Width: 1024
VWidth: 0
GlyphClass: 2
Flags: W
AnchorPoint: "top" 568 1630 basechar 0
AnchorPoint: "base" 690 -117 basechar 0
LayerCount: 2
Fore
SplineSet
804 0 m 257,0,-1
 804 211 l 257,1,-1
 265 211 l 257,2,-1
 265 0 l 257,3,-1
 804 0 l 257,0,-1
854 0 m 257,4,-1
 854 1543 l 257,5,-1
 652 1543 l 257,6,-1
 652 0 l 257,7,-1
 854 0 l 257,4,-1
752 1342 m 257,8,-1
 752 1543 l 257,9,-1
 170 1543 l 257,10,-1
 170 1342 l 257,11,-1
 752 1342 l 257,8,-1
784 689 m 257,12,-1
 784 868 l 257,13,-1
 130 868 l 257,14,-1
 130 689 l 257,15,-1
 784 689 l 257,12,-1
462 30 m 257,16,-1
 302 869 l 257,17,-1
 107 869 l 257,18,-1
 267 30 l 257,19,-1
 462 30 l 257,16,-1
EndSplineSet
EndChar

StartChar: uni0192
Encoding: 402 402 369
GlifName: uni0192
Width: 1024
VWidth: 0
GlyphClass: 2
Flags: W
LayerCount: 2
Fore
SplineSet
413 1023 m 257,0,-1
 413 -406 l 257,1,-1
 613 -406 l 257,2,-1
 613 1023 l 257,3,-1
 413 1023 l 257,0,-1
475 1023 m 257,4,-1
 475 831 l 257,5,-1
 957 831 l 257,6,-1
 957 1023 l 257,7,-1
 475 1023 l 257,4,-1
229 559 m 257,8,-1
 229 356 l 257,9,-1
 860 356 l 257,10,-1
 860 559 l 257,11,-1
 229 559 l 257,8,-1
167 -201 m 257,12,-1
 167 -406 l 257,13,-1
 615 -406 l 257,14,-1
 615 -201 l 257,15,-1
 167 -201 l 257,12,-1
EndSplineSet
EndChar

StartChar: uni0237
Encoding: 567 567 426
GlifName: uni0237
Width: 1024
VWidth: 0
GlyphClass: 2
Flags: W
AnchorPoint: "top" 720 1182 basechar 0
LayerCount: 2
Fore
SplineSet
627 940 m 257,0,-1
 627 -411 l 257,1,-1
 826 -411 l 257,2,-1
 826 940 l 257,3,-1
 627 940 l 257,0,-1
197 -209 m 257,4,-1
 197 -406 l 257,5,-1
 727 -406 l 257,6,-1
 727 -209 l 257,7,-1
 197 -209 l 257,4,-1
198 -6 m 257,8,-1
 198 -351 l 257,9,-1
 398 -351 l 257,10,-1
 398 -6 l 257,11,-1
 198 -6 l 257,8,-1
EndSplineSet
EndChar

StartChar: uni0259
Encoding: 601 601 427
GlifName: uni0259
Width: 1024
VWidth: 0
GlyphClass: 2
Flags: W
LayerCount: 2
Fore
SplineSet
804 0 m 257,0,-1
 804 211 l 257,1,-1
 240 278 l 257,2,-1
 240 67 l 257,3,-1
 804 0 l 257,0,-1
854 0 m 257,4,-1
 854 1023 l 257,5,-1
 652 1023 l 257,6,-1
 652 0 l 257,7,-1
 854 0 l 257,4,-1
752 822 m 257,8,-1
 752 1023 l 257,9,-1
 170 1023 l 257,10,-1
 170 822 l 257,11,-1
 752 822 l 257,8,-1
784 398 m 257,12,-1
 784 577 l 257,13,-1
 194 577 l 257,14,-1
 194 398 l 257,15,-1
 784 398 l 257,12,-1
437 97 m 257,16,-1
 366 578 l 257,17,-1
 171 578 l 257,18,-1
 242 97 l 257,19,-1
 437 97 l 257,16,-1
EndSplineSet
EndChar

StartChar: uni02C9
Encoding: 713 713 431
GlifName: uni02C_9
Width: 1024
VWidth: 0
GlyphClass: 2
Flags: W
LayerCount: 2
Fore
SplineSet
226 1630 m 257,0,-1
 226 1548 l 257,1,-1
 786 1548 l 257,2,-1
 786 1630 l 257,3,-1
 226 1630 l 257,0,-1
EndSplineSet
EndChar

StartChar: uni02CA
Encoding: 714 714 432
GlifName: uni02C_A_
Width: 1024
VWidth: 0
GlyphClass: 2
Flags: W
LayerCount: 2
Fore
SplineSet
556 1346 m 257,0,-1
 426 1092 l 257,1,-1
 514 1046 l 257,2,-1
 645 1301 l 257,3,-1
 556 1346 l 257,0,-1
EndSplineSet
EndChar

StartChar: uni02CB
Encoding: 715 715 433
GlifName: uni02C_B_
Width: 1024
VWidth: 0
GlyphClass: 2
Flags: W
LayerCount: 2
Fore
SplineSet
421 2107 m 257,0,-1
 541 1871 l 257,1,-1
 632 1917 l 257,2,-1
 513 2154 l 257,3,-1
 421 2107 l 257,0,-1
EndSplineSet
EndChar

StartChar: uni0302
Encoding: 770 770 434
GlifName: uni0302
Width: 0
VWidth: 0
GlyphClass: 4
Flags: W
AnchorPoint: "top" 6 778 mark 0
LayerCount: 2
Fore
SplineSet
31 1054 m 257,0,-1
 -29 1054 l 257,1,-1
 -135 807 l 257,2,-1
 -75 782 l 257,3,-1
 31 1054 l 257,0,-1
-27 1006 m 257,4,-1
 76 782 l 257,5,-1
 136 804 l 257,6,-1
 31 1054 l 257,7,-1
 -27 1006 l 257,4,-1
EndSplineSet
EndChar

StartChar: uni0304
Encoding: 772 772 435
GlifName: uni0304
Width: 0
VWidth: 0
GlyphClass: 4
Flags: W
AnchorPoint: "top" -1 773 mark 0
LayerCount: 2
Fore
SplineSet
-302 944 m 257,0,-1
 -302 862 l 257,1,-1
 258 862 l 257,2,-1
 258 944 l 257,3,-1
 -302 944 l 257,0,-1
EndSplineSet
EndChar

StartChar: uni0305
Encoding: 773 773 436
GlifName: uni0305
Width: 0
VWidth: 0
GlyphClass: 4
Flags: W
AnchorPoint: "top" 18 1480 mark 0
LayerCount: 2
Fore
SplineSet
-377 1602 m 257,0,-1
 -377 1542 l 257,1,-1
 377 1542 l 257,2,-1
 377 1602 l 257,3,-1
 -377 1602 l 257,0,-1
EndSplineSet
EndChar

StartChar: uni0306
Encoding: 774 774 437
GlifName: uni0306
Width: 0
VWidth: 0
GlyphClass: 4
Flags: W
AnchorPoint: "top" -3 776 mark 0
LayerCount: 2
Fore
SplineSet
182 859 m 257,0,-1
 182 791 l 257,1,-1
 347 859 l 257,2,-1
 347 956 l 257,3,-1
 182 859 l 257,0,-1
-142 859 m 257,4,-1
 -142 791 l 257,5,-1
 182 791 l 257,6,-1
 182 859 l 257,7,-1
 -142 859 l 257,4,-1
-313 941 m 257,8,-1
 -313 859 l 257,9,-1
 -142 791 l 257,10,-1
 -142 859 l 257,11,-1
 -313 941 l 257,8,-1
EndSplineSet
EndChar

StartChar: uni0307
Encoding: 775 775 438
GlifName: uni0307
Width: 0
VWidth: 0
GlyphClass: 4
Flags: W
AnchorPoint: "top" -4 774 mark 0
LayerCount: 2
Fore
SplineSet
-115 992 m 257,0,-1
 -115 790 l 257,1,-1
 109 790 l 257,2,-1
 109 992 l 257,3,-1
 -115 992 l 257,0,-1
EndSplineSet
EndChar

StartChar: uni0308
Encoding: 776 776 439
GlifName: uni0308
Width: 0
VWidth: 0
GlyphClass: 4
Flags: W
AnchorPoint: "top" 4 1592 mark 0
LayerCount: 2
Fore
SplineSet
-177 1738 m 257,0,-1
 -177 1637 l 257,1,-1
 -65 1637 l 257,2,-1
 -65 1738 l 257,3,-1
 -177 1738 l 257,0,-1
65 1738 m 257,4,-1
 65 1637 l 257,5,-1
 177 1637 l 257,6,-1
 177 1738 l 257,7,-1
 65 1738 l 257,4,-1
EndSplineSet
EndChar

StartChar: uni030A
Encoding: 778 778 440
GlifName: uni030A_
Width: 0
VWidth: 0
GlyphClass: 4
Flags: W
AnchorPoint: "top" 8 762 mark 0
LayerCount: 2
Fore
SplineSet
-72 1010 m 257,0,-1
 76 1010 l 257,1,-1
 76 880 l 257,2,-1
 -72 880 l 257,3,-1
 -72 1010 l 257,0,-1
-177 1101 m 257,4,-1
 -177 791 l 257,5,-1
 183 791 l 257,6,-1
 183 1101 l 257,7,-1
 -177 1101 l 257,4,-1
EndSplineSet
EndChar

StartChar: uni030B
Encoding: 779 779 441
GlifName: uni030B_
Width: 0
VWidth: 0
GlyphClass: 4
Flags: W
AnchorPoint: "top" -5 778 mark 0
LayerCount: 2
Fore
SplineSet
-307 784 m 257,0,-1
 -163 784 l 257,1,-1
 -106 1032 l 257,2,-1
 -250 1032 l 257,3,-1
 -307 784 l 257,0,-1
93 784 m 257,4,-1
 237 784 l 257,5,-1
 294 1032 l 257,6,-1
 150 1032 l 257,7,-1
 93 784 l 257,4,-1
EndSplineSet
EndChar

StartChar: uni030C
Encoding: 780 780 442
GlifName: uni030C_
Width: 0
VWidth: 0
GlyphClass: 4
Flags: W
AnchorPoint: "top" 1 760 mark 0
LayerCount: 2
Fore
SplineSet
27 810 m 257,0,-1
 -79 1082 l 257,1,-1
 -139 1057 l 257,2,-1
 -33 810 l 257,3,-1
 27 810 l 257,0,-1
-31 858 m 257,4,-1
 27 810 l 257,5,-1
 132 1060 l 257,6,-1
 72 1082 l 257,7,-1
 -31 858 l 257,4,-1
EndSplineSet
EndChar

StartChar: uni030F
Encoding: 783 783 443
GlifName: uni030F_
Width: 0
VWidth: 0
GlyphClass: 4
Flags: W
AnchorPoint: "top" -5 773 mark 0
LayerCount: 2
Fore
SplineSet
-25 1035 m 257,0,-1
 95 799 l 257,1,-1
 186 845 l 257,2,-1
 67 1082 l 257,3,-1
 -25 1035 l 257,0,-1
-243 1035 m 257,4,-1
 -123 799 l 257,5,-1
 -32 845 l 257,6,-1
 -151 1082 l 257,7,-1
 -243 1035 l 257,4,-1
EndSplineSet
EndChar

StartChar: uni0311
Encoding: 785 785 444
GlifName: uni0311
Width: 0
VWidth: 0
GlyphClass: 4
Flags: W
AnchorPoint: "top" 2 780 mark 0
LayerCount: 2
Fore
SplineSet
-193 834 m 257,0,-1
 -193 902 l 257,1,-1
 -358 834 l 257,2,-1
 -358 737 l 257,3,-1
 -193 834 l 257,0,-1
131 834 m 257,4,-1
 131 902 l 257,5,-1
 -193 902 l 257,6,-1
 -193 834 l 257,7,-1
 131 834 l 257,4,-1
302 752 m 257,8,-1
 302 834 l 257,9,-1
 131 902 l 257,10,-1
 131 834 l 257,11,-1
 302 752 l 257,8,-1
EndSplineSet
EndChar

StartChar: uni0312
Encoding: 786 786 445
GlifName: uni0312
Width: 0
VWidth: 0
GlyphClass: 4
Flags: W
AnchorPoint: "top" 30 1559 mark 0
LayerCount: 2
Fore
SplineSet
-102 1594 m 257,0,-1
 146 1594 l 257,1,-1
 146 1823 l 257,2,-1
 -102 1823 l 257,3,-1
 -102 1594 l 257,0,-1
-4 1696 m 257,4,-1
 142 1718 l 257,5,-1
 22 2037 l 257,6,-1
 -122 1977 l 257,7,-1
 -4 1696 l 257,4,-1
EndSplineSet
EndChar

StartChar: uni031B
Encoding: 795 795 446
GlifName: uni031B_
Width: 0
VWidth: 0
GlyphClass: 4
Flags: W
AnchorPoint: "top" 3 781 mark 0
LayerCount: 2
Fore
SplineSet
-58 1228 m 257,0,-1
 -58 999 l 257,1,-1
 190 999 l 257,2,-1
 190 1228 l 257,3,-1
 -58 1228 l 257,0,-1
40 1126 m 257,4,-1
 -78 845 l 257,5,-1
 66 785 l 257,6,-1
 188 991 l 257,7,-1
 40 1126 l 257,4,-1
EndSplineSet
EndChar

StartChar: uni0324
Encoding: 804 804 447
GlifName: uni0324
Width: 0
VWidth: 0
GlyphClass: 4
Flags: W
AnchorPoint: "base" -8 -147 mark 0
LayerCount: 2
Fore
SplineSet
164 -188 m 257,0,-1
 164 -435 l 257,1,-1
 428 -435 l 257,2,-1
 428 -188 l 257,3,-1
 164 -188 l 257,0,-1
-425 -208 m 257,4,-1
 -425 -455 l 257,5,-1
 -161 -455 l 257,6,-1
 -161 -208 l 257,7,-1
 -425 -208 l 257,4,-1
EndSplineSet
EndChar

StartChar: uni0326
Encoding: 806 806 448
GlifName: uni0326
Width: 0
VWidth: 0
GlyphClass: 4
Flags: W
AnchorPoint: "base" 22 -5 mark 0
LayerCount: 2
Fore
SplineSet
-114 0 m 257,0,-1
 -114 -230 l 257,1,-1
 134 -230 l 257,2,-1
 134 0 l 257,3,-1
 -114 0 l 257,0,-1
-16 -103 m 257,4,-1
 -134 -384 l 257,5,-1
 10 -444 l 257,6,-1
 132 -234 l 257,7,-1
 -16 -103 l 257,4,-1
EndSplineSet
EndChar

StartChar: uni0327
Encoding: 807 807 449
GlifName: uni0327
Width: 0
VWidth: 0
GlyphClass: 4
Flags: W
AnchorPoint: "base" -694 210 mark 0
LayerCount: 2
Fore
SplineSet
-224 180 m 257,0,-1
 -224 -144 l 257,1,-1
 -68 -144 l 257,2,-1
 -68 180 l 257,3,-1
 -224 180 l 257,0,-1
-222 -288 m 257,4,-1
 -222 -406 l 257,5,-1
 224 -406 l 257,6,-1
 224 -288 l 257,7,-1
 -222 -288 l 257,4,-1
72 0 m 257,8,-1
 72 -372 l 257,9,-1
 224 -372 l 257,10,-1
 224 0 l 257,11,-1
 72 0 l 257,8,-1
-222 0 m 257,12,-1
 -222 -156 l 257,13,-1
 224 -156 l 257,14,-1
 224 0 l 257,15,-1
 -222 0 l 257,12,-1
EndSplineSet
EndChar

StartChar: uni0328
Encoding: 808 808 450
GlifName: uni0328
Width: 0
VWidth: 0
GlyphClass: 4
Flags: W
AnchorPoint: "base" -167 0 mark 0
LayerCount: 2
Fore
SplineSet
-271 -288 m 257,0,-1
 -271 -406 l 257,1,-1
 271 -406 l 257,2,-1
 271 -288 l 257,3,-1
 -271 -288 l 257,0,-1
-271 0 m 257,4,-1
 -271 -406 l 257,5,-1
 -153 -406 l 257,6,-1
 -153 0 l 257,7,-1
 -271 0 l 257,4,-1
-271 0 m 257,8,-1
 -271 -121 l 257,9,-1
 271 -121 l 257,10,-1
 271 0 l 257,11,-1
 -271 0 l 257,8,-1
EndSplineSet
EndChar

StartChar: uni032E
Encoding: 814 814 451
GlifName: uni032E_
Width: 0
VWidth: 0
GlyphClass: 4
Flags: W
AnchorPoint: "base" -8 -4 mark 0
LayerCount: 2
Fore
SplineSet
197 -173 m 257,0,-1
 197 -241 l 257,1,-1
 362 -173 l 257,2,-1
 362 -76 l 257,3,-1
 197 -173 l 257,0,-1
-127 -173 m 257,4,-1
 -127 -241 l 257,5,-1
 197 -241 l 257,6,-1
 197 -173 l 257,7,-1
 -127 -173 l 257,4,-1
-298 -91 m 257,8,-1
 -298 -173 l 257,9,-1
 -127 -241 l 257,10,-1
 -127 -173 l 257,11,-1
 -298 -91 l 257,8,-1
EndSplineSet
EndChar

StartChar: uni0331
Encoding: 817 817 452
GlifName: uni0331
Width: 0
VWidth: 0
GlyphClass: 4
Flags: W
AnchorPoint: "base" 4 -163 mark 0
LayerCount: 2
Fore
SplineSet
-280 -170 m 257,0,-1
 -280 -248 l 257,1,-1
 280 -248 l 257,2,-1
 280 -170 l 257,3,-1
 -280 -170 l 257,0,-1
EndSplineSet
EndChar

StartChar: uni0335
Encoding: 821 821 453
GlifName: uni0335
Width: 0
VWidth: 0
GlyphClass: 4
Flags: W
AnchorPoint: "base" 4 -163 mark 0
LayerCount: 2
Fore
SplineSet
-575 1013 m 257,0,-1
 -575 935 l 257,1,-1
 -15 935 l 257,2,-1
 -15 1013 l 257,3,-1
 -575 1013 l 257,0,-1
EndSplineSet
EndChar

StartChar: uni0900
Encoding: 2304 2304 454
GlifName: uni0900
Width: 0
VWidth: 0
GlyphClass: 4
Flags: W
AnchorPoint: "abvm_deva" 42 1648 mark 0
LayerCount: 2
Fore
SplineSet
-402 2124 m 257,0,-1
 -402 1639 l 257,1,-1
 -203 1639 l 257,2,-1
 -203 2124 l 257,3,-1
 -402 2124 l 257,0,-1
-356 2124 m 257,4,-1
 -356 1925 l 257,5,-1
 278 1925 l 257,6,-1
 278 2124 l 257,7,-1
 -356 2124 l 257,4,-1
-90 1865 m 257,8,-1
 -90 1665 l 257,9,-1
 110 1665 l 257,10,-1
 110 1865 l 257,11,-1
 -90 1865 l 257,8,-1
202 2124 m 257,12,-1
 202 1636 l 257,13,-1
 402 1636 l 257,14,-1
 402 2124 l 257,15,-1
 202 2124 l 257,12,-1
EndSplineSet
EndChar

StartChar: uni0901
Encoding: 2305 2305 455
GlifName: uni0901
Width: 0
VWidth: 0
GlyphClass: 4
Flags: W
AnchorPoint: "abvm_deva" 0 1618 mark 0
LayerCount: 2
Fore
SplineSet
-402 2124 m 257,0,-1
 -402 1639 l 257,1,-1
 -203 1639 l 257,2,-1
 -203 2124 l 257,3,-1
 -402 2124 l 257,0,-1
-356 1842 m 257,4,-1
 -356 1641 l 257,5,-1
 278 1641 l 257,6,-1
 278 1842 l 257,7,-1
 -356 1842 l 257,4,-1
-100 2095 m 257,8,-1
 -100 1895 l 257,9,-1
 100 1895 l 257,10,-1
 100 2095 l 257,11,-1
 -100 2095 l 257,8,-1
202 2132 m 257,12,-1
 202 1641 l 257,13,-1
 402 1641 l 257,14,-1
 402 2132 l 257,15,-1
 202 2132 l 257,12,-1
EndSplineSet
EndChar

StartChar: uni0902
Encoding: 2306 2306 456
GlifName: uni0902
Width: 0
VWidth: 0
GlyphClass: 4
Flags: W
AnchorPoint: "abvm_deva" -301 1607 mark 0
LayerCount: 2
Fore
SplineSet
-100 1839 m 257,0,-1
 -100 1639 l 257,1,-1
 100 1639 l 257,2,-1
 100 1839 l 257,3,-1
 -100 1839 l 257,0,-1
EndSplineSet
EndChar

StartChar: uni0903
Encoding: 2307 2307 457
GlifName: uni0903
Width: 1024
VWidth: 0
GlyphClass: 2
Flags: W
LayerCount: 2
Fore
SplineSet
412 649 m 257,0,-1
 412 449 l 257,1,-1
 612 449 l 257,2,-1
 612 649 l 257,3,-1
 412 649 l 257,0,-1
412 1317 m 257,4,-1
 412 1117 l 257,5,-1
 612 1117 l 257,6,-1
 612 1317 l 257,7,-1
 412 1317 l 257,4,-1
EndSplineSet
EndChar

StartChar: uni0904
Encoding: 2308 2308 458
GlifName: uni0904
Width: 1024
VWidth: 0
GlyphClass: 2
Flags: W
AnchorPoint: "abvm_deva" 636 1972 basechar 0
LayerCount: 2
Fore
SplineSet
266 2155 m 257,0,-1
 266 1836 l 257,1,-1
 464 1836 l 257,2,-1
 464 2155 l 257,3,-1
 266 2155 l 257,0,-1
265 1967 m 257,4,-1
 265 1768 l 257,5,-1
 948 1768 l 257,6,-1
 948 1967 l 257,7,-1
 265 1967 l 257,4,-1
749 1956 m 257,8,-1
 749 1516 l 257,9,-1
 950 1516 l 257,10,-1
 950 1956 l 257,11,-1
 749 1956 l 257,8,-1
716 1548 m 257,12,-1
 716 1347 l 257,13,-1
 1025 1347 l 257,14,-1
 1025 1548 l 257,15,-1
 716 1548 l 257,12,-1
777 1419 m 257,16,-1
 777 0 l 257,17,-1
 976 0 l 257,18,-1
 976 1419 l 257,19,-1
 777 1419 l 257,16,-1
50 1548 m 257,20,-1
 50 1348 l 257,21,-1
 573 1348 l 257,22,-1
 573 1548 l 257,23,-1
 50 1548 l 257,20,-1
399 1548 m 257,24,-1
 399 140 l 257,25,-1
 599 140 l 257,26,-1
 599 1548 l 257,27,-1
 399 1548 l 257,24,-1
134 894 m 257,28,-1
 134 693 l 257,29,-1
 831 693 l 257,30,-1
 831 894 l 257,31,-1
 134 894 l 257,28,-1
25 201 m 257,32,-1
 25 0 l 257,33,-1
 599 0 l 257,34,-1
 599 201 l 257,35,-1
 25 201 l 257,32,-1
EndSplineSet
EndChar

StartChar: uni0905
Encoding: 2309 2309 459
GlifName: uni0905
Width: 1024
VWidth: 0
GlyphClass: 2
Flags: W
AnchorPoint: "abvm_deva" 852 1618 basechar 0
LayerCount: 2
Fore
SplineSet
716 1548 m 257,0,-1
 716 1348 l 257,1,-1
 1027 1348 l 257,2,-1
 1027 1548 l 257,3,-1
 716 1548 l 257,0,-1
777 1419 m 257,4,-1
 777 0 l 257,5,-1
 976 0 l 257,6,-1
 976 1419 l 257,7,-1
 777 1419 l 257,4,-1
50 1548 m 257,8,-1
 50 1348 l 257,9,-1
 573 1348 l 257,10,-1
 573 1548 l 257,11,-1
 50 1548 l 257,8,-1
399 1548 m 257,12,-1
 399 140 l 257,13,-1
 599 140 l 257,14,-1
 599 1548 l 257,15,-1
 399 1548 l 257,12,-1
134 894 m 257,16,-1
 134 693 l 257,17,-1
 831 693 l 257,18,-1
 831 894 l 257,19,-1
 134 894 l 257,16,-1
25 201 m 257,20,-1
 25 0 l 257,21,-1
 599 0 l 257,22,-1
 599 201 l 257,23,-1
 25 201 l 257,20,-1
EndSplineSet
EndChar

StartChar: uni0906
Encoding: 2310 2310 460
GlifName: uni0906
Width: 1024
VWidth: 0
GlyphClass: 2
Flags: W
AnchorPoint: "abvm_deva" 762 1606 basechar 0
LayerCount: 2
Fore
SplineSet
528 1548 m 257,0,-1
 528 1348 l 257,1,-1
 1025 1348 l 257,2,-1
 1025 1548 l 257,3,-1
 528 1548 l 257,0,-1
544 1419 m 257,4,-1
 544 0 l 257,5,-1
 743 0 l 257,6,-1
 743 1419 l 257,7,-1
 544 1419 l 257,4,-1
25 1548 m 257,8,-1
 25 1348 l 257,9,-1
 385 1348 l 257,10,-1
 385 1548 l 257,11,-1
 25 1548 l 257,8,-1
211 1548 m 257,12,-1
 211 140 l 257,13,-1
 411 140 l 257,14,-1
 411 1548 l 257,15,-1
 211 1548 l 257,12,-1
109 894 m 257,16,-1
 109 693 l 257,17,-1
 643 693 l 257,18,-1
 643 894 l 257,19,-1
 109 894 l 257,16,-1
0 201 m 257,20,-1
 0 0 l 257,21,-1
 411 0 l 257,22,-1
 411 201 l 257,23,-1
 0 201 l 257,20,-1
811 1420 m 257,24,-1
 811 0 l 257,25,-1
 1010 0 l 257,26,-1
 1010 1420 l 257,27,-1
 811 1420 l 257,24,-1
EndSplineSet
EndChar

StartChar: uni0907
Encoding: 2311 2311 461
GlifName: uni0907
Width: 1024
VWidth: 0
GlyphClass: 2
Flags: W
AnchorPoint: "abvm_deva" 630 1600 basechar 0
LayerCount: 2
Fore
SplineSet
0 1548 m 257,0,-1
 0 1348 l 257,1,-1
 1025 1348 l 257,2,-1
 1025 1548 l 257,3,-1
 0 1548 l 257,0,-1
546 1530 m 257,4,-1
 546 1110 l 257,5,-1
 746 1110 l 257,6,-1
 746 1530 l 257,7,-1
 546 1530 l 257,4,-1
165 1205 m 257,8,-1
 165 1004 l 257,9,-1
 746 1004 l 257,10,-1
 746 1205 l 257,11,-1
 165 1205 l 257,8,-1
165 1181 m 257,12,-1
 165 738 l 257,13,-1
 335 738 l 257,14,-1
 335 1181 l 257,15,-1
 165 1181 l 257,12,-1
165 881 m 257,16,-1
 165 681 l 257,17,-1
 760 681 l 257,18,-1
 760 881 l 257,19,-1
 165 881 l 257,16,-1
639 881 m 257,20,-1
 639 278 l 257,21,-1
 838 278 l 257,22,-1
 838 881 l 257,23,-1
 639 881 l 257,20,-1
143 298 m 257,24,-1
 143 97 l 257,25,-1
 838 97 l 257,26,-1
 838 298 l 257,27,-1
 143 298 l 257,24,-1
259 298 m 257,28,-1
 259 -244 l 257,29,-1
 459 -244 l 257,30,-1
 459 298 l 257,31,-1
 259 298 l 257,28,-1
EndSplineSet
EndChar

StartChar: uni0908
Encoding: 2312 2312 462
GlifName: uni0908
Width: 1024
VWidth: 0
GlyphClass: 2
Flags: W
AnchorPoint: "abvm_deva" 780 1624 basechar 0
LayerCount: 2
Fore
SplineSet
0 1548 m 257,0,-1
 0 1348 l 257,1,-1
 1025 1348 l 257,2,-1
 1025 1548 l 257,3,-1
 0 1548 l 257,0,-1
546 1548 m 257,4,-1
 546 1104 l 257,5,-1
 746 1104 l 257,6,-1
 746 1548 l 257,7,-1
 546 1548 l 257,4,-1
165 1205 m 257,8,-1
 165 1004 l 257,9,-1
 746 1004 l 257,10,-1
 746 1205 l 257,11,-1
 165 1205 l 257,8,-1
165 1181 m 257,12,-1
 165 738 l 257,13,-1
 365 738 l 257,14,-1
 365 1181 l 257,15,-1
 165 1181 l 257,12,-1
165 881 m 257,16,-1
 165 681 l 257,17,-1
 760 681 l 257,18,-1
 760 881 l 257,19,-1
 165 881 l 257,16,-1
657 881 m 257,20,-1
 657 285 l 257,21,-1
 838 285 l 257,22,-1
 838 881 l 257,23,-1
 657 881 l 257,20,-1
143 298 m 257,24,-1
 143 97 l 257,25,-1
 841 97 l 257,26,-1
 841 298 l 257,27,-1
 143 298 l 257,24,-1
259 298 m 257,28,-1
 259 -244 l 257,29,-1
 482 -244 l 257,30,-1
 482 298 l 257,31,-1
 259 298 l 257,28,-1
268 1770 m 257,32,-1
 515 1423 l 257,33,-1
 678 1537 l 257,34,-1
 430 1886 l 257,35,-1
 268 1770 l 257,32,-1
EndSplineSet
EndChar

StartChar: uni0909
Encoding: 2313 2313 463
GlifName: uni0909
Width: 1024
VWidth: 0
GlyphClass: 2
Flags: W
AnchorPoint: "abvm_deva" 558 1606 basechar 0
LayerCount: 2
Fore
SplineSet
0 1548 m 257,0,-1
 0 1348 l 257,1,-1
 1026 1348 l 257,2,-1
 1026 1548 l 257,3,-1
 0 1548 l 257,0,-1
480 1530 m 257,4,-1
 480 1001 l 257,5,-1
 679 1001 l 257,6,-1
 679 1530 l 257,7,-1
 480 1530 l 257,4,-1
235 1044 m 257,8,-1
 235 845 l 257,9,-1
 877 845 l 257,10,-1
 877 1044 l 257,11,-1
 235 1044 l 257,8,-1
678 994 m 257,12,-1
 678 0 l 257,13,-1
 878 0 l 257,14,-1
 878 994 l 257,15,-1
 678 994 l 257,12,-1
130 201 m 257,16,-1
 130 0 l 257,17,-1
 867 0 l 257,18,-1
 867 201 l 257,19,-1
 130 201 l 257,16,-1
130 363 m 257,20,-1
 130 36 l 257,21,-1
 330 36 l 257,22,-1
 330 363 l 257,23,-1
 130 363 l 257,20,-1
EndSplineSet
EndChar

StartChar: uni090A
Encoding: 2314 2314 464
GlifName: uni090A_
Width: 1024
VWidth: 0
GlyphClass: 2
Flags: W
AnchorPoint: "abvm_deva" 516 1612 basechar 0
LayerCount: 2
Fore
SplineSet
0 1548 m 257,0,-1
 0 1348 l 257,1,-1
 1025 1348 l 257,2,-1
 1025 1548 l 257,3,-1
 0 1548 l 257,0,-1
308 1530 m 257,4,-1
 308 1001 l 257,5,-1
 507 1001 l 257,6,-1
 507 1530 l 257,7,-1
 308 1530 l 257,4,-1
151 1044 m 257,8,-1
 151 845 l 257,9,-1
 974 845 l 257,10,-1
 974 1044 l 257,11,-1
 151 1044 l 257,8,-1
487 994 m 257,12,-1
 487 11 l 257,13,-1
 687 11 l 257,14,-1
 687 994 l 257,15,-1
 487 994 l 257,12,-1
46 204 m 257,16,-1
 46 5 l 257,17,-1
 684 5 l 257,18,-1
 684 204 l 257,19,-1
 46 204 l 257,16,-1
46 366 m 257,20,-1
 46 39 l 257,21,-1
 246 39 l 257,22,-1
 246 366 l 257,23,-1
 46 366 l 257,20,-1
775 946 m 257,24,-1
 775 217 l 257,25,-1
 974 217 l 257,26,-1
 974 946 l 257,27,-1
 775 946 l 257,24,-1
EndSplineSet
EndChar

StartChar: uni090B
Encoding: 2315 2315 465
GlifName: uni090B_
Width: 1024
VWidth: 0
GlyphClass: 2
Flags: W
AnchorPoint: "abvm_deva" 600 1600 basechar 0
LayerCount: 2
Fore
SplineSet
0 1548 m 257,0,-1
 0 1346 l 257,1,-1
 1027 1346 l 257,2,-1
 1027 1548 l 257,3,-1
 0 1548 l 257,0,-1
518 1525 m 257,4,-1
 518 0 l 257,5,-1
 717 0 l 257,6,-1
 717 1525 l 257,7,-1
 518 1525 l 257,4,-1
22 1044 m 257,8,-1
 22 845 l 257,9,-1
 326 845 l 257,10,-1
 326 1044 l 257,11,-1
 22 1044 l 257,8,-1
511 496 m 257,12,-1
 118 329 l 257,13,-1
 200 136 l 257,14,-1
 593 303 l 257,15,-1
 511 496 l 257,12,-1
326 1044 m 257,16,-1
 326 846 l 257,17,-1
 608 742 l 257,18,-1
 608 944 l 257,19,-1
 326 1044 l 257,16,-1
695 897 m 257,20,-1
 695 699 l 257,21,-1
 1010 699 l 257,22,-1
 1010 897 l 257,23,-1
 695 897 l 257,20,-1
788 897 m 257,24,-1
 788 262 l 257,25,-1
 987 262 l 257,26,-1
 987 897 l 257,27,-1
 788 897 l 257,24,-1
864 462 m 257,28,-1
 864 262 l 257,29,-1
 1028 262 l 257,30,-1
 1028 462 l 257,31,-1
 864 462 l 257,28,-1
EndSplineSet
EndChar

StartChar: uni090C
Encoding: 2316 2316 466
GlifName: uni090C_
Width: 1024
VWidth: 0
GlyphClass: 2
Flags: W
AnchorPoint: "abvm_deva" 618 1588 basechar 0
LayerCount: 2
Fore
SplineSet
0 1548 m 257,0,-1
 0 1350 l 257,1,-1
 1026 1350 l 257,2,-1
 1026 1548 l 257,3,-1
 0 1548 l 257,0,-1
557 1524 m 257,4,-1
 557 689 l 257,5,-1
 757 689 l 257,6,-1
 757 1524 l 257,7,-1
 557 1524 l 257,4,-1
945 791 m 257,8,-1
 41 791 l 257,9,-1
 41 590 l 257,10,-1
 945 590 l 257,11,-1
 945 791 l 257,8,-1
42 777 m 257,12,-1
 42 252 l 257,13,-1
 243 252 l 257,14,-1
 243 777 l 257,15,-1
 42 777 l 257,12,-1
393 791 m 257,16,-1
 393 433 l 257,17,-1
 594 433 l 257,18,-1
 594 791 l 257,19,-1
 393 791 l 257,16,-1
745 791 m 257,20,-1
 745 72 l 257,21,-1
 945 72 l 257,22,-1
 945 791 l 257,23,-1
 745 791 l 257,20,-1
820 260 m 257,24,-1
 820 72 l 257,25,-1
 1021 72 l 257,26,-1
 1021 260 l 257,27,-1
 820 260 l 257,24,-1
EndSplineSet
EndChar

StartChar: uni090D
Encoding: 2317 2317 467
GlifName: uni090D_
Width: 1024
VWidth: 0
GlyphClass: 2
Flags: W
AnchorPoint: "abvm_deva" 474 2104 basechar 0
LayerCount: 2
Fore
SplineSet
0 1548 m 257,0,-1
 0 1348 l 257,1,-1
 1026 1348 l 257,2,-1
 1026 1548 l 257,3,-1
 0 1548 l 257,0,-1
729 1548 m 257,4,-1
 729 779 l 257,5,-1
 928 779 l 257,6,-1
 928 1548 l 257,7,-1
 729 1548 l 257,4,-1
635 839 m 257,8,-1
 635 639 l 257,9,-1
 928 639 l 257,10,-1
 928 839 l 257,11,-1
 635 839 l 257,8,-1
142 1542 m 257,12,-1
 142 338 l 257,13,-1
 341 338 l 257,14,-1
 341 1542 l 257,15,-1
 142 1542 l 257,12,-1
142 496 m 257,16,-1
 142 297 l 257,17,-1
 749 297 l 257,18,-1
 749 496 l 257,19,-1
 142 496 l 257,16,-1
550 358 m 257,20,-1
 550 -98 l 257,21,-1
 749 -98 l 257,22,-1
 749 358 l 257,23,-1
 550 358 l 257,20,-1
387 101 m 257,24,-1
 387 -98 l 257,25,-1
 747 -98 l 257,26,-1
 747 101 l 257,27,-1
 387 101 l 257,24,-1
157 2124 m 257,28,-1
 157 1639 l 257,29,-1
 356 1639 l 257,30,-1
 356 2124 l 257,31,-1
 157 2124 l 257,28,-1
203 1840 m 257,32,-1
 203 1641 l 257,33,-1
 797 1641 l 257,34,-1
 797 1840 l 257,35,-1
 203 1840 l 257,32,-1
622 2132 m 257,36,-1
 622 1641 l 257,37,-1
 821 1641 l 257,38,-1
 821 2132 l 257,39,-1
 622 2132 l 257,36,-1
EndSplineSet
EndChar

StartChar: uni090E
Encoding: 2318 2318 468
GlifName: uni090E_
Width: 1024
VWidth: 0
GlyphClass: 2
Flags: W
AnchorPoint: "abvm_deva" 1056 1606 basechar 0
LayerCount: 2
Fore
SplineSet
0 1548 m 257,0,-1
 0 1348 l 257,1,-1
 1026 1348 l 257,2,-1
 1026 1548 l 257,3,-1
 0 1548 l 257,0,-1
729 1403 m 257,4,-1
 729 779 l 257,5,-1
 928 779 l 257,6,-1
 928 1403 l 257,7,-1
 729 1403 l 257,4,-1
635 979 m 257,8,-1
 635 779 l 257,9,-1
 928 779 l 257,10,-1
 928 979 l 257,11,-1
 635 979 l 257,8,-1
142 1542 m 257,12,-1
 142 338 l 257,13,-1
 341 338 l 257,14,-1
 341 1542 l 257,15,-1
 142 1542 l 257,12,-1
142 358 m 257,16,-1
 142 159 l 257,17,-1
 742 159 l 257,18,-1
 742 358 l 257,19,-1
 142 358 l 257,16,-1
541 358 m 257,20,-1
 541 -98 l 257,21,-1
 742 -98 l 257,22,-1
 742 358 l 257,23,-1
 541 358 l 257,20,-1
382 -38 m 257,24,-1
 382 -238 l 257,25,-1
 742 -238 l 257,26,-1
 742 -38 l 257,27,-1
 382 -38 l 257,24,-1
270 2062 m 257,28,-1
 270 1823 l 257,29,-1
 470 1823 l 257,30,-1
 470 2062 l 257,31,-1
 270 2062 l 257,28,-1
269 1868 m 257,32,-1
 269 1667 l 257,33,-1
 952 1667 l 257,34,-1
 952 1868 l 257,35,-1
 269 1868 l 257,32,-1
750 1858 m 257,36,-1
 750 1537 l 257,37,-1
 952 1537 l 257,38,-1
 952 1858 l 257,39,-1
 750 1858 l 257,36,-1
EndSplineSet
EndChar

StartChar: uni090F
Encoding: 2319 2319 469
GlifName: uni090F_
Width: 1024
VWidth: 0
GlyphClass: 2
Flags: W
AnchorPoint: "abvm_deva" 522 1630 basechar 0
LayerCount: 2
Fore
SplineSet
0 1548 m 257,0,-1
 0 1348 l 257,1,-1
 1026 1348 l 257,2,-1
 1026 1548 l 257,3,-1
 0 1548 l 257,0,-1
724 1548 m 257,4,-1
 724 782 l 257,5,-1
 924 782 l 257,6,-1
 924 1548 l 257,7,-1
 724 1548 l 257,4,-1
631 979 m 257,8,-1
 631 779 l 257,9,-1
 924 779 l 257,10,-1
 924 979 l 257,11,-1
 631 979 l 257,8,-1
138 1542 m 257,12,-1
 138 338 l 257,13,-1
 338 338 l 257,14,-1
 338 1542 l 257,15,-1
 138 1542 l 257,12,-1
138 497 m 257,16,-1
 138 297 l 257,17,-1
 738 297 l 257,18,-1
 738 497 l 257,19,-1
 138 497 l 257,16,-1
545 473 m 257,20,-1
 545 -98 l 257,21,-1
 745 -98 l 257,22,-1
 745 473 l 257,23,-1
 545 473 l 257,20,-1
383 102 m 257,24,-1
 383 -98 l 257,25,-1
 743 -98 l 257,26,-1
 743 102 l 257,27,-1
 383 102 l 257,24,-1
EndSplineSet
EndChar

StartChar: uni0910
Encoding: 2320 2320 470
GlifName: uni0910
Width: 1024
VWidth: 0
GlyphClass: 2
Flags: W
AnchorPoint: "abvm_deva" 936 1702 basechar 0
LayerCount: 2
Fore
SplineSet
0 1548 m 257,0,-1
 0 1348 l 257,1,-1
 1026 1348 l 257,2,-1
 1026 1548 l 257,3,-1
 0 1548 l 257,0,-1
724 1548 m 257,4,-1
 724 779 l 257,5,-1
 924 779 l 257,6,-1
 924 1548 l 257,7,-1
 724 1548 l 257,4,-1
631 979 m 257,8,-1
 631 779 l 257,9,-1
 924 779 l 257,10,-1
 924 979 l 257,11,-1
 631 979 l 257,8,-1
138 1542 m 257,12,-1
 138 338 l 257,13,-1
 338 338 l 257,14,-1
 338 1542 l 257,15,-1
 138 1542 l 257,12,-1
138 497 m 257,16,-1
 138 297 l 257,17,-1
 738 297 l 257,18,-1
 738 497 l 257,19,-1
 138 497 l 257,16,-1
538 473 m 257,20,-1
 538 -98 l 257,21,-1
 738 -98 l 257,22,-1
 738 473 l 257,23,-1
 538 473 l 257,20,-1
383 102 m 257,24,-1
 383 -98 l 257,25,-1
 743 -98 l 257,26,-1
 743 102 l 257,27,-1
 383 102 l 257,24,-1
442 1883 m 257,28,-1
 758 1433 l 257,29,-1
 922 1548 l 257,30,-1
 606 1998 l 257,31,-1
 442 1883 l 257,28,-1
EndSplineSet
EndChar

StartChar: uni0911
Encoding: 2321 2321 471
GlifName: uni0911
Width: 1024
VWidth: 0
GlyphClass: 2
Flags: W
AnchorPoint: "abvm_deva" 774 2170 basechar 0
LayerCount: 2
Fore
SplineSet
528 1548 m 257,0,-1
 528 1348 l 257,1,-1
 1025 1348 l 257,2,-1
 1025 1548 l 257,3,-1
 528 1548 l 257,0,-1
544 1419 m 257,4,-1
 544 0 l 257,5,-1
 743 0 l 257,6,-1
 743 1419 l 257,7,-1
 544 1419 l 257,4,-1
25 1548 m 257,8,-1
 25 1348 l 257,9,-1
 385 1348 l 257,10,-1
 385 1548 l 257,11,-1
 25 1548 l 257,8,-1
211 1548 m 257,12,-1
 211 140 l 257,13,-1
 411 140 l 257,14,-1
 411 1548 l 257,15,-1
 211 1548 l 257,12,-1
109 894 m 257,16,-1
 109 693 l 257,17,-1
 643 693 l 257,18,-1
 643 894 l 257,19,-1
 109 894 l 257,16,-1
0 201 m 257,20,-1
 0 0 l 257,21,-1
 411 0 l 257,22,-1
 411 201 l 257,23,-1
 0 201 l 257,20,-1
811 1420 m 257,24,-1
 811 0 l 257,25,-1
 1010 0 l 257,26,-1
 1010 1420 l 257,27,-1
 811 1420 l 257,24,-1
532 2085 m 257,28,-1
 532 1639 l 257,29,-1
 732 1639 l 257,30,-1
 732 2085 l 257,31,-1
 532 2085 l 257,28,-1
532 1839 m 257,32,-1
 532 1638 l 257,33,-1
 1023 1638 l 257,34,-1
 1023 1839 l 257,35,-1
 532 1839 l 257,32,-1
823 2083 m 257,36,-1
 823 1641 l 257,37,-1
 1023 1641 l 257,38,-1
 1023 2083 l 257,39,-1
 823 2083 l 257,36,-1
EndSplineSet
EndChar

StartChar: uni0912
Encoding: 2322 2322 472
GlifName: uni0912
Width: 1024
VWidth: 0
GlyphClass: 2
Flags: W
AnchorPoint: "abvm_deva" 1061 1628 basechar 0
LayerCount: 2
Fore
SplineSet
528 1548 m 257,0,-1
 528 1348 l 257,1,-1
 1025 1348 l 257,2,-1
 1025 1548 l 257,3,-1
 528 1548 l 257,0,-1
549 1419 m 257,4,-1
 549 0 l 257,5,-1
 748 0 l 257,6,-1
 748 1419 l 257,7,-1
 549 1419 l 257,4,-1
25 1548 m 257,8,-1
 25 1348 l 257,9,-1
 385 1348 l 257,10,-1
 385 1548 l 257,11,-1
 25 1548 l 257,8,-1
211 1548 m 257,12,-1
 211 140 l 257,13,-1
 411 140 l 257,14,-1
 411 1548 l 257,15,-1
 211 1548 l 257,12,-1
109 894 m 257,16,-1
 109 693 l 257,17,-1
 643 693 l 257,18,-1
 643 894 l 257,19,-1
 109 894 l 257,16,-1
0 201 m 257,20,-1
 0 0 l 257,21,-1
 411 0 l 257,22,-1
 411 201 l 257,23,-1
 0 201 l 257,20,-1
811 1420 m 257,24,-1
 811 0 l 257,25,-1
 1010 0 l 257,26,-1
 1010 1420 l 257,27,-1
 811 1420 l 257,24,-1
266 2155 m 257,28,-1
 266 1836 l 257,29,-1
 464 1836 l 257,30,-1
 464 2155 l 257,31,-1
 266 2155 l 257,28,-1
265 1967 m 257,32,-1
 265 1768 l 257,33,-1
 948 1768 l 257,34,-1
 948 1967 l 257,35,-1
 265 1967 l 257,32,-1
749 1956 m 257,36,-1
 749 1516 l 257,37,-1
 950 1516 l 257,38,-1
 950 1956 l 257,39,-1
 749 1956 l 257,36,-1
EndSplineSet
EndChar

StartChar: uni0913
Encoding: 2323 2323 473
GlifName: uni0913
Width: 1024
VWidth: 0
GlyphClass: 2
Flags: W
AnchorPoint: "abvm_deva" 1032 1582 basechar 0
LayerCount: 2
Fore
SplineSet
528 1548 m 257,0,-1
 528 1348 l 257,1,-1
 1025 1348 l 257,2,-1
 1025 1548 l 257,3,-1
 528 1548 l 257,0,-1
544 1419 m 257,4,-1
 544 0 l 257,5,-1
 743 0 l 257,6,-1
 743 1419 l 257,7,-1
 544 1419 l 257,4,-1
25 1548 m 257,8,-1
 25 1348 l 257,9,-1
 385 1348 l 257,10,-1
 385 1548 l 257,11,-1
 25 1548 l 257,8,-1
211 1548 m 257,12,-1
 211 140 l 257,13,-1
 411 140 l 257,14,-1
 411 1548 l 257,15,-1
 211 1548 l 257,12,-1
109 894 m 257,16,-1
 109 693 l 257,17,-1
 643 693 l 257,18,-1
 643 894 l 257,19,-1
 109 894 l 257,16,-1
5 201 m 257,20,-1
 5 0 l 257,21,-1
 411 0 l 257,22,-1
 411 201 l 257,23,-1
 5 201 l 257,20,-1
811 1423 m 257,24,-1
 811 0 l 257,25,-1
 1010 0 l 257,26,-1
 1010 1423 l 257,27,-1
 811 1423 l 257,24,-1
639 1768 m 257,28,-1
 800 1458 l 257,29,-1
 978 1548 l 257,30,-1
 816 1861 l 257,31,-1
 639 1768 l 257,28,-1
EndSplineSet
EndChar

StartChar: uni0914
Encoding: 2324 2324 474
GlifName: uni0914
Width: 1024
VWidth: 0
GlyphClass: 2
Flags: W
AnchorPoint: "abvm_deva" 1050 1564 basechar 0
LayerCount: 2
Fore
SplineSet
528 1548 m 257,0,-1
 528 1348 l 257,1,-1
 1025 1348 l 257,2,-1
 1025 1548 l 257,3,-1
 528 1548 l 257,0,-1
544 1419 m 257,4,-1
 544 0 l 257,5,-1
 743 0 l 257,6,-1
 743 1419 l 257,7,-1
 544 1419 l 257,4,-1
25 1548 m 257,8,-1
 25 1348 l 257,9,-1
 385 1348 l 257,10,-1
 385 1548 l 257,11,-1
 25 1548 l 257,8,-1
211 1548 m 257,12,-1
 211 140 l 257,13,-1
 411 140 l 257,14,-1
 411 1548 l 257,15,-1
 211 1548 l 257,12,-1
109 894 m 257,16,-1
 109 693 l 257,17,-1
 643 693 l 257,18,-1
 643 894 l 257,19,-1
 109 894 l 257,16,-1
12 201 m 257,20,-1
 12 0 l 257,21,-1
 411 0 l 257,22,-1
 411 201 l 257,23,-1
 12 201 l 257,20,-1
811 1420 m 257,24,-1
 811 0 l 257,25,-1
 1010 0 l 257,26,-1
 1010 1420 l 257,27,-1
 811 1420 l 257,24,-1
339 1750 m 257,28,-1
 619 1548 l 257,29,-1
 911 1548 l 257,30,-1
 475 1903 l 257,31,-1
 339 1750 l 257,28,-1
728 1949 m 257,32,-1
 791 1522 l 257,33,-1
 1003 1548 l 257,34,-1
 925 1988 l 257,35,-1
 728 1949 l 257,32,-1
EndSplineSet
EndChar

StartChar: uni0915
Encoding: 2325 2325 475
GlifName: uni0915
Width: 1024
VWidth: 0
GlyphClass: 2
Flags: W
AnchorPoint: "abvm_deva" 615 1617 basechar 0
AnchorPoint: "blwm_deva" 616 -25 basechar 0
LayerCount: 2
Fore
SplineSet
0 1548 m 257,0,-1
 0 1348 l 257,1,-1
 1025 1348 l 257,2,-1
 1025 1548 l 257,3,-1
 0 1548 l 257,0,-1
522 1516 m 257,4,-1
 522 10 l 257,5,-1
 722 10 l 257,6,-1
 722 1516 l 257,7,-1
 522 1516 l 257,4,-1
132 1029 m 257,8,-1
 132 828 l 257,9,-1
 495 828 l 257,10,-1
 495 1029 l 257,11,-1
 132 1029 l 257,8,-1
132 989 m 257,12,-1
 132 443 l 257,13,-1
 330 443 l 257,14,-1
 330 989 l 257,15,-1
 132 989 l 257,12,-1
150 647 m 257,16,-1
 150 443 l 257,17,-1
 576 443 l 257,18,-1
 576 647 l 257,19,-1
 150 647 l 257,16,-1
628 874 m 257,20,-1
 628 675 l 257,21,-1
 934 675 l 257,22,-1
 934 874 l 257,23,-1
 628 874 l 257,20,-1
785 874 m 257,24,-1
 785 582 l 257,25,-1
 984 582 l 257,26,-1
 984 874 l 257,27,-1
 785 874 l 257,24,-1
EndSplineSet
EndChar

StartChar: uni0915_uni0930_uni094D.vatu
Encoding: 65549 -1 476
GlifName: uni0915_uni0930_uni094D_.vatu
Width: 1024
VWidth: 0
GlyphClass: 3
Flags: W
AnchorPoint: "abvm_deva" 670 1600 basechar 0
AnchorPoint: "blwm_deva" 638 -59 basechar 0
LayerCount: 2
Fore
SplineSet
0 1548 m 257,0,-1
 0 1347 l 257,1,-1
 1016 1347 l 257,2,-1
 1016 1548 l 257,3,-1
 0 1548 l 257,0,-1
522 1516 m 257,4,-1
 522 10 l 257,5,-1
 722 10 l 257,6,-1
 722 1516 l 257,7,-1
 522 1516 l 257,4,-1
132 1029 m 257,8,-1
 132 828 l 257,9,-1
 614 828 l 257,10,-1
 614 1029 l 257,11,-1
 132 1029 l 257,8,-1
135 989 m 257,12,-1
 135 443 l 257,13,-1
 333 443 l 257,14,-1
 333 989 l 257,15,-1
 135 989 l 257,12,-1
150 643 m 257,16,-1
 150 439 l 257,17,-1
 576 439 l 257,18,-1
 576 643 l 257,19,-1
 150 643 l 257,16,-1
628 874 m 257,20,-1
 628 675 l 257,21,-1
 934 675 l 257,22,-1
 934 874 l 257,23,-1
 628 874 l 257,20,-1
785 879 m 257,24,-1
 785 587 l 257,25,-1
 984 587 l 257,26,-1
 984 879 l 257,27,-1
 785 879 l 257,24,-1
75 0 m 257,28,-1
 332 0 l 257,29,-1
 672 215 l 257,30,-1
 672 416 l 257,31,-1
 75 0 l 257,28,-1
EndSplineSet
Ligature2: "rkrfRakarVariantsinDevanagari2lookup0 subtable" uni0915 uni094D uni0930
EndChar

StartChar: uni0915_uni094D.half
Encoding: 65550 -1 477
GlifName: uni0915_uni094D_.half
Width: 1024
VWidth: 0
GlyphClass: 2
Flags: W
AnchorPoint: "abvm_deva" 670 1600 basechar 0
AnchorPoint: "blwm_deva" 638 -59 basechar 0
LayerCount: 2
Fore
SplineSet
0 1548 m 257,0,-1
 0 1347 l 257,1,-1
 1016 1347 l 257,2,-1
 1016 1548 l 257,3,-1
 0 1548 l 257,0,-1
522 1516 m 257,4,-1
 522 10 l 257,5,-1
 722 10 l 257,6,-1
 722 1516 l 257,7,-1
 522 1516 l 257,4,-1
132 1029 m 257,8,-1
 132 828 l 257,9,-1
 614 828 l 257,10,-1
 614 1029 l 257,11,-1
 132 1029 l 257,8,-1
135 989 m 257,12,-1
 135 443 l 257,13,-1
 333 443 l 257,14,-1
 333 989 l 257,15,-1
 135 989 l 257,12,-1
150 643 m 257,16,-1
 150 439 l 257,17,-1
 576 439 l 257,18,-1
 576 643 l 257,19,-1
 150 643 l 257,16,-1
628 874 m 257,20,-1
 628 675 l 257,21,-1
 1013 675 l 257,22,-1
 1013 874 l 257,23,-1
 628 874 l 257,20,-1
EndSplineSet
Ligature2: "halfHalfFormsinDevanagari2lookup0 subtable" uni0915 uni094D
EndChar

StartChar: uni0915_uni094D.haln
Encoding: 65551 -1 478
GlifName: uni0915_uni094D_.haln
Width: 1024
VWidth: 0
GlyphClass: 3
Flags: W
AnchorPoint: "abvm_deva" 670 1600 basechar 0
AnchorPoint: "blwm_deva" 638 -59 basechar 0
LayerCount: 2
Fore
SplineSet
1 1548 m 257,0,-1
 -1 1348 l 257,1,-1
 1026 1348 l 257,2,-1
 1028 1548 l 257,3,-1
 1 1548 l 257,0,-1
525 1516 m 257,4,-1
 508 10 l 257,5,-1
 708 10 l 257,6,-1
 725 1516 l 257,7,-1
 525 1516 l 257,4,-1
129 1029 m 257,8,-1
 127 828 l 257,9,-1
 490 828 l 257,10,-1
 492 1029 l 257,11,-1
 129 1029 l 257,8,-1
129 989 m 257,12,-1
 122 443 l 257,13,-1
 320 443 l 257,14,-1
 327 989 l 257,15,-1
 129 989 l 257,12,-1
143 647 m 257,16,-1
 140 443 l 257,17,-1
 566 443 l 257,18,-1
 569 647 l 257,19,-1
 143 647 l 257,16,-1
623 874 m 257,20,-1
 621 675 l 257,21,-1
 927 675 l 257,22,-1
 929 874 l 257,23,-1
 623 874 l 257,20,-1
780 874 m 257,24,-1
 777 582 l 257,25,-1
 976 582 l 257,26,-1
 979 874 l 257,27,-1
 780 874 l 257,24,-1
717 -22 m 257,28,-1
 714 -218 l 257,29,-1
 1071 -218 l 257,30,-1
 1074 -22 l 257,31,-1
 717 -22 l 257,28,-1
931 -183 m 257,32,-1
 1263 -588 l 257,33,-1
 1409 -425 l 257,34,-1
 1076 -21 l 257,35,-1
 931 -183 l 257,32,-1
EndSplineSet
Ligature2: "halnHalantFormsinDevanagari2lookup0 subtable" uni0915 uni094D
EndChar

StartChar: uni0915_uni094D_uni0937.akhn
Encoding: 65552 -1 479
GlifName: uni0915_uni094D__uni0937.akhn
Width: 1024
VWidth: 0
GlyphClass: 3
Flags: W
AnchorPoint: "abvm_deva" 850 1594 basechar 0
AnchorPoint: "blwm_deva" 818 -65 basechar 0
LayerCount: 2
Fore
SplineSet
665 1548 m 257,0,-1
 665 1351 l 257,1,-1
 1024 1351 l 257,2,-1
 1024 1548 l 257,3,-1
 665 1548 l 257,0,-1
722 1511 m 257,4,-1
 722 0 l 257,5,-1
 921 0 l 257,6,-1
 921 1511 l 257,7,-1
 722 1511 l 257,4,-1
48 1078 m 257,8,-1
 48 878 l 257,9,-1
 921 878 l 257,10,-1
 921 1078 l 257,11,-1
 48 1078 l 257,8,-1
47 1023 m 257,12,-1
 248 1023 l 257,13,-1
 248 1422 l 257,14,-1
 47 1422 l 257,15,-1
 47 1023 l 257,12,-1
48 1435 m 257,16,-1
 48 1235 l 257,17,-1
 567 1235 l 257,18,-1
 567 1435 l 257,19,-1
 48 1435 l 257,16,-1
368 1422 m 257,20,-1
 368 882 l 257,21,-1
 566 882 l 257,22,-1
 566 1422 l 257,23,-1
 368 1422 l 257,20,-1
158 635 m 257,24,-1
 355 635 l 257,25,-1
 565 880 l 257,26,-1
 367 880 l 257,27,-1
 158 635 l 257,24,-1
158 635 m 257,28,-1
 158 200 l 257,29,-1
 357 200 l 257,30,-1
 357 635 l 257,31,-1
 158 635 l 257,28,-1
158 367 m 257,32,-1
 158 166 l 257,33,-1
 882 166 l 257,34,-1
 882 367 l 257,35,-1
 158 367 l 257,32,-1
EndSplineSet
Ligature2: "akhnAkhandinDevanagari2lookup0 subtable" uni0915 uni094D uni0937
EndChar

StartChar: uni0915_uni094D_uni0937.half
Encoding: 65553 -1 480
GlifName: uni0915_uni094D__uni0937.half
Width: 1024
VWidth: 0
GlyphClass: 3
Flags: W
AnchorPoint: "abvm_deva" 670 1600 basechar 0
AnchorPoint: "blwm_deva" 638 -59 basechar 0
LayerCount: 2
Fore
SplineSet
655 1548 m 257,0,-1
 655 1351 l 257,1,-1
 1014 1351 l 257,2,-1
 1014 1548 l 257,3,-1
 655 1548 l 257,0,-1
38 1078 m 257,4,-1
 38 878 l 257,5,-1
 1111 878 l 257,6,-1
 1111 1078 l 257,7,-1
 38 1078 l 257,4,-1
37 1023 m 257,8,-1
 238 1023 l 257,9,-1
 238 1422 l 257,10,-1
 37 1422 l 257,11,-1
 37 1023 l 257,8,-1
38 1435 m 257,12,-1
 38 1235 l 257,13,-1
 557 1235 l 257,14,-1
 557 1435 l 257,15,-1
 38 1435 l 257,12,-1
358 1422 m 257,16,-1
 358 882 l 257,17,-1
 556 882 l 257,18,-1
 556 1422 l 257,19,-1
 358 1422 l 257,16,-1
148 635 m 257,20,-1
 345 635 l 257,21,-1
 555 880 l 257,22,-1
 357 880 l 257,23,-1
 148 635 l 257,20,-1
148 635 m 257,24,-1
 148 200 l 257,25,-1
 347 200 l 257,26,-1
 347 635 l 257,27,-1
 148 635 l 257,24,-1
148 367 m 257,28,-1
 148 166 l 257,29,-1
 1072 166 l 257,30,-1
 1072 367 l 257,31,-1
 148 367 l 257,28,-1
EndSplineSet
Ligature2: "halfHalfFormsinDevanagari2lookup0 subtable" uni0915_uni094D_uni0937.akhn uni094D
EndChar

StartChar: uni0915_uni094D_uni0937_uni094D
Encoding: 65554 -1 481
GlifName: uni0915_uni094D__uni0937_uni094D_
Width: 1024
VWidth: 0
GlyphClass: 2
Flags: W
AnchorPoint: "abvm_deva" 766 1600 basechar 0
AnchorPoint: "blwm_deva" 734 -59 basechar 0
LayerCount: 2
Fore
SplineSet
657 1548 m 257,0,-1
 654 1351 l 257,1,-1
 1013 1351 l 257,2,-1
 1016 1548 l 257,3,-1
 657 1548 l 257,0,-1
713 1511 m 257,4,-1
 696 0 l 257,5,-1
 895 0 l 257,6,-1
 912 1511 l 257,7,-1
 713 1511 l 257,4,-1
34 1078 m 257,8,-1
 32 878 l 257,9,-1
 905 878 l 257,10,-1
 907 1078 l 257,11,-1
 34 1078 l 257,8,-1
33 1023 m 257,12,-1
 234 1023 l 257,13,-1
 238 1422 l 257,14,-1
 37 1422 l 257,15,-1
 33 1023 l 257,12,-1
38 1435 m 257,16,-1
 36 1235 l 257,17,-1
 555 1235 l 257,18,-1
 557 1435 l 257,19,-1
 38 1435 l 257,16,-1
358 1422 m 257,20,-1
 352 882 l 257,21,-1
 550 882 l 257,22,-1
 556 1422 l 257,23,-1
 358 1422 l 257,20,-1
139 635 m 257,24,-1
 336 635 l 257,25,-1
 549 880 l 257,26,-1
 351 880 l 257,27,-1
 139 635 l 257,24,-1
139 635 m 257,28,-1
 134 200 l 257,29,-1
 333 200 l 257,30,-1
 338 635 l 257,31,-1
 139 635 l 257,28,-1
136 367 m 257,32,-1
 134 166 l 257,33,-1
 858 166 l 257,34,-1
 860 367 l 257,35,-1
 136 367 l 257,32,-1
581 -22 m 257,36,-1
 579 -218 l 257,37,-1
 936 -218 l 257,38,-1
 938 -22 l 257,39,-1
 581 -22 l 257,36,-1
796 -183 m 257,40,-1
 1128 -588 l 257,41,-1
 1274 -425 l 257,42,-1
 940 -21 l 257,43,-1
 796 -183 l 257,40,-1
EndSplineSet
Ligature2: "halnHalantFormsinDevanagari2lookup0 subtable" uni0915_uni094D_uni0937.akhn uni094D
EndChar

StartChar: uni0916
Encoding: 2326 2326 482
GlifName: uni0916
Width: 1024
VWidth: 0
GlyphClass: 2
Flags: W
AnchorPoint: "abvm_deva" 756 1593 basechar 0
AnchorPoint: "blwm_deva" 803 -39 basechar 0
LayerCount: 2
Fore
SplineSet
-7 1548 m 257,0,-1
 -7 1349 l 257,1,-1
 1023 1349 l 257,2,-1
 1023 1548 l 257,3,-1
 -7 1548 l 257,0,-1
690 1514 m 257,4,-1
 690 0 l 257,5,-1
 890 0 l 257,6,-1
 890 1514 l 257,7,-1
 690 1514 l 257,4,-1
429 979 m 257,8,-1
 429 779 l 257,9,-1
 657 779 l 257,10,-1
 657 979 l 257,11,-1
 429 979 l 257,8,-1
399 979 m 257,12,-1
 399 457 l 257,13,-1
 599 457 l 257,14,-1
 599 979 l 257,15,-1
 399 979 l 257,12,-1
399 568 m 257,16,-1
 399 368 l 257,17,-1
 742 368 l 257,18,-1
 742 568 l 257,19,-1
 399 568 l 257,16,-1
114 1441 m 257,20,-1
 114 120 l 257,21,-1
 314 120 l 257,22,-1
 314 1441 l 257,23,-1
 114 1441 l 257,20,-1
9 734 m 257,24,-1
 9 534 l 257,25,-1
 313 534 l 257,26,-1
 313 734 l 257,27,-1
 9 734 l 257,24,-1
113 270 m 257,28,-1
 113 70 l 257,29,-1
 827 70 l 257,30,-1
 827 270 l 257,31,-1
 113 270 l 257,28,-1
EndSplineSet
EndChar

StartChar: uni0916_uni0930_uni094D.vatu
Encoding: 65555 -1 483
GlifName: uni0916_uni0930_uni094D_.vatu
Width: 1024
VWidth: 0
GlyphClass: 3
Flags: W
AnchorPoint: "abvm_deva" 828 1606 basechar 0
AnchorPoint: "blwm_deva" 796 -53 basechar 0
LayerCount: 2
Fore
SplineSet
75 0 m 257,0,-1
 332 0 l 257,1,-1
 672 215 l 257,2,-1
 672 416 l 257,3,-1
 75 0 l 257,0,-1
-7 1548 m 257,4,-1
 -7 1349 l 257,5,-1
 1023 1349 l 257,6,-1
 1023 1548 l 257,7,-1
 -7 1548 l 257,4,-1
690 1514 m 257,8,-1
 690 0 l 257,9,-1
 890 0 l 257,10,-1
 890 1514 l 257,11,-1
 690 1514 l 257,8,-1
429 1145 m 257,12,-1
 429 945 l 257,13,-1
 657 945 l 257,14,-1
 657 1145 l 257,15,-1
 429 1145 l 257,12,-1
399 1145 m 257,16,-1
 399 623 l 257,17,-1
 599 623 l 257,18,-1
 599 1145 l 257,19,-1
 399 1145 l 257,16,-1
399 734 m 257,20,-1
 399 534 l 257,21,-1
 742 534 l 257,22,-1
 742 734 l 257,23,-1
 399 734 l 257,20,-1
114 1441 m 257,24,-1
 114 286 l 257,25,-1
 314 286 l 257,26,-1
 314 1441 l 257,27,-1
 114 1441 l 257,24,-1
9 900 m 257,28,-1
 9 700 l 257,29,-1
 313 700 l 257,30,-1
 313 900 l 257,31,-1
 9 900 l 257,28,-1
113 436 m 257,32,-1
 113 236 l 257,33,-1
 827 236 l 257,34,-1
 827 436 l 257,35,-1
 113 436 l 257,32,-1
EndSplineSet
Ligature2: "rkrfRakarVariantsinDevanagari2lookup0 subtable" uni0916 uni094D uni0930
EndChar

StartChar: uni0916_uni094D.half
Encoding: 65556 -1 484
GlifName: uni0916_uni094D_.half
Width: 1024
VWidth: 0
GlyphClass: 2
Flags: W
AnchorPoint: "abvm_deva" 670 1600 basechar 0
AnchorPoint: "blwm_deva" 638 -59 basechar 0
LayerCount: 2
Fore
SplineSet
-7 1548 m 257,0,-1
 -7 1349 l 257,1,-1
 1023 1349 l 257,2,-1
 1023 1548 l 257,3,-1
 -7 1548 l 257,0,-1
623 979 m 257,4,-1
 623 779 l 257,5,-1
 851 779 l 257,6,-1
 851 979 l 257,7,-1
 623 979 l 257,4,-1
593 979 m 257,8,-1
 593 457 l 257,9,-1
 793 457 l 257,10,-1
 793 979 l 257,11,-1
 593 979 l 257,8,-1
593 568 m 257,12,-1
 593 368 l 257,13,-1
 1015 368 l 257,14,-1
 1015 568 l 257,15,-1
 593 568 l 257,12,-1
308 1441 m 257,16,-1
 308 120 l 257,17,-1
 508 120 l 257,18,-1
 508 1441 l 257,19,-1
 308 1441 l 257,16,-1
203 734 m 257,20,-1
 203 534 l 257,21,-1
 507 534 l 257,22,-1
 507 734 l 257,23,-1
 203 734 l 257,20,-1
307 270 m 257,24,-1
 307 70 l 257,25,-1
 1021 70 l 257,26,-1
 1021 270 l 257,27,-1
 307 270 l 257,24,-1
EndSplineSet
Ligature2: "halfHalfFormsinDevanagari2lookup0 subtable" uni0916 uni094D
EndChar

StartChar: uni0916_uni094D.haln
Encoding: 65557 -1 485
GlifName: uni0916_uni094D_.haln
Width: 1024
VWidth: 0
GlyphClass: 3
Flags: W
AnchorPoint: "abvm_deva" 771 1611 basechar 0
AnchorPoint: "blwm_deva" 739 -48 basechar 0
LayerCount: 2
Fore
SplineSet
2 1548 m 257,0,-1
 -0 1349 l 257,1,-1
 1030 1349 l 257,2,-1
 1032 1548 l 257,3,-1
 2 1548 l 257,0,-1
699 1514 m 257,4,-1
 682 0 l 257,5,-1
 882 0 l 257,6,-1
 899 1514 l 257,7,-1
 699 1514 l 257,4,-1
432 979 m 257,8,-1
 430 779 l 257,9,-1
 658 779 l 257,10,-1
 660 979 l 257,11,-1
 432 979 l 257,8,-1
402 979 m 257,12,-1
 396 457 l 257,13,-1
 596 457 l 257,14,-1
 602 979 l 257,15,-1
 402 979 l 257,12,-1
397 568 m 257,16,-1
 395 368 l 257,17,-1
 738 368 l 257,18,-1
 740 568 l 257,19,-1
 397 568 l 257,16,-1
122 1441 m 257,20,-1
 107 120 l 257,21,-1
 307 120 l 257,22,-1
 322 1441 l 257,23,-1
 122 1441 l 257,20,-1
9 734 m 257,24,-1
 7 534 l 257,25,-1
 311 534 l 257,26,-1
 313 734 l 257,27,-1
 9 734 l 257,24,-1
108 270 m 257,28,-1
 106 70 l 257,29,-1
 820 70 l 257,30,-1
 822 270 l 257,31,-1
 108 270 l 257,28,-1
491 -22 m 257,32,-1
 489 -218 l 257,33,-1
 846 -218 l 257,34,-1
 848 -22 l 257,35,-1
 491 -22 l 257,32,-1
706 -183 m 257,36,-1
 1038 -588 l 257,37,-1
 1184 -425 l 257,38,-1
 850 -21 l 257,39,-1
 706 -183 l 257,36,-1
EndSplineSet
Ligature2: "halnHalantFormsinDevanagari2lookup0 subtable" uni0916 uni094D
EndChar

StartChar: uni0917
Encoding: 2327 2327 486
GlifName: uni0917
Width: 1024
VWidth: 0
GlyphClass: 2
Flags: W
AnchorPoint: "abvm_deva" 845 1607 basechar 0
AnchorPoint: "blwm_deva" 853 -50 basechar 0
LayerCount: 2
Fore
SplineSet
102 853 m 257,0,-1
 301 853 l 257,1,-1
 301 1044 l 257,2,-1
 102 1044 l 257,3,-1
 102 853 l 257,0,-1
102 882 m 257,4,-1
 102 683 l 257,5,-1
 578 683 l 257,6,-1
 578 882 l 257,7,-1
 102 882 l 257,4,-1
379 1548 m 257,8,-1
 379 812 l 257,9,-1
 578 812 l 257,10,-1
 578 1548 l 257,11,-1
 379 1548 l 257,8,-1
1025 1548 m 257,12,-1
 261 1548 l 257,13,-1
 261 1348 l 257,14,-1
 1025 1348 l 257,15,-1
 1025 1548 l 257,12,-1
732 1523 m 257,16,-1
 732 0 l 257,17,-1
 931 0 l 257,18,-1
 931 1523 l 257,19,-1
 732 1523 l 257,16,-1
EndSplineSet
EndChar

StartChar: uni0917_uni0930_uni094D.vatu
Encoding: 65558 -1 487
GlifName: uni0917_uni0930_uni094D_.vatu
Width: 1024
VWidth: 0
GlyphClass: 3
Flags: W
AnchorPoint: "abvm_deva" 788 1589 basechar 0
AnchorPoint: "blwm_deva" 756 -70 basechar 0
LayerCount: 2
Fore
SplineSet
153 0 m 257,0,-1
 410 0 l 257,1,-1
 750 215 l 257,2,-1
 750 416 l 257,3,-1
 153 0 l 257,0,-1
102 853 m 257,4,-1
 301 853 l 257,5,-1
 301 1044 l 257,6,-1
 102 1044 l 257,7,-1
 102 853 l 257,4,-1
102 882 m 257,8,-1
 102 683 l 257,9,-1
 578 683 l 257,10,-1
 578 882 l 257,11,-1
 102 882 l 257,8,-1
379 1548 m 257,12,-1
 379 812 l 257,13,-1
 578 812 l 257,14,-1
 578 1548 l 257,15,-1
 379 1548 l 257,12,-1
1012 1548 m 257,16,-1
 261 1548 l 257,17,-1
 261 1348 l 257,18,-1
 1012 1348 l 257,19,-1
 1012 1548 l 257,16,-1
732 1523 m 257,20,-1
 732 0 l 257,21,-1
 931 0 l 257,22,-1
 931 1523 l 257,23,-1
 732 1523 l 257,20,-1
EndSplineSet
Ligature2: "rkrfRakarVariantsinDevanagari2lookup0 subtable" uni0917 uni094D uni0930
EndChar

StartChar: uni0917_uni094D.half
Encoding: 65559 -1 488
GlifName: uni0917_uni094D_.half
Width: 1024
VWidth: 0
GlyphClass: 3
Flags: W
AnchorPoint: "abvm_deva" 805 1594 basechar 0
AnchorPoint: "blwm_deva" 773 -65 basechar 0
LayerCount: 2
Fore
SplineSet
102 853 m 257,0,-1
 301 853 l 257,1,-1
 301 1044 l 257,2,-1
 102 1044 l 257,3,-1
 102 853 l 257,0,-1
102 882 m 257,4,-1
 102 683 l 257,5,-1
 578 683 l 257,6,-1
 578 882 l 257,7,-1
 102 882 l 257,4,-1
379 1548 m 257,8,-1
 379 812 l 257,9,-1
 578 812 l 257,10,-1
 578 1548 l 257,11,-1
 379 1548 l 257,8,-1
1012 1548 m 257,12,-1
 261 1548 l 257,13,-1
 261 1348 l 257,14,-1
 1012 1348 l 257,15,-1
 1012 1548 l 257,12,-1
EndSplineSet
Ligature2: "halfHalfFormsinDevanagari2lookup0 subtable" uni0917 uni094D
EndChar

StartChar: uni0917_uni094D.haln
Encoding: 65560 -1 489
GlifName: uni0917_uni094D_.haln
Width: 1024
VWidth: 0
GlyphClass: 3
Flags: W
AnchorPoint: "abvm_deva" 845 1611 basechar 0
AnchorPoint: "blwm_deva" 813 -48 basechar 0
LayerCount: 2
Fore
SplineSet
89 853 m 257,0,-1
 288 853 l 257,1,-1
 290 1044 l 257,2,-1
 91 1044 l 257,3,-1
 89 853 l 257,0,-1
89 882 m 257,4,-1
 87 683 l 257,5,-1
 563 683 l 257,6,-1
 565 882 l 257,7,-1
 89 882 l 257,4,-1
374 1548 m 257,8,-1
 365 812 l 257,9,-1
 564 812 l 257,10,-1
 573 1548 l 257,11,-1
 374 1548 l 257,8,-1
1020 1548 m 257,12,-1
 256 1548 l 257,13,-1
 253 1348 l 257,14,-1
 1017 1348 l 257,15,-1
 1020 1548 l 257,12,-1
726 1523 m 257,16,-1
 709 0 l 257,17,-1
 908 0 l 257,18,-1
 925 1523 l 257,19,-1
 726 1523 l 257,16,-1
794 -22 m 257,20,-1
 792 -218 l 257,21,-1
 1149 -218 l 257,22,-1
 1151 -22 l 257,23,-1
 794 -22 l 257,20,-1
1008 -183 m 257,24,-1
 1340 -588 l 257,25,-1
 1486 -425 l 257,26,-1
 1153 -21 l 257,27,-1
 1008 -183 l 257,24,-1
EndSplineSet
Ligature2: "halnHalantFormsinDevanagari2lookup0 subtable" uni0917 uni094D
EndChar

StartChar: uni0918
Encoding: 2328 2328 490
GlifName: uni0918
Width: 1024
VWidth: 0
GlyphClass: 2
Flags: W
AnchorPoint: "abvm_deva" 732 1618 basechar 0
AnchorPoint: "blwm_deva" 835 -77 basechar 0
LayerCount: 2
Fore
SplineSet
0 1548 m 257,0,-1
 0 1348 l 257,1,-1
 1026 1348 l 257,2,-1
 1026 1548 l 257,3,-1
 0 1548 l 257,0,-1
701 1522 m 257,4,-1
 701 13 l 257,5,-1
 901 13 l 257,6,-1
 901 1522 l 257,7,-1
 701 1522 l 257,4,-1
173 1515 m 257,8,-1
 173 883 l 257,9,-1
 372 883 l 257,10,-1
 372 1515 l 257,11,-1
 173 1515 l 257,8,-1
267 917 m 257,12,-1
 267 717 l 257,13,-1
 511 717 l 257,14,-1
 511 917 l 257,15,-1
 267 917 l 257,12,-1
179 469 m 257,16,-1
 179 269 l 257,17,-1
 877 269 l 257,18,-1
 877 469 l 257,19,-1
 179 469 l 257,16,-1
173 269 m 257,20,-1
 372 269 l 257,21,-1
 372 764 l 257,22,-1
 173 764 l 257,23,-1
 173 269 l 257,20,-1
EndSplineSet
EndChar

StartChar: uni0918_uni0930_uni094D.vatu
Encoding: 65561 -1 491
GlifName: uni0918_uni0930_uni094D_.vatu
Width: 1024
VWidth: 0
GlyphClass: 3
Flags: W
AnchorPoint: "abvm_deva" 839 1617 basechar 0
AnchorPoint: "blwm_deva" 807 -42 basechar 0
LayerCount: 2
Fore
SplineSet
129 0 m 257,0,-1
 386 0 l 257,1,-1
 726 215 l 257,2,-1
 726 416 l 257,3,-1
 129 0 l 257,0,-1
0 1554 m 257,4,-1
 0 1354 l 257,5,-1
 1022 1354 l 257,6,-1
 1022 1554 l 257,7,-1
 0 1554 l 257,4,-1
701 1522 m 257,8,-1
 701 13 l 257,9,-1
 901 13 l 257,10,-1
 901 1522 l 257,11,-1
 701 1522 l 257,8,-1
173 1515 m 257,12,-1
 173 883 l 257,13,-1
 372 883 l 257,14,-1
 372 1515 l 257,15,-1
 173 1515 l 257,12,-1
267 917 m 257,16,-1
 267 717 l 257,17,-1
 511 717 l 257,18,-1
 511 917 l 257,19,-1
 267 917 l 257,16,-1
179 469 m 257,20,-1
 179 269 l 257,21,-1
 877 269 l 257,22,-1
 877 469 l 257,23,-1
 179 469 l 257,20,-1
173 269 m 257,24,-1
 372 269 l 257,25,-1
 372 764 l 257,26,-1
 173 764 l 257,27,-1
 173 269 l 257,24,-1
EndSplineSet
Ligature2: "rkrfRakarVariantsinDevanagari2lookup0 subtable" uni0918 uni094D uni0930
EndChar

StartChar: uni0918_uni094D.half
Encoding: 65562 -1 492
GlifName: uni0918_uni094D_.half
Width: 1024
VWidth: 0
GlyphClass: 3
Flags: W
AnchorPoint: "abvm_deva" 839 1617 basechar 0
AnchorPoint: "blwm_deva" 807 -42 basechar 0
LayerCount: 2
Fore
SplineSet
0 1554 m 257,0,-1
 0 1354 l 257,1,-1
 1022 1354 l 257,2,-1
 1022 1554 l 257,3,-1
 0 1554 l 257,0,-1
173 1515 m 257,4,-1
 173 883 l 257,5,-1
 372 883 l 257,6,-1
 372 1515 l 257,7,-1
 173 1515 l 257,4,-1
267 917 m 257,8,-1
 267 717 l 257,9,-1
 511 717 l 257,10,-1
 511 917 l 257,11,-1
 267 917 l 257,8,-1
179 469 m 257,12,-1
 179 269 l 257,13,-1
 1014 269 l 257,14,-1
 1014 469 l 257,15,-1
 179 469 l 257,12,-1
173 269 m 257,16,-1
 372 269 l 257,17,-1
 372 764 l 257,18,-1
 173 764 l 257,19,-1
 173 269 l 257,16,-1
EndSplineSet
Ligature2: "halfHalfFormsinDevanagari2lookup0 subtable" uni0918 uni094D
EndChar

StartChar: uni0918_uni094D.haln
Encoding: 65563 -1 493
GlifName: uni0918_uni094D_.haln
Width: 1024
VWidth: 0
GlyphClass: 3
Flags: W
AnchorPoint: "abvm_deva" 839 1617 basechar 0
AnchorPoint: "blwm_deva" 807 -42 basechar 0
LayerCount: 2
Fore
SplineSet
2 1548 m 257,0,-1
 0 1348 l 257,1,-1
 1026 1348 l 257,2,-1
 1028 1548 l 257,3,-1
 2 1548 l 257,0,-1
703 1522 m 257,4,-1
 686 13 l 257,5,-1
 886 13 l 257,6,-1
 903 1522 l 257,7,-1
 703 1522 l 257,4,-1
175 1515 m 257,8,-1
 168 883 l 257,9,-1
 367 883 l 257,10,-1
 374 1515 l 257,11,-1
 175 1515 l 257,8,-1
262 917 m 257,12,-1
 260 717 l 257,13,-1
 504 717 l 257,14,-1
 506 917 l 257,15,-1
 262 917 l 257,12,-1
169 469 m 257,16,-1
 167 269 l 257,17,-1
 865 269 l 257,18,-1
 867 469 l 257,19,-1
 169 469 l 257,16,-1
161 269 m 257,20,-1
 360 269 l 257,21,-1
 365 764 l 257,22,-1
 166 764 l 257,23,-1
 161 269 l 257,20,-1
681 -22 m 257,24,-1
 679 -218 l 257,25,-1
 1036 -218 l 257,26,-1
 1038 -22 l 257,27,-1
 681 -22 l 257,24,-1
895 -183 m 257,28,-1
 1228 -588 l 257,29,-1
 1374 -425 l 257,30,-1
 1040 -21 l 257,31,-1
 895 -183 l 257,28,-1
EndSplineSet
Ligature2: "halnHalantFormsinDevanagari2lookup0 subtable" uni0918 uni094D
EndChar

StartChar: uni0919
Encoding: 2329 2329 494
GlifName: uni0919
Width: 1024
VWidth: 0
GlyphClass: 2
Flags: W
AnchorPoint: "abvm_deva" 630 1582 basechar 0
AnchorPoint: "blwm_deva" 688 -89 basechar 0
LayerCount: 2
Fore
SplineSet
0 1548 m 257,0,-1
 0 1350 l 257,1,-1
 1025 1350 l 257,2,-1
 1025 1548 l 257,3,-1
 0 1548 l 257,0,-1
509 1543 m 257,4,-1
 509 1023 l 257,5,-1
 709 1023 l 257,6,-1
 709 1543 l 257,7,-1
 509 1543 l 257,4,-1
700 1226 m 257,8,-1
 226 1226 l 257,9,-1
 226 1023 l 257,10,-1
 700 1023 l 257,11,-1
 700 1226 l 257,8,-1
225 1083 m 257,12,-1
 225 629 l 257,13,-1
 430 629 l 257,14,-1
 430 1083 l 257,15,-1
 225 1083 l 257,12,-1
225 820 m 257,16,-1
 225 620 l 257,17,-1
 786 620 l 257,18,-1
 786 820 l 257,19,-1
 225 820 l 257,16,-1
586 680 m 257,20,-1
 586 29 l 257,21,-1
 786 29 l 257,22,-1
 786 680 l 257,23,-1
 586 680 l 257,20,-1
112 201 m 257,24,-1
 112 0 l 257,25,-1
 787 0 l 257,26,-1
 787 201 l 257,27,-1
 112 201 l 257,24,-1
112 423 m 257,28,-1
 112 8 l 257,29,-1
 313 8 l 257,30,-1
 313 423 l 257,31,-1
 112 423 l 257,28,-1
813 1037 m 257,32,-1
 813 890 l 257,33,-1
 970 890 l 257,34,-1
 970 1037 l 257,35,-1
 813 1037 l 257,32,-1
EndSplineSet
EndChar

StartChar: uni0919_uni0930_uni094D.vatu
Encoding: 65564 -1 495
GlifName: uni0919_uni0930_uni094D_.vatu
Width: 1024
VWidth: 0
GlyphClass: 3
Flags: W
AnchorPoint: "abvm_deva" 839 1617 basechar 0
AnchorPoint: "blwm_deva" 807 -42 basechar 0
LayerCount: 2
Fore
SplineSet
340 112 m 257,0,-1
 564 -268 l 257,1,-1
 846 -268 l 257,2,-1
 462 281 l 257,3,-1
 340 112 l 257,0,-1
462 281 m 257,4,-1
 55 -277 l 257,5,-1
 276 -277 l 257,6,-1
 577 116 l 257,7,-1
 462 281 l 257,4,-1
0 1554 m 257,8,-1
 0 1354 l 257,9,-1
 1022 1354 l 257,10,-1
 1022 1554 l 257,11,-1
 0 1554 l 257,8,-1
509 1543 m 257,12,-1
 509 1088 l 257,13,-1
 709 1088 l 257,14,-1
 709 1543 l 257,15,-1
 509 1543 l 257,12,-1
700 1288 m 257,16,-1
 226 1288 l 257,17,-1
 226 1088 l 257,18,-1
 700 1088 l 257,19,-1
 700 1288 l 257,16,-1
225 1145 m 257,20,-1
 225 691 l 257,21,-1
 430 691 l 257,22,-1
 430 1145 l 257,23,-1
 225 1145 l 257,20,-1
225 882 m 257,24,-1
 225 682 l 257,25,-1
 786 682 l 257,26,-1
 786 882 l 257,27,-1
 225 882 l 257,24,-1
586 742 m 257,28,-1
 586 331 l 257,29,-1
 786 331 l 257,30,-1
 786 742 l 257,31,-1
 586 742 l 257,28,-1
112 503 m 257,32,-1
 112 302 l 257,33,-1
 787 302 l 257,34,-1
 787 503 l 257,35,-1
 112 503 l 257,32,-1
112 639 m 257,36,-1
 112 310 l 257,37,-1
 313 310 l 257,38,-1
 313 639 l 257,39,-1
 112 639 l 257,36,-1
813 1099 m 257,40,-1
 813 952 l 257,41,-1
 970 952 l 257,42,-1
 970 1099 l 257,43,-1
 813 1099 l 257,40,-1
EndSplineSet
Ligature2: "rkrfRakarVariantsinDevanagari2lookup0 subtable" uni0919 uni094D uni0930
EndChar

StartChar: uni0919_uni094D.half
Encoding: 65565 -1 496
GlifName: uni0919_uni094D_.half
Width: 1024
VWidth: 0
GlyphClass: 3
Flags: W
AnchorPoint: "abvm_deva" 839 1617 basechar 0
AnchorPoint: "blwm_deva" 807 -42 basechar 0
LayerCount: 2
Fore
SplineSet
0 1554 m 257,0,-1
 0 1354 l 257,1,-1
 1022 1354 l 257,2,-1
 1022 1554 l 257,3,-1
 0 1554 l 257,0,-1
509 1543 m 257,4,-1
 509 1023 l 257,5,-1
 709 1023 l 257,6,-1
 709 1543 l 257,7,-1
 509 1543 l 257,4,-1
700 1226 m 257,8,-1
 226 1226 l 257,9,-1
 226 1023 l 257,10,-1
 700 1023 l 257,11,-1
 700 1226 l 257,8,-1
225 1083 m 257,12,-1
 225 629 l 257,13,-1
 430 629 l 257,14,-1
 430 1083 l 257,15,-1
 225 1083 l 257,12,-1
225 820 m 257,16,-1
 225 620 l 257,17,-1
 786 620 l 257,18,-1
 786 820 l 257,19,-1
 225 820 l 257,16,-1
586 680 m 257,20,-1
 586 165 l 257,21,-1
 786 165 l 257,22,-1
 786 680 l 257,23,-1
 586 680 l 257,20,-1
112 337 m 257,24,-1
 112 136 l 257,25,-1
 787 136 l 257,26,-1
 787 337 l 257,27,-1
 112 337 l 257,24,-1
112 559 m 257,28,-1
 112 144 l 257,29,-1
 313 144 l 257,30,-1
 313 559 l 257,31,-1
 112 559 l 257,28,-1
813 1037 m 257,32,-1
 813 890 l 257,33,-1
 970 890 l 257,34,-1
 970 1037 l 257,35,-1
 813 1037 l 257,32,-1
339 55 m 257,36,-1
 215 -141 l 257,37,-1
 572 -141 l 257,38,-1
 696 55 l 257,39,-1
 339 55 l 257,36,-1
549 -106 m 257,40,-1
 886 -511 l 257,41,-1
 1030 -348 l 257,42,-1
 692 56 l 257,43,-1
 549 -106 l 257,40,-1
EndSplineSet
Ligature2: "halfHalfFormsinDevanagari2lookup0 subtable" uni0919 uni094D
EndChar

StartChar: uni0919_uni094D.haln
Encoding: 65566 -1 497
GlifName: uni0919_uni094D_.haln
Width: 1024
VWidth: 0
GlyphClass: 3
Flags: W
AnchorPoint: "abvm_deva" 839 1617 basechar 0
AnchorPoint: "blwm_deva" 807 -42 basechar 0
LayerCount: 2
Fore
SplineSet
2 1548 m 257,0,-1
 -0 1350 l 257,1,-1
 1025 1350 l 257,2,-1
 1027 1548 l 257,3,-1
 2 1548 l 257,0,-1
511 1543 m 257,4,-1
 505 1023 l 257,5,-1
 705 1023 l 257,6,-1
 711 1543 l 257,7,-1
 511 1543 l 257,4,-1
699 1226 m 257,8,-1
 225 1226 l 257,9,-1
 222 1023 l 257,10,-1
 696 1023 l 257,11,-1
 699 1226 l 257,8,-1
222 1083 m 257,12,-1
 217 629 l 257,13,-1
 422 629 l 257,14,-1
 427 1083 l 257,15,-1
 222 1083 l 257,12,-1
219 820 m 257,16,-1
 217 620 l 257,17,-1
 778 620 l 257,18,-1
 780 820 l 257,19,-1
 219 820 l 257,16,-1
578 680 m 257,20,-1
 571 29 l 257,21,-1
 771 29 l 257,22,-1
 778 680 l 257,23,-1
 578 680 l 257,20,-1
99 201 m 257,24,-1
 97 0 l 257,25,-1
 772 0 l 257,26,-1
 774 201 l 257,27,-1
 99 201 l 257,24,-1
101 423 m 257,28,-1
 97 8 l 257,29,-1
 298 8 l 257,30,-1
 302 423 l 257,31,-1
 101 423 l 257,28,-1
809 1037 m 257,32,-1
 808 890 l 257,33,-1
 965 890 l 257,34,-1
 966 1037 l 257,35,-1
 809 1037 l 257,32,-1
444 -22 m 257,36,-1
 442 -218 l 257,37,-1
 799 -218 l 257,38,-1
 801 -22 l 257,39,-1
 444 -22 l 257,36,-1
658 -183 m 257,40,-1
 991 -588 l 257,41,-1
 1137 -425 l 257,42,-1
 803 -21 l 257,43,-1
 658 -183 l 257,40,-1
EndSplineSet
Ligature2: "halnHalantFormsinDevanagari2lookup0 subtable" uni0919 uni094D
EndChar

StartChar: uni091A
Encoding: 2330 2330 498
GlifName: uni091A_
Width: 1024
VWidth: 0
GlyphClass: 2
Flags: W
AnchorPoint: "abvm_deva" 720 1624 basechar 0
AnchorPoint: "blwm_deva" 767 -122 basechar 0
LayerCount: 2
Fore
SplineSet
0 1548 m 257,0,-1
 0 1351 l 257,1,-1
 1025 1351 l 257,2,-1
 1025 1548 l 257,3,-1
 0 1548 l 257,0,-1
636 1553 m 257,4,-1
 636 0 l 257,5,-1
 836 0 l 257,6,-1
 836 1553 l 257,7,-1
 636 1553 l 257,4,-1
803 280 m 257,8,-1
 803 480 l 257,9,-1
 296 480 l 257,10,-1
 296 280 l 257,11,-1
 803 280 l 257,8,-1
296 837 m 257,12,-1
 296 421 l 257,13,-1
 496 421 l 257,14,-1
 496 837 l 257,15,-1
 296 837 l 257,12,-1
72 991 m 257,16,-1
 72 791 l 257,17,-1
 568 791 l 257,18,-1
 568 991 l 257,19,-1
 72 991 l 257,16,-1
EndSplineSet
EndChar

StartChar: uni091A_uni0930_uni094D.vatu
Encoding: 65567 -1 499
GlifName: uni091A__uni0930_uni094D_.vatu
Width: 1024
VWidth: 0
GlyphClass: 2
Flags: W
AnchorPoint: "abvm_deva" 839 1617 basechar 0
AnchorPoint: "blwm_deva" 807 -42 basechar 0
LayerCount: 2
Fore
SplineSet
129 0 m 257,0,-1
 386 0 l 257,1,-1
 726 215 l 257,2,-1
 726 416 l 257,3,-1
 129 0 l 257,0,-1
0 1556 m 257,4,-1
 0 1356 l 257,5,-1
 1022 1356 l 257,6,-1
 1022 1556 l 257,7,-1
 0 1556 l 257,4,-1
636 1553 m 257,8,-1
 636 0 l 257,9,-1
 836 0 l 257,10,-1
 836 1553 l 257,11,-1
 636 1553 l 257,8,-1
803 280 m 257,12,-1
 803 480 l 257,13,-1
 296 480 l 257,14,-1
 296 280 l 257,15,-1
 803 280 l 257,12,-1
296 837 m 257,16,-1
 296 421 l 257,17,-1
 496 421 l 257,18,-1
 496 837 l 257,19,-1
 296 837 l 257,16,-1
72 991 m 257,20,-1
 72 791 l 257,21,-1
 568 791 l 257,22,-1
 568 991 l 257,23,-1
 72 991 l 257,20,-1
EndSplineSet
Ligature2: "rkrfRakarVariantsinDevanagari2lookup0 subtable" uni091A uni094D uni0930
EndChar

StartChar: uni091A_uni094D.half
Encoding: 65568 -1 500
GlifName: uni091A__uni094D_.half
Width: 1024
VWidth: 0
GlyphClass: 3
Flags: W
AnchorPoint: "abvm_deva" 839 1617 basechar 0
AnchorPoint: "blwm_deva" 807 -42 basechar 0
LayerCount: 2
Fore
SplineSet
0 1556 m 257,0,-1
 0 1356 l 257,1,-1
 1022 1356 l 257,2,-1
 1022 1556 l 257,3,-1
 0 1556 l 257,0,-1
1053 280 m 257,4,-1
 1053 480 l 257,5,-1
 296 480 l 257,6,-1
 296 280 l 257,7,-1
 1053 280 l 257,4,-1
296 837 m 257,8,-1
 296 421 l 257,9,-1
 496 421 l 257,10,-1
 496 837 l 257,11,-1
 296 837 l 257,8,-1
72 991 m 257,12,-1
 72 791 l 257,13,-1
 568 791 l 257,14,-1
 568 991 l 257,15,-1
 72 991 l 257,12,-1
EndSplineSet
Ligature2: "halfHalfFormsinDevanagari2lookup0 subtable" uni091A uni094D
EndChar

StartChar: uni091A_uni094D.haln
Encoding: 65569 -1 501
GlifName: uni091A__uni094D_.haln
Width: 1024
VWidth: 0
GlyphClass: 3
Flags: W
AnchorPoint: "abvm_deva" 839 1617 basechar 0
AnchorPoint: "blwm_deva" 807 -42 basechar 0
LayerCount: 2
Fore
SplineSet
2 1548 m 257,0,-1
 -0 1351 l 257,1,-1
 1025 1351 l 257,2,-1
 1027 1548 l 257,3,-1
 2 1548 l 257,0,-1
638 1553 m 257,4,-1
 620 0 l 257,5,-1
 820 0 l 257,6,-1
 838 1553 l 257,7,-1
 638 1553 l 257,4,-1
790 280 m 257,8,-1
 793 480 l 257,9,-1
 286 480 l 257,10,-1
 283 280 l 257,11,-1
 790 280 l 257,8,-1
290 837 m 257,12,-1
 285 421 l 257,13,-1
 485 421 l 257,14,-1
 490 837 l 257,15,-1
 290 837 l 257,12,-1
67 991 m 257,16,-1
 65 791 l 257,17,-1
 561 791 l 257,18,-1
 563 991 l 257,19,-1
 67 991 l 257,16,-1
815 -22 m 257,20,-1
 812 -218 l 257,21,-1
 1169 -218 l 257,22,-1
 1172 -22 l 257,23,-1
 815 -22 l 257,20,-1
1029 -183 m 257,24,-1
 1361 -588 l 257,25,-1
 1507 -425 l 257,26,-1
 1174 -21 l 257,27,-1
 1029 -183 l 257,24,-1
EndSplineSet
Ligature2: "halnHalantFormsinDevanagari2lookup0 subtable" uni091A uni094D
EndChar

StartChar: uni091B
Encoding: 2331 2331 502
GlifName: uni091B_
Width: 1024
VWidth: 0
GlyphClass: 2
Flags: W
AnchorPoint: "abvm_deva" 600 1600 basechar 0
AnchorPoint: "blwm_deva" 647 -32 basechar 0
LayerCount: 2
Fore
SplineSet
0 1548 m 257,0,-1
 0 1350 l 257,1,-1
 1026 1350 l 257,2,-1
 1026 1548 l 257,3,-1
 0 1548 l 257,0,-1
433 1130 m 257,4,-1
 92 1130 l 257,5,-1
 92 931 l 257,6,-1
 433 931 l 257,7,-1
 433 1130 l 257,4,-1
89 1130 m 257,8,-1
 89 584 l 257,9,-1
 289 584 l 257,10,-1
 289 1130 l 257,11,-1
 89 1130 l 257,8,-1
167 639 m 257,12,-1
 167 439 l 257,13,-1
 417 439 l 257,14,-1
 417 639 l 257,15,-1
 167 639 l 257,12,-1
84 493 m 257,16,-1
 84 0 l 257,17,-1
 284 0 l 257,18,-1
 284 493 l 257,19,-1
 84 493 l 257,16,-1
84 199 m 257,20,-1
 84 0 l 257,21,-1
 719 0 l 257,22,-1
 719 199 l 257,23,-1
 84 199 l 257,20,-1
518 6 m 257,24,-1
 719 6 l 257,25,-1
 719 1515 l 257,26,-1
 518 1515 l 257,27,-1
 518 6 l 257,24,-1
659 1007 m 257,28,-1
 659 808 l 257,29,-1
 997 808 l 257,30,-1
 997 1007 l 257,31,-1
 659 1007 l 257,28,-1
796 868 m 257,32,-1
 796 471 l 257,33,-1
 997 471 l 257,34,-1
 997 868 l 257,35,-1
 796 868 l 257,32,-1
EndSplineSet
EndChar

StartChar: uni091B_uni0930_uni094D.vatu
Encoding: 65570 -1 503
GlifName: uni091B__uni0930_uni094D_.vatu
Width: 1024
VWidth: 0
GlyphClass: 3
Flags: W
AnchorPoint: "abvm_deva" 839 1617 basechar 0
AnchorPoint: "blwm_deva" 807 -42 basechar 0
LayerCount: 2
Fore
SplineSet
100 0 m 257,0,-1
 357 0 l 257,1,-1
 697 215 l 257,2,-1
 697 416 l 257,3,-1
 100 0 l 257,0,-1
-6 1555 m 257,4,-1
 -6 1355 l 257,5,-1
 1016 1355 l 257,6,-1
 1016 1555 l 257,7,-1
 -6 1555 l 257,4,-1
433 1206 m 257,8,-1
 92 1206 l 257,9,-1
 92 1007 l 257,10,-1
 433 1007 l 257,11,-1
 433 1206 l 257,8,-1
89 1206 m 257,12,-1
 89 746 l 257,13,-1
 289 746 l 257,14,-1
 289 1206 l 257,15,-1
 89 1206 l 257,12,-1
167 801 m 257,16,-1
 167 601 l 257,17,-1
 417 601 l 257,18,-1
 417 801 l 257,19,-1
 167 801 l 257,16,-1
84 655 m 257,20,-1
 84 234 l 257,21,-1
 284 234 l 257,22,-1
 284 655 l 257,23,-1
 84 655 l 257,20,-1
84 433 m 257,24,-1
 84 234 l 257,25,-1
 719 234 l 257,26,-1
 719 433 l 257,27,-1
 84 433 l 257,24,-1
518 0 m 257,28,-1
 719 0 l 257,29,-1
 719 1446 l 257,30,-1
 518 1446 l 257,31,-1
 518 0 l 257,28,-1
659 1007 m 257,32,-1
 659 808 l 257,33,-1
 997 808 l 257,34,-1
 997 1007 l 257,35,-1
 659 1007 l 257,32,-1
796 868 m 257,36,-1
 796 471 l 257,37,-1
 997 471 l 257,38,-1
 997 868 l 257,39,-1
 796 868 l 257,36,-1
EndSplineSet
Ligature2: "rkrfRakarVariantsinDevanagari2lookup0 subtable" uni091B uni094D uni0930
EndChar

StartChar: uni091B_uni094D.half
Encoding: 65571 -1 504
GlifName: uni091B__uni094D_.half
Width: 1024
VWidth: 0
GlyphClass: 3
Flags: W
AnchorPoint: "abvm_deva" 839 1617 basechar 0
AnchorPoint: "blwm_deva" 807 -42 basechar 0
LayerCount: 2
Fore
SplineSet
-6 1555 m 257,0,-1
 -6 1355 l 257,1,-1
 1016 1355 l 257,2,-1
 1016 1555 l 257,3,-1
 -6 1555 l 257,0,-1
683 1130 m 257,4,-1
 342 1130 l 257,5,-1
 342 931 l 257,6,-1
 683 931 l 257,7,-1
 683 1130 l 257,4,-1
339 1130 m 257,8,-1
 339 584 l 257,9,-1
 539 584 l 257,10,-1
 539 1130 l 257,11,-1
 339 1130 l 257,8,-1
417 639 m 257,12,-1
 417 439 l 257,13,-1
 667 439 l 257,14,-1
 667 639 l 257,15,-1
 417 639 l 257,12,-1
334 493 m 257,16,-1
 334 0 l 257,17,-1
 534 0 l 257,18,-1
 534 493 l 257,19,-1
 334 493 l 257,16,-1
334 199 m 257,20,-1
 334 0 l 257,21,-1
 1019 0 l 257,22,-1
 1019 199 l 257,23,-1
 334 199 l 257,20,-1
EndSplineSet
Ligature2: "halfHalfFormsinDevanagari2lookup0 subtable" uni091B uni094D
EndChar

StartChar: uni091B_uni094D.haln
Encoding: 65572 -1 505
GlifName: uni091B__uni094D_.haln
Width: 1024
VWidth: 0
GlyphClass: 3
Flags: W
AnchorPoint: "abvm_deva" 839 1617 basechar 0
AnchorPoint: "blwm_deva" 807 -42 basechar 0
LayerCount: 2
Fore
SplineSet
2 1548 m 257,0,-1
 -1 1350 l 257,1,-1
 1025 1350 l 257,2,-1
 1028 1548 l 257,3,-1
 2 1548 l 257,0,-1
430 1130 m 257,4,-1
 89 1130 l 257,5,-1
 87 931 l 257,6,-1
 428 931 l 257,7,-1
 430 1130 l 257,4,-1
86 1130 m 257,8,-1
 80 584 l 257,9,-1
 280 584 l 257,10,-1
 286 1130 l 257,11,-1
 86 1130 l 257,8,-1
158 639 m 257,12,-1
 156 439 l 257,13,-1
 406 439 l 257,14,-1
 408 639 l 257,15,-1
 158 639 l 257,12,-1
74 493 m 257,16,-1
 68 0 l 257,17,-1
 268 0 l 257,18,-1
 274 493 l 257,19,-1
 74 493 l 257,16,-1
70 199 m 257,20,-1
 68 0 l 257,21,-1
 703 0 l 257,22,-1
 705 199 l 257,23,-1
 70 199 l 257,20,-1
502 6 m 257,24,-1
 703 6 l 257,25,-1
 720 1515 l 257,26,-1
 519 1515 l 257,27,-1
 502 6 l 257,24,-1
654 1007 m 257,28,-1
 652 808 l 257,29,-1
 990 808 l 257,30,-1
 992 1007 l 257,31,-1
 654 1007 l 257,28,-1
790 868 m 257,32,-1
 785 471 l 257,33,-1
 986 471 l 257,34,-1
 991 868 l 257,35,-1
 790 868 l 257,32,-1
253 -13 m 257,36,-1
 251 -209 l 257,37,-1
 608 -209 l 257,38,-1
 610 -13 l 257,39,-1
 253 -13 l 257,36,-1
467 -174 m 257,40,-1
 799 -579 l 257,41,-1
 945 -416 l 257,42,-1
 612 -12 l 257,43,-1
 467 -174 l 257,40,-1
EndSplineSet
Ligature2: "halnHalantFormsinDevanagari2lookup0 subtable" uni091B uni094D
EndChar

StartChar: uni091C
Encoding: 2332 2332 506
GlifName: uni091C_
Width: 1024
VWidth: 0
GlyphClass: 2
Flags: W
AnchorPoint: "abvm_deva" 762 1594 basechar 0
AnchorPoint: "blwm_deva" 767 -134 basechar 0
LayerCount: 2
Fore
SplineSet
0 1548 m 257,0,-1
 0 1348 l 257,1,-1
 1026 1348 l 257,2,-1
 1026 1548 l 257,3,-1
 0 1548 l 257,0,-1
678 1548 m 257,4,-1
 678 -12 l 257,5,-1
 877 -12 l 257,6,-1
 877 1548 l 257,7,-1
 678 1548 l 257,4,-1
397 860 m 257,8,-1
 397 663 l 257,9,-1
 811 663 l 257,10,-1
 811 860 l 257,11,-1
 397 860 l 257,8,-1
351 860 m 257,12,-1
 351 413 l 257,13,-1
 551 413 l 257,14,-1
 551 860 l 257,15,-1
 351 860 l 257,12,-1
41 567 m 257,16,-1
 41 367 l 257,17,-1
 551 367 l 257,18,-1
 551 567 l 257,19,-1
 41 567 l 257,16,-1
41 727 m 257,20,-1
 41 509 l 257,21,-1
 241 509 l 257,22,-1
 241 727 l 257,23,-1
 41 727 l 257,20,-1
EndSplineSet
EndChar

StartChar: uni091C_uni0930_uni094D.vatu
Encoding: 65573 -1 507
GlifName: uni091C__uni0930_uni094D_.vatu
Width: 1024
VWidth: 0
GlyphClass: 2
Flags: W
AnchorPoint: "abvm_deva" 839 1617 basechar 0
AnchorPoint: "blwm_deva" 807 -42 basechar 0
LayerCount: 2
Fore
SplineSet
129 0 m 257,0,-1
 386 0 l 257,1,-1
 726 215 l 257,2,-1
 726 416 l 257,3,-1
 129 0 l 257,0,-1
-34 1548 m 257,4,-1
 -34 1350 l 257,5,-1
 1024 1350 l 257,6,-1
 1024 1548 l 257,7,-1
 -34 1548 l 257,4,-1
678 1548 m 257,8,-1
 678 -12 l 257,9,-1
 877 -12 l 257,10,-1
 877 1548 l 257,11,-1
 678 1548 l 257,8,-1
397 860 m 257,12,-1
 397 663 l 257,13,-1
 811 663 l 257,14,-1
 811 860 l 257,15,-1
 397 860 l 257,12,-1
351 860 m 257,16,-1
 351 413 l 257,17,-1
 551 413 l 257,18,-1
 551 860 l 257,19,-1
 351 860 l 257,16,-1
41 567 m 257,20,-1
 41 367 l 257,21,-1
 551 367 l 257,22,-1
 551 567 l 257,23,-1
 41 567 l 257,20,-1
41 727 m 257,24,-1
 41 509 l 257,25,-1
 241 509 l 257,26,-1
 241 727 l 257,27,-1
 41 727 l 257,24,-1
EndSplineSet
Ligature2: "rkrfRakarVariantsinDevanagari2lookup0 subtable" uni091C uni094D uni0930
EndChar

StartChar: uni091C_uni094D.half
Encoding: 65574 -1 508
GlifName: uni091C__uni094D_.half
Width: 1024
VWidth: 0
GlyphClass: 3
Flags: W
AnchorPoint: "abvm_deva" 839 1617 basechar 0
AnchorPoint: "blwm_deva" 807 -42 basechar 0
LayerCount: 2
Fore
SplineSet
-34 1548 m 257,0,-1
 -34 1350 l 257,1,-1
 1024 1350 l 257,2,-1
 1024 1548 l 257,3,-1
 -34 1548 l 257,0,-1
547 860 m 257,4,-1
 547 663 l 257,5,-1
 1061 663 l 257,6,-1
 1061 860 l 257,7,-1
 547 860 l 257,4,-1
501 860 m 257,8,-1
 501 413 l 257,9,-1
 701 413 l 257,10,-1
 701 860 l 257,11,-1
 501 860 l 257,8,-1
191 567 m 257,12,-1
 191 367 l 257,13,-1
 701 367 l 257,14,-1
 701 567 l 257,15,-1
 191 567 l 257,12,-1
191 727 m 257,16,-1
 191 509 l 257,17,-1
 391 509 l 257,18,-1
 391 727 l 257,19,-1
 191 727 l 257,16,-1
EndSplineSet
Ligature2: "halfHalfFormsinDevanagari2lookup0 subtable" uni091C uni094D
EndChar

StartChar: uni091C_uni094D.haln
Encoding: 65575 -1 509
GlifName: uni091C__uni094D_.haln
Width: 1024
VWidth: 0
GlyphClass: 3
Flags: W
AnchorPoint: "abvm_deva" 839 1617 basechar 0
AnchorPoint: "blwm_deva" 807 -42 basechar 0
LayerCount: 2
Fore
SplineSet
2 1548 m 257,0,-1
 -1 1348 l 257,1,-1
 1025 1348 l 257,2,-1
 1028 1548 l 257,3,-1
 2 1548 l 257,0,-1
680 1548 m 257,4,-1
 662 -12 l 257,5,-1
 861 -12 l 257,6,-1
 879 1548 l 257,7,-1
 680 1548 l 257,4,-1
391 860 m 257,8,-1
 389 663 l 257,9,-1
 803 663 l 257,10,-1
 805 860 l 257,11,-1
 391 860 l 257,8,-1
345 860 m 257,12,-1
 340 413 l 257,13,-1
 540 413 l 257,14,-1
 545 860 l 257,15,-1
 345 860 l 257,12,-1
32 567 m 257,16,-1
 29 367 l 257,17,-1
 539 367 l 257,18,-1
 542 567 l 257,19,-1
 32 567 l 257,16,-1
33 727 m 257,20,-1
 31 509 l 257,21,-1
 231 509 l 257,22,-1
 233 727 l 257,23,-1
 33 727 l 257,20,-1
536 -22 m 257,24,-1
 534 -218 l 257,25,-1
 891 -218 l 257,26,-1
 893 -22 l 257,27,-1
 536 -22 l 257,24,-1
751 -183 m 257,28,-1
 1083 -588 l 257,29,-1
 1229 -425 l 257,30,-1
 895 -21 l 257,31,-1
 751 -183 l 257,28,-1
EndSplineSet
Ligature2: "halnHalantFormsinDevanagari2lookup0 subtable" uni091C uni094D
EndChar

StartChar: uni091C_uni094D_uni091E.akhn
Encoding: 65576 -1 510
GlifName: uni091C__uni094D__uni091E_.akhn
Width: 1024
VWidth: 0
GlyphClass: 3
Flags: W
AnchorPoint: "abvm_deva" 839 1617 basechar 0
AnchorPoint: "blwm_deva" 807 -42 basechar 0
LayerCount: 2
Fore
SplineSet
-34 1548 m 257,0,-1
 -34 1350 l 257,1,-1
 1024 1350 l 257,2,-1
 1024 1548 l 257,3,-1
 -34 1548 l 257,0,-1
678 1548 m 257,4,-1
 678 -12 l 257,5,-1
 877 -12 l 257,6,-1
 877 1548 l 257,7,-1
 678 1548 l 257,4,-1
397 860 m 257,8,-1
 397 663 l 257,9,-1
 811 663 l 257,10,-1
 811 860 l 257,11,-1
 397 860 l 257,8,-1
351 860 m 257,12,-1
 351 413 l 257,13,-1
 551 413 l 257,14,-1
 551 860 l 257,15,-1
 351 860 l 257,12,-1
41 567 m 257,16,-1
 41 367 l 257,17,-1
 551 367 l 257,18,-1
 551 567 l 257,19,-1
 41 567 l 257,16,-1
41 368 m 257,20,-1
 189 75 l 257,21,-1
 447 75 l 257,22,-1
 284 368 l 257,23,-1
 41 368 l 257,20,-1
EndSplineSet
Ligature2: "akhnAkhandinDevanagari2lookup0 subtable" uni091C uni094D uni091E
EndChar

StartChar: uni091C_uni094D_uni091E.half
Encoding: 65577 -1 511
GlifName: uni091C__uni094D__uni091E_.half
Width: 1024
VWidth: 0
GlyphClass: 3
Flags: W
AnchorPoint: "abvm_deva" 839 1617 basechar 0
AnchorPoint: "blwm_deva" 807 -42 basechar 0
LayerCount: 2
Fore
SplineSet
-34 1548 m 257,0,-1
 -34 1350 l 257,1,-1
 1024 1350 l 257,2,-1
 1024 1548 l 257,3,-1
 -34 1548 l 257,0,-1
593 860 m 257,4,-1
 593 663 l 257,5,-1
 1007 663 l 257,6,-1
 1007 860 l 257,7,-1
 593 860 l 257,4,-1
547 860 m 257,8,-1
 547 413 l 257,9,-1
 747 413 l 257,10,-1
 747 860 l 257,11,-1
 547 860 l 257,8,-1
237 567 m 257,12,-1
 237 367 l 257,13,-1
 747 367 l 257,14,-1
 747 567 l 257,15,-1
 237 567 l 257,12,-1
237 368 m 257,16,-1
 385 75 l 257,17,-1
 643 75 l 257,18,-1
 480 368 l 257,19,-1
 237 368 l 257,16,-1
EndSplineSet
Ligature2: "halfHalfFormsinDevanagari2lookup0 subtable" uni091C_uni094D_uni091E.akhn uni094D
EndChar

StartChar: uni091C_uni094D_uni091E_uni094D
Encoding: 65578 -1 512
GlifName: uni091C__uni094D__uni091E__uni094D_
Width: 1024
VWidth: 0
GlyphClass: 2
Flags: W
AnchorPoint: "abvm_deva" 839 1617 basechar 0
AnchorPoint: "blwm_deva" 807 -42 basechar 0
LayerCount: 2
Fore
SplineSet
-11 1548 m 257,0,-1
 -13 1350 l 257,1,-1
 1045 1350 l 257,2,-1
 1047 1548 l 257,3,-1
 -11 1548 l 257,0,-1
701 1548 m 257,4,-1
 683 -12 l 257,5,-1
 882 -12 l 257,6,-1
 900 1548 l 257,7,-1
 701 1548 l 257,4,-1
412 860 m 257,8,-1
 410 663 l 257,9,-1
 824 663 l 257,10,-1
 826 860 l 257,11,-1
 412 860 l 257,8,-1
366 860 m 257,12,-1
 361 413 l 257,13,-1
 561 413 l 257,14,-1
 566 860 l 257,15,-1
 366 860 l 257,12,-1
53 567 m 257,16,-1
 51 367 l 257,17,-1
 561 367 l 257,18,-1
 563 567 l 257,19,-1
 53 567 l 257,16,-1
51 368 m 257,20,-1
 195 75 l 257,21,-1
 453 75 l 257,22,-1
 294 368 l 257,23,-1
 51 368 l 257,20,-1
649 -22 m 257,24,-1
 646 -218 l 257,25,-1
 1003 -218 l 257,26,-1
 1006 -22 l 257,27,-1
 649 -22 l 257,24,-1
863 -183 m 257,28,-1
 1195 -588 l 257,29,-1
 1341 -425 l 257,30,-1
 1008 -21 l 257,31,-1
 863 -183 l 257,28,-1
EndSplineSet
Ligature2: "halnHalantFormsinDevanagari2lookup0 subtable" uni091C_uni094D_uni091E.akhn uni094D
EndChar

StartChar: uni091D
Encoding: 2333 2333 513
GlifName: uni091D_
Width: 1024
VWidth: 0
GlyphClass: 2
Flags: W
AnchorPoint: "abvm_deva" 762 1594 basechar 0
AnchorPoint: "blwm_deva" 806 -45 basechar 0
LayerCount: 2
Fore
SplineSet
0 1548 m 257,0,-1
 0 1349 l 257,1,-1
 1026 1349 l 257,2,-1
 1026 1548 l 257,3,-1
 0 1548 l 257,0,-1
679 1548 m 257,4,-1
 679 0 l 257,5,-1
 880 0 l 257,6,-1
 880 1548 l 257,7,-1
 679 1548 l 257,4,-1
447 1537 m 257,8,-1
 447 1023 l 257,9,-1
 646 1023 l 257,10,-1
 646 1537 l 257,11,-1
 447 1537 l 257,8,-1
125 1223 m 257,12,-1
 125 1023 l 257,13,-1
 646 1023 l 257,14,-1
 646 1223 l 257,15,-1
 125 1223 l 257,12,-1
125 1085 m 257,16,-1
 125 651 l 257,17,-1
 325 651 l 257,18,-1
 325 1085 l 257,19,-1
 125 1085 l 257,16,-1
125 837 m 257,20,-1
 125 638 l 257,21,-1
 874 638 l 257,22,-1
 874 837 l 257,23,-1
 125 837 l 257,20,-1
418 691 m 257,24,-1
 418 7 l 257,25,-1
 618 7 l 257,26,-1
 618 691 l 257,27,-1
 418 691 l 257,24,-1
125 200 m 257,28,-1
 125 0 l 257,29,-1
 618 0 l 257,30,-1
 618 200 l 257,31,-1
 125 200 l 257,28,-1
125 63 m 257,32,-1
 125 -148 l 257,33,-1
 325 -148 l 257,34,-1
 325 63 l 257,35,-1
 125 63 l 257,32,-1
EndSplineSet
EndChar

StartChar: uni091D_uni0930_uni094D.vatu
Encoding: 65579 -1 514
GlifName: uni091D__uni0930_uni094D_.vatu
Width: 1024
VWidth: 0
GlyphClass: 3
Flags: W
AnchorPoint: "abvm_deva" 839 1617 basechar 0
AnchorPoint: "blwm_deva" 807 -42 basechar 0
LayerCount: 2
Fore
SplineSet
391 0 m 257,0,-1
 557 0 l 257,1,-1
 790 215 l 257,2,-1
 790 490 l 257,3,-1
 391 0 l 257,0,-1
-18 1548 m 257,4,-1
 -18 1349 l 257,5,-1
 1023 1349 l 257,6,-1
 1023 1548 l 257,7,-1
 -18 1548 l 257,4,-1
740 1537 m 257,8,-1
 740 -5 l 257,9,-1
 941 -5 l 257,10,-1
 941 1537 l 257,11,-1
 740 1537 l 257,8,-1
447 1537 m 257,12,-1
 447 1023 l 257,13,-1
 646 1023 l 257,14,-1
 646 1537 l 257,15,-1
 447 1537 l 257,12,-1
125 1223 m 257,16,-1
 125 1023 l 257,17,-1
 646 1023 l 257,18,-1
 646 1223 l 257,19,-1
 125 1223 l 257,16,-1
42 1218 m 257,20,-1
 42 651 l 257,21,-1
 242 651 l 257,22,-1
 242 1218 l 257,23,-1
 42 1218 l 257,20,-1
125 849 m 257,24,-1
 125 650 l 257,25,-1
 874 650 l 257,26,-1
 874 849 l 257,27,-1
 125 849 l 257,24,-1
221 691 m 257,28,-1
 221 147 l 257,29,-1
 421 147 l 257,30,-1
 421 691 l 257,31,-1
 221 691 l 257,28,-1
18 350 m 257,32,-1
 18 147 l 257,33,-1
 400 147 l 257,34,-1
 400 350 l 257,35,-1
 18 350 l 257,32,-1
18 210 m 257,36,-1
 18 0 l 257,37,-1
 218 0 l 257,38,-1
 218 210 l 257,39,-1
 18 210 l 257,36,-1
EndSplineSet
Ligature2: "rkrfRakarVariantsinDevanagari2lookup0 subtable" uni091D uni094D uni0930
EndChar

StartChar: uni091D_uni094D.half
Encoding: 65580 -1 515
GlifName: uni091D__uni094D_.half
Width: 1024
VWidth: 0
GlyphClass: 3
Flags: W
AnchorPoint: "abvm_deva" 839 1617 basechar 0
AnchorPoint: "blwm_deva" 807 -42 basechar 0
LayerCount: 2
Fore
SplineSet
-18 1548 m 257,0,-1
 -18 1349 l 257,1,-1
 1023 1349 l 257,2,-1
 1023 1548 l 257,3,-1
 -18 1548 l 257,0,-1
447 1537 m 257,4,-1
 447 1023 l 257,5,-1
 646 1023 l 257,6,-1
 646 1537 l 257,7,-1
 447 1537 l 257,4,-1
125 1223 m 257,8,-1
 125 1023 l 257,9,-1
 646 1023 l 257,10,-1
 646 1223 l 257,11,-1
 125 1223 l 257,8,-1
125 1085 m 257,12,-1
 125 651 l 257,13,-1
 325 651 l 257,14,-1
 325 1085 l 257,15,-1
 125 1085 l 257,12,-1
125 837 m 257,16,-1
 125 638 l 257,17,-1
 1074 638 l 257,18,-1
 1074 837 l 257,19,-1
 125 837 l 257,16,-1
418 691 m 257,20,-1
 418 7 l 257,21,-1
 618 7 l 257,22,-1
 618 691 l 257,23,-1
 418 691 l 257,20,-1
125 203 m 257,24,-1
 125 0 l 257,25,-1
 618 0 l 257,26,-1
 618 203 l 257,27,-1
 125 203 l 257,24,-1
125 63 m 257,28,-1
 125 -148 l 257,29,-1
 325 -148 l 257,30,-1
 325 63 l 257,31,-1
 125 63 l 257,28,-1
EndSplineSet
Ligature2: "halfHalfFormsinDevanagari2lookup0 subtable" uni091D uni094D
EndChar

StartChar: uni091D_uni094D.haln
Encoding: 65581 -1 516
GlifName: uni091D__uni094D_.haln
Width: 1024
VWidth: 0
GlyphClass: 3
Flags: W
AnchorPoint: "abvm_deva" 839 1617 basechar 0
AnchorPoint: "blwm_deva" 807 -42 basechar 0
LayerCount: 2
Fore
SplineSet
2 1548 m 257,0,-1
 -0 1349 l 257,1,-1
 1026 1349 l 257,2,-1
 1028 1548 l 257,3,-1
 2 1548 l 257,0,-1
681 1548 m 257,4,-1
 664 0 l 257,5,-1
 865 0 l 257,6,-1
 882 1548 l 257,7,-1
 681 1548 l 257,4,-1
449 1537 m 257,8,-1
 443 1023 l 257,9,-1
 642 1023 l 257,10,-1
 648 1537 l 257,11,-1
 449 1537 l 257,8,-1
123 1223 m 257,12,-1
 121 1023 l 257,13,-1
 642 1023 l 257,14,-1
 644 1223 l 257,15,-1
 123 1223 l 257,12,-1
122 1085 m 257,16,-1
 117 651 l 257,17,-1
 317 651 l 257,18,-1
 322 1085 l 257,19,-1
 122 1085 l 257,16,-1
119 837 m 257,20,-1
 117 638 l 257,21,-1
 866 638 l 257,22,-1
 868 837 l 257,23,-1
 119 837 l 257,20,-1
410 691 m 257,24,-1
 403 7 l 257,25,-1
 603 7 l 257,26,-1
 610 691 l 257,27,-1
 410 691 l 257,24,-1
112 200 m 257,28,-1
 110 0 l 257,29,-1
 603 0 l 257,30,-1
 605 200 l 257,31,-1
 112 200 l 257,28,-1
110 63 m 257,32,-1
 108 -148 l 257,33,-1
 308 -148 l 257,34,-1
 310 63 l 257,35,-1
 110 63 l 257,32,-1
383 -22 m 257,36,-1
 381 -218 l 257,37,-1
 738 -218 l 257,38,-1
 740 -22 l 257,39,-1
 383 -22 l 257,36,-1
597 -183 m 257,40,-1
 930 -588 l 257,41,-1
 1076 -425 l 257,42,-1
 742 -21 l 257,43,-1
 597 -183 l 257,40,-1
EndSplineSet
Ligature2: "halnHalantFormsinDevanagari2lookup0 subtable" uni091D uni094D
EndChar

StartChar: uni091E
Encoding: 2334 2334 517
GlifName: uni091E_
Width: 1024
VWidth: 0
GlyphClass: 2
Flags: W
AnchorPoint: "abvm_deva" 834 1600 basechar 0
AnchorPoint: "blwm_deva" 846 -45 basechar 0
LayerCount: 2
Fore
SplineSet
0 1548 m 257,0,-1
 0 1348 l 257,1,-1
 1026 1348 l 257,2,-1
 1026 1548 l 257,3,-1
 0 1548 l 257,0,-1
735 1537 m 257,4,-1
 735 -8 l 257,5,-1
 935 -8 l 257,6,-1
 935 1537 l 257,7,-1
 735 1537 l 257,4,-1
465 737 m 257,8,-1
 465 537 l 257,9,-1
 832 537 l 257,10,-1
 832 737 l 257,11,-1
 465 737 l 257,8,-1
84 960 m 257,12,-1
 84 760 l 257,13,-1
 442 760 l 257,14,-1
 442 960 l 257,15,-1
 84 960 l 257,12,-1
411 960 m 257,16,-1
 411 316 l 257,17,-1
 611 316 l 257,18,-1
 611 960 l 257,19,-1
 411 960 l 257,16,-1
61 460 m 257,20,-1
 61 260 l 257,21,-1
 611 260 l 257,22,-1
 611 460 l 257,23,-1
 61 460 l 257,20,-1
EndSplineSet
EndChar

StartChar: uni091E_uni0930_uni094D.vatu
Encoding: 65582 -1 518
GlifName: uni091E__uni0930_uni094D_.vatu
Width: 1024
VWidth: 0
GlyphClass: 3
Flags: W
AnchorPoint: "abvm_deva" 839 1617 basechar 0
AnchorPoint: "blwm_deva" 807 -42 basechar 0
LayerCount: 2
Fore
SplineSet
168 0 m 257,0,-1
 425 0 l 257,1,-1
 765 182 l 257,2,-1
 765 383 l 257,3,-1
 168 0 l 257,0,-1
-5 1548 m 257,4,-1
 -5 1348 l 257,5,-1
 1029 1348 l 257,6,-1
 1029 1548 l 257,7,-1
 -5 1548 l 257,4,-1
735 1537 m 257,8,-1
 735 -8 l 257,9,-1
 935 -8 l 257,10,-1
 935 1537 l 257,11,-1
 735 1537 l 257,8,-1
465 737 m 257,12,-1
 465 537 l 257,13,-1
 832 537 l 257,14,-1
 832 737 l 257,15,-1
 465 737 l 257,12,-1
84 960 m 257,16,-1
 84 760 l 257,17,-1
 442 760 l 257,18,-1
 442 960 l 257,19,-1
 84 960 l 257,16,-1
411 960 m 257,20,-1
 411 316 l 257,21,-1
 611 316 l 257,22,-1
 611 960 l 257,23,-1
 411 960 l 257,20,-1
61 510 m 257,24,-1
 61 310 l 257,25,-1
 611 310 l 257,26,-1
 611 510 l 257,27,-1
 61 510 l 257,24,-1
EndSplineSet
Ligature2: "rkrfRakarVariantsinDevanagari2lookup0 subtable" uni091E uni094D uni0930
EndChar

StartChar: uni091E_uni094D.half
Encoding: 65583 -1 519
GlifName: uni091E__uni094D_.half
Width: 1024
VWidth: 0
GlyphClass: 3
Flags: W
AnchorPoint: "abvm_deva" 839 1617 basechar 0
AnchorPoint: "blwm_deva" 807 -42 basechar 0
LayerCount: 2
Fore
SplineSet
-5 1548 m 257,0,-1
 -5 1348 l 257,1,-1
 1029 1348 l 257,2,-1
 1029 1548 l 257,3,-1
 -5 1548 l 257,0,-1
665 737 m 257,4,-1
 665 537 l 257,5,-1
 1032 537 l 257,6,-1
 1032 737 l 257,7,-1
 665 737 l 257,4,-1
284 960 m 257,8,-1
 284 760 l 257,9,-1
 642 760 l 257,10,-1
 642 960 l 257,11,-1
 284 960 l 257,8,-1
611 960 m 257,12,-1
 611 316 l 257,13,-1
 811 316 l 257,14,-1
 811 960 l 257,15,-1
 611 960 l 257,12,-1
261 460 m 257,16,-1
 261 260 l 257,17,-1
 811 260 l 257,18,-1
 811 460 l 257,19,-1
 261 460 l 257,16,-1
EndSplineSet
Ligature2: "halfHalfFormsinDevanagari2lookup0 subtable" uni091E uni094D
EndChar

StartChar: uni091E_uni094D.haln
Encoding: 65584 -1 520
GlifName: uni091E__uni094D_.haln
Width: 1024
VWidth: 0
GlyphClass: 3
Flags: W
AnchorPoint: "abvm_deva" 839 1617 basechar 0
AnchorPoint: "blwm_deva" 807 -42 basechar 0
LayerCount: 2
Fore
SplineSet
2 1548 m 257,0,-1
 -1 1348 l 257,1,-1
 1025 1348 l 257,2,-1
 1028 1548 l 257,3,-1
 2 1548 l 257,0,-1
736 1537 m 257,4,-1
 719 -8 l 257,5,-1
 919 -8 l 257,6,-1
 936 1537 l 257,7,-1
 736 1537 l 257,4,-1
457 737 m 257,8,-1
 455 537 l 257,9,-1
 822 537 l 257,10,-1
 824 737 l 257,11,-1
 457 737 l 257,8,-1
79 960 m 257,12,-1
 77 760 l 257,13,-1
 435 760 l 257,14,-1
 437 960 l 257,15,-1
 79 960 l 257,12,-1
406 960 m 257,16,-1
 399 316 l 257,17,-1
 599 316 l 257,18,-1
 606 960 l 257,19,-1
 406 960 l 257,16,-1
50 460 m 257,20,-1
 48 260 l 257,21,-1
 598 260 l 257,22,-1
 600 460 l 257,23,-1
 50 460 l 257,20,-1
508 -22 m 257,24,-1
 506 -218 l 257,25,-1
 863 -218 l 257,26,-1
 865 -22 l 257,27,-1
 508 -22 l 257,24,-1
722 -183 m 257,28,-1
 1054 -588 l 257,29,-1
 1200 -425 l 257,30,-1
 867 -21 l 257,31,-1
 722 -183 l 257,28,-1
EndSplineSet
Ligature2: "halnHalantFormsinDevanagari2lookup0 subtable" uni091E uni094D
EndChar

StartChar: uni091F
Encoding: 2335 2335 521
GlifName: uni091F_
Width: 1024
VWidth: 0
GlyphClass: 2
Flags: W
AnchorPoint: "abvm_deva" 660 1582 basechar 0
AnchorPoint: "blwm_deva" 520 -45 basechar 0
LayerCount: 2
Fore
SplineSet
10 1548 m 257,0,-1
 10 1349 l 257,1,-1
 1024 1349 l 257,2,-1
 1024 1548 l 257,3,-1
 10 1548 l 257,0,-1
569 1528 m 257,4,-1
 569 988 l 257,5,-1
 769 988 l 257,6,-1
 769 1528 l 257,7,-1
 569 1528 l 257,4,-1
769 1023 m 257,8,-1
 120 1023 l 257,9,-1
 120 822 l 257,10,-1
 769 822 l 257,11,-1
 769 1023 l 257,8,-1
99 1023 m 257,12,-1
 99 5 l 257,13,-1
 299 5 l 257,14,-1
 299 1023 l 257,15,-1
 99 1023 l 257,12,-1
99 201 m 257,16,-1
 99 0 l 257,17,-1
 812 0 l 257,18,-1
 812 201 l 257,19,-1
 99 201 l 257,16,-1
EndSplineSet
EndChar

StartChar: uni091F_uni0930_uni094D.vatu
Encoding: 65585 -1 522
GlifName: uni091F__uni0930_uni094D_.vatu
Width: 1024
VWidth: 0
GlyphClass: 3
Flags: W
AnchorPoint: "abvm_deva" 839 1617 basechar 0
AnchorPoint: "blwm_deva" 706 -222 basechar 0
LayerCount: 2
Fore
SplineSet
411 213 m 257,0,-1
 635 -167 l 257,1,-1
 917 -167 l 257,2,-1
 533 382 l 257,3,-1
 411 213 l 257,0,-1
533 382 m 257,4,-1
 126 -176 l 257,5,-1
 347 -176 l 257,6,-1
 648 217 l 257,7,-1
 533 382 l 257,4,-1
0 1548 m 257,8,-1
 0 1348 l 257,9,-1
 1026 1348 l 257,10,-1
 1026 1548 l 257,11,-1
 0 1548 l 257,8,-1
559 1528 m 257,12,-1
 559 1064 l 257,13,-1
 759 1064 l 257,14,-1
 759 1528 l 257,15,-1
 559 1528 l 257,12,-1
759 1099 m 257,16,-1
 110 1099 l 257,17,-1
 110 898 l 257,18,-1
 759 898 l 257,19,-1
 759 1099 l 257,16,-1
89 1100 m 257,20,-1
 89 405 l 257,21,-1
 289 405 l 257,22,-1
 289 1100 l 257,23,-1
 89 1100 l 257,20,-1
89 601 m 257,24,-1
 89 400 l 257,25,-1
 802 400 l 257,26,-1
 802 601 l 257,27,-1
 89 601 l 257,24,-1
EndSplineSet
Ligature2: "rkrfRakarVariantsinDevanagari2lookup0 subtable" uni091F uni094D uni0930
EndChar

StartChar: uni091F_uni094D.haln
Encoding: 65586 -1 523
GlifName: uni091F__uni094D_.haln
Width: 1024
VWidth: 0
GlyphClass: 3
Flags: W
AnchorPoint: "abvm_deva" 839 1617 basechar 0
AnchorPoint: "blwm_deva" 807 -42 basechar 0
LayerCount: 2
Fore
SplineSet
2 1548 m 257,0,-1
 -0 1349 l 257,1,-1
 1014 1349 l 257,2,-1
 1016 1548 l 257,3,-1
 2 1548 l 257,0,-1
561 1528 m 257,4,-1
 555 988 l 257,5,-1
 755 988 l 257,6,-1
 761 1528 l 257,7,-1
 561 1528 l 257,4,-1
755 1023 m 257,8,-1
 106 1023 l 257,9,-1
 104 822 l 257,10,-1
 753 822 l 257,11,-1
 755 1023 l 257,8,-1
85 1023 m 257,12,-1
 74 5 l 257,13,-1
 274 5 l 257,14,-1
 285 1023 l 257,15,-1
 85 1023 l 257,12,-1
76 201 m 257,16,-1
 74 0 l 257,17,-1
 787 0 l 257,18,-1
 789 201 l 257,19,-1
 76 201 l 257,16,-1
415 -22 m 257,20,-1
 413 -218 l 257,21,-1
 770 -218 l 257,22,-1
 772 -22 l 257,23,-1
 415 -22 l 257,20,-1
629 -183 m 257,24,-1
 962 -588 l 257,25,-1
 1108 -425 l 257,26,-1
 774 -21 l 257,27,-1
 629 -183 l 257,24,-1
EndSplineSet
Ligature2: "halnHalantFormsinDevanagari2lookup0 subtable" uni091F uni094D
EndChar

StartChar: uni0920
Encoding: 2336 2336 524
GlifName: uni0920
Width: 1024
VWidth: 0
GlyphClass: 2
Flags: W
AnchorPoint: "abvm_deva" 552 1594 basechar 0
AnchorPoint: "blwm_deva" 520 -65 basechar 0
LayerCount: 2
Fore
SplineSet
0 1548 m 257,0,-1
 0 1349 l 257,1,-1
 1025 1349 l 257,2,-1
 1025 1548 l 257,3,-1
 0 1548 l 257,0,-1
411 1484 m 257,4,-1
 411 1023 l 257,5,-1
 611 1023 l 257,6,-1
 611 1484 l 257,7,-1
 411 1484 l 257,4,-1
85 1035 m 257,8,-1
 85 834 l 257,9,-1
 963 834 l 257,10,-1
 963 1035 l 257,11,-1
 85 1035 l 257,8,-1
72 1035 m 257,12,-1
 72 13 l 257,13,-1
 272 13 l 257,14,-1
 272 1035 l 257,15,-1
 72 1035 l 257,12,-1
763 1035 m 257,16,-1
 763 0 l 257,17,-1
 963 0 l 257,18,-1
 963 1035 l 257,19,-1
 763 1035 l 257,16,-1
73 198 m 257,20,-1
 73 0 l 257,21,-1
 943 0 l 257,22,-1
 943 198 l 257,23,-1
 73 198 l 257,20,-1
EndSplineSet
EndChar

StartChar: uni0920_uni0930_uni094D.vatu
Encoding: 65587 -1 525
GlifName: uni0920_uni0930_uni094D_.vatu
Width: 1024
VWidth: 0
GlyphClass: 3
Flags: W
AnchorPoint: "abvm_deva" 839 1617 basechar 0
AnchorPoint: "blwm_deva" 576 -211 basechar 0
LayerCount: 2
Fore
SplineSet
435 216 m 257,0,-1
 659 -164 l 257,1,-1
 941 -164 l 257,2,-1
 557 385 l 257,3,-1
 435 216 l 257,0,-1
557 385 m 257,4,-1
 150 -173 l 257,5,-1
 371 -173 l 257,6,-1
 672 220 l 257,7,-1
 557 385 l 257,4,-1
0 1548 m 257,8,-1
 0 1350 l 257,9,-1
 1026 1350 l 257,10,-1
 1026 1548 l 257,11,-1
 0 1548 l 257,8,-1
457 1484 m 257,12,-1
 457 1023 l 257,13,-1
 657 1023 l 257,14,-1
 657 1484 l 257,15,-1
 457 1484 l 257,12,-1
85 1035 m 257,16,-1
 85 834 l 257,17,-1
 963 834 l 257,18,-1
 963 1035 l 257,19,-1
 85 1035 l 257,16,-1
72 1035 m 257,20,-1
 72 413 l 257,21,-1
 272 413 l 257,22,-1
 272 1035 l 257,23,-1
 72 1035 l 257,20,-1
763 1035 m 257,24,-1
 763 398 l 257,25,-1
 963 398 l 257,26,-1
 963 1035 l 257,27,-1
 763 1035 l 257,24,-1
73 598 m 257,28,-1
 73 397 l 257,29,-1
 943 397 l 257,30,-1
 943 598 l 257,31,-1
 73 598 l 257,28,-1
EndSplineSet
Ligature2: "rkrfRakarVariantsinDevanagari2lookup0 subtable" uni0920 uni094D uni0930
EndChar

StartChar: uni0920_uni094D.haln
Encoding: 65588 -1 526
GlifName: uni0920_uni094D_.haln
Width: 1024
VWidth: 0
GlyphClass: 3
Flags: W
AnchorPoint: "abvm_deva" 839 1617 basechar 0
AnchorPoint: "blwm_deva" 576 -211 basechar 0
LayerCount: 2
Fore
SplineSet
5 1548 m 257,0,-1
 2 1349 l 257,1,-1
 1027 1349 l 257,2,-1
 1030 1548 l 257,3,-1
 5 1548 l 257,0,-1
415 1484 m 257,4,-1
 410 1023 l 257,5,-1
 610 1023 l 257,6,-1
 615 1484 l 257,7,-1
 415 1484 l 257,4,-1
84 1035 m 257,8,-1
 82 834 l 257,9,-1
 960 834 l 257,10,-1
 962 1035 l 257,11,-1
 84 1035 l 257,8,-1
71 1035 m 257,12,-1
 59 13 l 257,13,-1
 259 13 l 257,14,-1
 271 1035 l 257,15,-1
 71 1035 l 257,12,-1
762 1035 m 257,16,-1
 750 0 l 257,17,-1
 950 0 l 257,18,-1
 962 1035 l 257,19,-1
 762 1035 l 257,16,-1
62 198 m 257,20,-1
 60 0 l 257,21,-1
 930 0 l 257,22,-1
 932 198 l 257,23,-1
 62 198 l 257,20,-1
388 -22 m 257,24,-1
 386 -218 l 257,25,-1
 743 -218 l 257,26,-1
 745 -22 l 257,27,-1
 388 -22 l 257,24,-1
602 -183 m 257,28,-1
 935 -588 l 257,29,-1
 1081 -425 l 257,30,-1
 747 -21 l 257,31,-1
 602 -183 l 257,28,-1
EndSplineSet
Ligature2: "halnHalantFormsinDevanagari2lookup0 subtable" uni0920 uni094D
EndChar

StartChar: uni0921
Encoding: 2337 2337 527
GlifName: uni0921
Width: 1024
VWidth: 0
GlyphClass: 2
Flags: W
AnchorPoint: "abvm_deva" 864 1606 basechar 0
AnchorPoint: "blwm_deva" 500 -98 basechar 0
LayerCount: 2
Fore
SplineSet
0 1548 m 257,0,-1
 0 1348 l 257,1,-1
 1026 1348 l 257,2,-1
 1026 1548 l 257,3,-1
 0 1548 l 257,0,-1
384 1049 m 257,4,-1
 384 638 l 257,5,-1
 583 638 l 257,6,-1
 583 1049 l 257,7,-1
 384 1049 l 257,4,-1
384 746 m 257,8,-1
 384 538 l 257,9,-1
 927 538 l 257,10,-1
 927 746 l 257,11,-1
 384 746 l 257,8,-1
728 703 m 257,12,-1
 728 5 l 257,13,-1
 927 5 l 257,14,-1
 927 703 l 257,15,-1
 728 703 l 257,12,-1
62 200 m 257,16,-1
 62 0 l 257,17,-1
 927 0 l 257,18,-1
 927 200 l 257,19,-1
 62 200 l 257,16,-1
62 331 m 257,20,-1
 62 5 l 257,21,-1
 262 5 l 257,22,-1
 262 331 l 257,23,-1
 62 331 l 257,20,-1
384 1134 m 257,24,-1
 384 926 l 257,25,-1
 927 926 l 257,26,-1
 927 1134 l 257,27,-1
 384 1134 l 257,24,-1
728 1391 m 257,28,-1
 728 980 l 257,29,-1
 927 980 l 257,30,-1
 927 1391 l 257,31,-1
 728 1391 l 257,28,-1
EndSplineSet
EndChar

StartChar: uni0921_uni0930_uni094D.vatu
Encoding: 65589 -1 528
GlifName: uni0921_uni0930_uni094D_.vatu
Width: 1024
VWidth: 0
GlyphClass: 3
Flags: W
AnchorPoint: "abvm_deva" 839 1617 basechar 0
AnchorPoint: "blwm_deva" 576 -211 basechar 0
LayerCount: 2
Fore
SplineSet
426 134 m 257,0,-1
 650 -137 l 257,1,-1
 932 -137 l 257,2,-1
 548 255 l 257,3,-1
 426 134 l 257,0,-1
548 255 m 257,4,-1
 141 -143 l 257,5,-1
 362 -143 l 257,6,-1
 663 137 l 257,7,-1
 548 255 l 257,4,-1
0 1548 m 257,8,-1
 0 1348 l 257,9,-1
 1026 1348 l 257,10,-1
 1026 1548 l 257,11,-1
 0 1548 l 257,8,-1
384 1129 m 257,12,-1
 384 756 l 257,13,-1
 583 756 l 257,14,-1
 583 1129 l 257,15,-1
 384 1129 l 257,12,-1
384 864 m 257,16,-1
 384 656 l 257,17,-1
 927 656 l 257,18,-1
 927 864 l 257,19,-1
 384 864 l 257,16,-1
728 821 m 257,20,-1
 728 254 l 257,21,-1
 927 254 l 257,22,-1
 927 821 l 257,23,-1
 728 821 l 257,20,-1
62 449 m 257,24,-1
 62 249 l 257,25,-1
 927 249 l 257,26,-1
 927 449 l 257,27,-1
 62 449 l 257,24,-1
62 580 m 257,28,-1
 62 254 l 257,29,-1
 262 254 l 257,30,-1
 262 580 l 257,31,-1
 62 580 l 257,28,-1
384 1214 m 257,32,-1
 384 1006 l 257,33,-1
 927 1006 l 257,34,-1
 927 1214 l 257,35,-1
 384 1214 l 257,32,-1
728 1391 m 257,36,-1
 728 1060 l 257,37,-1
 927 1060 l 257,38,-1
 927 1391 l 257,39,-1
 728 1391 l 257,36,-1
EndSplineSet
Ligature2: "rkrfRakarVariantsinDevanagari2lookup0 subtable" uni0921 uni094D uni0930
EndChar

StartChar: uni0921_uni094D.haln
Encoding: 65590 -1 529
GlifName: uni0921_uni094D_.haln
Width: 1024
VWidth: 0
GlyphClass: 3
Flags: W
AnchorPoint: "abvm_deva" 839 1617 basechar 0
AnchorPoint: "blwm_deva" 576 -211 basechar 0
LayerCount: 2
Fore
SplineSet
2 1548 m 257,0,-1
 -1 1348 l 257,1,-1
 1025 1348 l 257,2,-1
 1028 1548 l 257,3,-1
 2 1548 l 257,0,-1
380 1049 m 257,4,-1
 375 638 l 257,5,-1
 574 638 l 257,6,-1
 579 1049 l 257,7,-1
 380 1049 l 257,4,-1
377 746 m 257,8,-1
 374 538 l 257,9,-1
 917 538 l 257,10,-1
 920 746 l 257,11,-1
 377 746 l 257,8,-1
720 703 m 257,12,-1
 712 5 l 257,13,-1
 911 5 l 257,14,-1
 919 703 l 257,15,-1
 720 703 l 257,12,-1
48 200 m 257,16,-1
 46 0 l 257,17,-1
 911 0 l 257,18,-1
 913 200 l 257,19,-1
 48 200 l 257,16,-1
50 331 m 257,20,-1
 46 5 l 257,21,-1
 246 5 l 257,22,-1
 250 331 l 257,23,-1
 50 331 l 257,20,-1
381 1134 m 257,24,-1
 379 926 l 257,25,-1
 922 926 l 257,26,-1
 924 1134 l 257,27,-1
 381 1134 l 257,24,-1
728 1391 m 257,28,-1
 723 980 l 257,29,-1
 922 980 l 257,30,-1
 927 1391 l 257,31,-1
 728 1391 l 257,28,-1
368 -22 m 257,32,-1
 366 -218 l 257,33,-1
 723 -218 l 257,34,-1
 725 -22 l 257,35,-1
 368 -22 l 257,32,-1
582 -183 m 257,36,-1
 915 -588 l 257,37,-1
 1061 -425 l 257,38,-1
 727 -21 l 257,39,-1
 582 -183 l 257,36,-1
EndSplineSet
Ligature2: "halnHalantFormsinDevanagari2lookup0 subtable" uni0921 uni094D
EndChar

StartChar: uni0922
Encoding: 2338 2338 530
GlifName: uni0922
Width: 1024
VWidth: 0
GlyphClass: 2
Flags: W
AnchorPoint: "abvm_deva" 696 1588 basechar 0
AnchorPoint: "blwm_deva" 505 -65 basechar 0
LayerCount: 2
Fore
SplineSet
0 1548 m 257,0,-1
 0 1348 l 257,1,-1
 1025 1348 l 257,2,-1
 1025 1548 l 257,3,-1
 0 1548 l 257,0,-1
569 1528 m 257,4,-1
 569 988 l 257,5,-1
 769 988 l 257,6,-1
 769 1528 l 257,7,-1
 569 1528 l 257,4,-1
769 1023 m 257,8,-1
 120 1023 l 257,9,-1
 120 822 l 257,10,-1
 769 822 l 257,11,-1
 769 1023 l 257,8,-1
99 1023 m 257,12,-1
 99 5 l 257,13,-1
 299 5 l 257,14,-1
 299 1023 l 257,15,-1
 99 1023 l 257,12,-1
99 201 m 257,16,-1
 99 0 l 257,17,-1
 812 0 l 257,18,-1
 812 201 l 257,19,-1
 99 201 l 257,16,-1
613 544 m 257,20,-1
 613 0 l 257,21,-1
 814 0 l 257,22,-1
 814 544 l 257,23,-1
 613 544 l 257,20,-1
560 547 m 257,24,-1
 560 347 l 257,25,-1
 812 347 l 257,26,-1
 812 547 l 257,27,-1
 560 547 l 257,24,-1
EndSplineSet
EndChar

StartChar: uni0922_uni0930_uni094D.vatu
Encoding: 65591 -1 531
GlifName: uni0922_uni0930_uni094D_.vatu
Width: 1024
VWidth: 0
GlyphClass: 2
Flags: W
AnchorPoint: "abvm_deva" 839 1617 basechar 0
AnchorPoint: "blwm_deva" 576 -211 basechar 0
LayerCount: 2
Fore
SplineSet
426 230 m 257,0,-1
 650 -150 l 257,1,-1
 932 -150 l 257,2,-1
 548 399 l 257,3,-1
 426 230 l 257,0,-1
548 399 m 257,4,-1
 141 -159 l 257,5,-1
 362 -159 l 257,6,-1
 663 234 l 257,7,-1
 548 399 l 257,4,-1
10 1548 m 257,8,-1
 10 1348 l 257,9,-1
 1024 1348 l 257,10,-1
 1024 1548 l 257,11,-1
 10 1548 l 257,8,-1
569 1528 m 257,12,-1
 569 988 l 257,13,-1
 769 988 l 257,14,-1
 769 1528 l 257,15,-1
 569 1528 l 257,12,-1
769 1169 m 257,16,-1
 120 1169 l 257,17,-1
 120 968 l 257,18,-1
 769 968 l 257,19,-1
 769 1169 l 257,16,-1
99 1168 m 257,20,-1
 99 405 l 257,21,-1
 299 405 l 257,22,-1
 299 1168 l 257,23,-1
 99 1168 l 257,20,-1
99 601 m 257,24,-1
 99 400 l 257,25,-1
 812 400 l 257,26,-1
 812 601 l 257,27,-1
 99 601 l 257,24,-1
613 844 m 257,28,-1
 613 398 l 257,29,-1
 814 398 l 257,30,-1
 814 844 l 257,31,-1
 613 844 l 257,28,-1
560 847 m 257,32,-1
 560 647 l 257,33,-1
 812 647 l 257,34,-1
 812 847 l 257,35,-1
 560 847 l 257,32,-1
EndSplineSet
Ligature2: "rkrfRakarVariantsinDevanagari2lookup0 subtable" uni0922 uni094D uni0930
EndChar

StartChar: uni0922_uni094D.haln
Encoding: 65592 -1 532
GlifName: uni0922_uni094D_.haln
Width: 1024
VWidth: 0
GlyphClass: 3
Flags: W
AnchorPoint: "abvm_deva" 839 1617 basechar 0
AnchorPoint: "blwm_deva" 576 -211 basechar 0
LayerCount: 2
Fore
SplineSet
2 1548 m 257,0,-1
 -1 1348 l 257,1,-1
 1024 1348 l 257,2,-1
 1027 1548 l 257,3,-1
 2 1548 l 257,0,-1
571 1528 m 257,4,-1
 564 988 l 257,5,-1
 764 988 l 257,6,-1
 771 1528 l 257,7,-1
 571 1528 l 257,4,-1
765 1023 m 257,8,-1
 116 1023 l 257,9,-1
 114 822 l 257,10,-1
 763 822 l 257,11,-1
 765 1023 l 257,8,-1
95 1023 m 257,12,-1
 83 5 l 257,13,-1
 283 5 l 257,14,-1
 295 1023 l 257,15,-1
 95 1023 l 257,12,-1
85 201 m 257,16,-1
 83 0 l 257,17,-1
 796 0 l 257,18,-1
 798 201 l 257,19,-1
 85 201 l 257,16,-1
603 544 m 257,20,-1
 597 0 l 257,21,-1
 798 0 l 257,22,-1
 804 544 l 257,23,-1
 603 544 l 257,20,-1
550 547 m 257,24,-1
 548 347 l 257,25,-1
 800 347 l 257,26,-1
 802 547 l 257,27,-1
 550 547 l 257,24,-1
424 -22 m 257,28,-1
 422 -218 l 257,29,-1
 779 -218 l 257,30,-1
 781 -22 l 257,31,-1
 424 -22 l 257,28,-1
638 -183 m 257,32,-1
 971 -588 l 257,33,-1
 1117 -425 l 257,34,-1
 783 -21 l 257,35,-1
 638 -183 l 257,32,-1
EndSplineSet
Ligature2: "halnHalantFormsinDevanagari2lookup0 subtable" uni0922 uni094D
EndChar

StartChar: uni0923
Encoding: 2339 2339 533
GlifName: uni0923
Width: 1024
VWidth: 0
GlyphClass: 2
Flags: W
AnchorPoint: "abvm_deva" 846 1588 basechar 0
AnchorPoint: "blwm_deva" 829 -47 basechar 0
LayerCount: 2
Fore
SplineSet
0 1548 m 257,0,-1
 0 1348 l 257,1,-1
 1025 1348 l 257,2,-1
 1025 1548 l 257,3,-1
 0 1548 l 257,0,-1
721 1530 m 257,4,-1
 721 0 l 257,5,-1
 921 0 l 257,6,-1
 921 1530 l 257,7,-1
 721 1530 l 257,4,-1
109 1543 m 257,8,-1
 109 855 l 257,9,-1
 309 855 l 257,10,-1
 309 1543 l 257,11,-1
 109 1543 l 257,8,-1
465 1528 m 257,12,-1
 465 844 l 257,13,-1
 665 844 l 257,14,-1
 665 1528 l 257,15,-1
 465 1528 l 257,12,-1
109 1023 m 257,16,-1
 109 825 l 257,17,-1
 665 825 l 257,18,-1
 665 1023 l 257,19,-1
 109 1023 l 257,16,-1
EndSplineSet
EndChar

StartChar: uni0923_uni0930_uni094D.vatu
Encoding: 65593 -1 534
GlifName: uni0923_uni0930_uni094D_.vatu
Width: 1024
VWidth: 0
GlyphClass: 2
Flags: W
AnchorPoint: "abvm_deva" 839 1617 basechar 0
AnchorPoint: "blwm_deva" 825 -142 basechar 0
LayerCount: 2
Fore
SplineSet
129 0 m 257,0,-1
 386 0 l 257,1,-1
 726 215 l 257,2,-1
 726 416 l 257,3,-1
 129 0 l 257,0,-1
0 1548 m 257,4,-1
 0 1350 l 257,5,-1
 1029 1350 l 257,6,-1
 1029 1548 l 257,7,-1
 0 1548 l 257,4,-1
721 1530 m 257,8,-1
 721 0 l 257,9,-1
 921 0 l 257,10,-1
 921 1530 l 257,11,-1
 721 1530 l 257,8,-1
109 1543 m 257,12,-1
 109 855 l 257,13,-1
 309 855 l 257,14,-1
 309 1543 l 257,15,-1
 109 1543 l 257,12,-1
465 1528 m 257,16,-1
 465 844 l 257,17,-1
 665 844 l 257,18,-1
 665 1528 l 257,19,-1
 465 1528 l 257,16,-1
109 1023 m 257,20,-1
 109 825 l 257,21,-1
 665 825 l 257,22,-1
 665 1023 l 257,23,-1
 109 1023 l 257,20,-1
EndSplineSet
LCarets2: 2 0 0
Ligature2: "rkrfRakarVariantsinDevanagari2lookup0 subtable" uni0923 uni094D uni0930
EndChar

